<svg width="471" height="377" viewBox="0 0 471 377" fill="none" xmlns="http://www.w3.org/2000/svg">
<path d="M454.313 284.317C463.109 287.951 466.82 276.389 466.556 267.971C466.292 259.553 463.531 253.289 460.917 252.814C456.347 251.994 442.876 279.52 454.313 284.317Z" fill="#0095D9"/>
<path d="M385.48 239.586C381.91 243.948 378.002 248.021 373.793 251.77C363.518 261.192 350.298 270.839 346.415 266.663C340.565 260.412 363.188 226.636 367.731 222.935C369.431 221.42 371.59 220.52 373.863 220.379C376.135 220.237 378.389 220.863 380.264 222.156C386.048 225.856 389.429 234.353 385.48 239.586Z" fill="#0095D9"/>
<path opacity="0.1" d="M366.45 255.734C369.02 254.654 371.479 253.326 373.793 251.77C363.518 261.192 350.298 270.839 346.415 266.663C340.565 260.412 363.188 226.636 367.731 222.935C369.431 221.42 371.59 220.52 373.863 220.379C376.135 220.237 378.389 220.863 380.264 222.156C370.776 227.878 363.264 236.367 358.737 246.484C357.509 249.418 354.326 256.355 361.378 257.056C362.924 257.294 365.076 256.25 366.45 255.734Z" fill="#030402"/>
<path d="M398.555 289.101C393.867 292.497 343.087 309.452 332.39 304.8C321.693 300.149 318.021 271.473 321.653 271.473C325.285 271.473 331.201 278.225 332.099 278.344C332.614 278.424 341.053 273.521 349.202 269.266C354.934 266.279 360.52 263.597 363.122 263.187C385.071 259.685 397.815 276.693 399.334 285.044C399.678 286.987 399.44 288.454 398.555 289.101Z" fill="#0095D9"/>
<path opacity="0.1" d="M398.555 289.101C393.867 292.497 343.087 309.452 332.39 304.8C321.693 300.148 318.021 271.473 321.653 271.473C325.285 271.473 331.201 278.225 332.099 278.344C332.614 278.424 341.053 273.521 349.202 269.266C345.025 272.335 341.497 276.202 338.822 280.644C332.43 292.405 349.321 297.915 357.747 298.047C365.829 298.206 373.595 295.708 381.135 292.973C387.356 290.7 393.434 288.052 399.334 285.044C399.678 286.987 399.44 288.454 398.555 289.101Z" fill="#030402"/>
<path d="M456.532 284.212C456.296 284.68 456.013 285.123 455.687 285.533C450.866 291.889 431.915 302.712 415.525 305.157C397.868 307.8 365.631 303.082 359.82 290.502C354.009 277.921 371.112 219.143 372.406 216.037L436.445 211.161L436.92 212.35C440.393 220.98 461.366 273.772 456.532 284.212Z" fill="#0095D9"/>
<path opacity="0.1" d="M455.687 285.573C450.866 291.929 431.915 302.752 415.525 305.196C397.868 307.839 365.631 303.122 359.82 290.541C354.009 277.961 371.112 219.182 372.406 216.077L436.445 211.201L436.92 212.39C420.095 219.064 403.309 227.627 390.38 240.498C377.451 253.369 368.51 276.177 383.275 291.202C396.072 304.258 418.061 301.932 433.698 296.488C441.432 293.731 448.813 290.067 455.687 285.573Z" fill="#030402"/>
<path d="M452.279 290.238C451.117 291.942 445.597 296.845 438.162 302.659C422.05 315.345 396.97 332.604 387.977 332.022C374.77 331.176 360.084 302.078 363.927 300.69C367.77 299.303 376.632 304.245 377.636 304.034C378.362 303.875 389.046 291.07 397.274 282.745C399.524 280.248 402.064 278.03 404.841 276.138C431.928 261.311 455.964 284.806 452.279 290.238Z" fill="#0095D9"/>
<path opacity="0.1" d="M438.162 302.659C422.05 315.345 396.97 332.604 387.977 332.022C374.77 331.177 360.084 302.078 363.927 300.69C367.77 299.303 376.632 304.245 377.636 304.034C378.362 303.875 389.046 291.07 397.274 282.745C392.388 288.81 387.382 296.184 386.339 303.822C384.543 317.037 400.866 318.477 409.979 316.614C420.491 314.46 429.498 308.87 438.162 302.659Z" fill="#030402"/>
<path d="M447.433 280.657C438.28 283.802 413.822 244.792 412.092 238.37C410.282 231.67 413.571 226.821 418.378 224.27C424.876 220.861 434.134 221.627 437.488 227.706C441.199 234.445 447.934 252.814 449.968 266.028C451.183 273.614 450.774 279.52 447.433 280.657Z" fill="#0095D9"/>
<path opacity="0.1" d="M447.433 280.657C438.28 283.802 413.822 244.792 412.092 238.37C410.282 231.67 413.571 226.821 418.378 224.27C416.093 228.512 419.884 237.287 421.389 240.326C423.927 245.062 426.88 249.563 430.211 253.778C433.016 257.812 436.229 261.545 439.799 264.918C441.12 266.134 444.527 269.358 446.336 269.451C448.582 269.557 449.572 267.997 449.968 266.028C451.183 273.614 450.774 279.52 447.433 280.657Z" fill="#030402"/>
<path d="M371.072 216.183C367.202 215.535 367.519 223.001 368.272 224.257C369.025 225.512 381.069 234.102 402.266 232.476C425.523 230.719 439.839 221.495 440.988 219.817C442.137 218.138 439.746 210.95 437.211 211.148C434.675 211.346 408.922 222.486 371.072 216.183Z" fill="#0095D9"/>
<path opacity="0.6" d="M371.072 216.183C367.202 215.535 367.519 223.001 368.272 224.257C369.025 225.512 381.069 234.102 402.266 232.476C425.523 230.719 439.839 221.495 440.988 219.817C442.137 218.138 439.746 210.95 437.211 211.148C434.675 211.346 408.922 222.486 371.072 216.183Z" fill="white"/>
<path d="M382.509 131.754L364.641 144.573C363.647 144.59 362.653 144.528 361.669 144.388C358.056 143.999 354.623 142.607 351.757 140.371C348.892 138.134 346.708 135.14 345.451 131.728C340.354 118.196 347.947 101.255 367.903 104.678C378.389 106.475 381.558 115.897 382.43 123.178C382.749 126.027 382.776 128.9 382.509 131.754Z" fill="#0095D9"/>
<path opacity="0.6" d="M365.895 138.56C365.895 138.56 357.456 138.956 354.405 130.869C351.355 122.782 355.898 112.633 367.823 114.681C378.27 116.478 376.579 130.882 376.579 130.882L365.895 138.56Z" fill="white"/>
<path d="M470.399 128.517C470.478 135.6 466.688 140.106 462.079 142.974C457.274 145.699 451.943 147.366 446.442 147.863L430.594 132.64C430.594 132.64 427.372 118.883 439.72 111.404C447.05 106.964 456.373 106.7 462.805 111.404C467.229 114.681 470.28 120.284 470.399 128.517Z" fill="#0095D9"/>
<path opacity="0.6" d="M436.735 132.838C436.735 132.838 434.807 124.605 442.203 120.126C449.599 115.646 460.388 118.276 460.547 130.367C460.692 140.939 446.218 141.943 446.218 141.943L436.735 132.838Z" fill="white"/>
<path opacity="0.1" d="M446.112 135.256C449.453 143.278 455.766 144.705 462.079 142.974C457.274 145.699 451.943 147.366 446.442 147.863L430.594 132.64C430.594 132.64 427.372 118.883 439.72 111.404C447.05 106.964 456.373 106.7 462.805 111.404C450.853 111.113 441.265 123.588 446.112 135.256Z" fill="#030402"/>
<path d="M454.009 191.088C453.51 193.202 452.834 195.271 451.989 197.273C451.016 199.543 449.808 201.704 448.383 203.721C443.497 210.593 436.233 215.614 427.94 219.13C416.507 223.699 404.196 225.645 391.912 224.825C377.134 223.847 364.905 218.773 356.769 211.214C352.658 207.481 349.513 202.806 347.604 197.59C344.606 189.225 346.283 181.375 349.215 173.645C351.46 167.711 354.432 161.844 356.584 155.884C357.998 151.925 359.698 148.074 361.669 144.361C362.748 142.352 363.934 140.402 365.222 138.52C368.31 133.93 372.165 129.907 376.619 126.627C378.442 125.294 380.372 124.114 382.39 123.099C388.235 120.193 394.634 118.575 401.157 118.355C403.959 118.202 406.767 118.202 409.569 118.355C427.213 119.372 438.28 126.442 444.184 134.133C450.325 142.22 459.107 170.222 454.009 191.088Z" fill="#0095D9"/>
<g opacity="0.4">
<path opacity="0.6" d="M367.202 192.674C367.374 196.425 366.489 200.149 364.646 203.42C362.803 206.692 360.079 209.379 356.782 211.174C352.643 207.461 349.47 202.793 347.538 197.576C344.553 189.198 346.217 181.362 349.162 173.632C353.954 174.106 358.415 176.292 361.728 179.789C365.041 183.286 366.985 187.86 367.202 192.674Z" fill="white"/>
<path opacity="0.6" d="M454.009 191.088C453.508 193.202 452.832 195.27 451.989 197.273C447.644 207.514 438.637 214.663 427.94 219.13C424.31 218.174 420.991 216.293 418.305 213.67C415.619 211.048 413.658 207.774 412.613 204.167C411.569 200.56 411.476 196.744 412.345 193.091C413.214 189.438 415.014 186.073 417.57 183.323C420.126 180.574 423.351 178.535 426.929 177.404C430.508 176.273 434.318 176.09 437.989 176.872C441.659 177.654 445.065 179.375 447.872 181.867C450.68 184.358 452.795 187.535 454.009 191.088Z" fill="white"/>
</g>
<path opacity="0.1" d="M448.384 203.721C443.497 210.593 436.233 215.615 427.94 219.13C416.507 223.699 404.196 225.645 391.912 224.825C377.134 223.847 364.905 218.773 356.769 211.214C352.658 207.481 349.514 202.806 347.604 197.59C344.606 189.225 346.283 181.375 349.215 173.645C351.46 167.712 354.432 161.844 356.584 155.884C357.999 151.925 359.698 148.074 361.669 144.361C358.056 143.972 354.623 142.581 351.757 140.344C348.892 138.107 346.708 135.114 345.451 131.702C340.354 118.17 347.947 101.229 367.903 104.651C378.389 106.448 381.558 115.871 382.43 123.152C388.274 120.246 394.674 118.628 401.196 118.408C403.998 118.255 406.807 118.255 409.609 118.408C377.596 125.266 365.288 169.707 363.848 178.984C362.304 188.408 364.524 198.061 370.029 205.862C382.218 222.698 408.473 221.376 426.091 215.443C434.073 212.689 441.589 208.737 448.384 203.721Z" fill="#030402"/>
<path opacity="0.6" d="M381.835 167.513C376.711 169.416 367.533 187.97 370.914 192.938C374.294 197.907 402.345 201.211 407.694 196.48C413.043 191.749 405.62 172.403 402.332 169.918C399.044 167.434 386.603 165.743 381.835 167.513Z" fill="white"/>
<path d="M372.657 165.505C370.517 165.227 368.404 167.183 368.048 169.773C367.691 172.363 369.223 174.808 371.363 175.059C373.502 175.31 375.628 173.394 375.972 170.804C376.315 168.214 374.81 165.795 372.657 165.505Z" fill="#263238"/>
<path d="M375.589 168.319C375.589 168.24 375.391 168.319 375.417 168.319C376.196 172.112 374.268 176.38 369.949 176.354C369.883 176.354 369.857 176.446 369.949 176.46C374.585 177.438 377.372 172.337 375.589 168.319Z" fill="#263238"/>
<path d="M414.205 169.575C416.371 169.72 418.048 172.072 417.876 174.676C417.705 177.279 415.724 179.38 413.558 179.235C411.392 179.089 409.715 176.75 409.899 174.134C410.084 171.517 412.026 169.429 414.205 169.575Z" fill="#263238"/>
<path d="M410.758 171.742C410.758 171.676 410.956 171.742 410.916 171.821C409.384 175.389 410.415 179.961 414.667 180.794V180.9C409.847 180.86 408.196 175.323 410.758 171.742Z" fill="#263238"/>
<path d="M376.738 156.122C376.566 154.946 375.166 154.801 374.215 154.867C372.97 154.984 371.757 155.329 370.636 155.884C370.369 156.012 370.149 156.222 370.008 156.482C369.867 156.743 369.812 157.042 369.852 157.336C369.892 157.63 370.023 157.903 370.228 158.118C370.433 158.332 370.701 158.475 370.993 158.527C372.171 158.625 373.356 158.509 374.493 158.184C375.483 157.946 376.923 157.404 376.738 156.122Z" fill="#263238"/>
<path d="M413.518 159.928C413.928 158.818 415.341 158.91 416.239 159.214C417.44 159.562 418.561 160.141 419.54 160.919C419.785 161.095 419.966 161.345 420.057 161.632C420.149 161.919 420.145 162.227 420.047 162.512C419.949 162.797 419.763 163.042 419.514 163.213C419.266 163.383 418.969 163.468 418.669 163.456C417.493 163.313 416.352 162.959 415.301 162.412C414.377 161.99 413.082 161.157 413.518 159.928Z" fill="#263238"/>
<path d="M387.792 176.631C385.428 176.314 379.868 171.346 380.898 168.967C381.928 166.588 394.368 168.28 395.848 170.288C397.327 172.297 389.112 176.803 387.792 176.631Z" fill="#263238"/>
<path d="M431.664 184.454C431.54 185.69 431.053 186.861 430.264 187.819C429.475 188.777 428.42 189.48 427.232 189.838C426.044 190.196 424.776 190.194 423.589 189.831C422.403 189.468 421.35 188.762 420.565 187.8C419.78 186.839 419.297 185.666 419.178 184.43C419.059 183.195 419.309 181.951 419.896 180.857C420.483 179.764 421.382 178.869 422.477 178.286C423.573 177.703 424.816 177.458 426.051 177.583C427.704 177.753 429.223 178.572 430.275 179.859C431.327 181.147 431.826 182.799 431.664 184.454Z" fill="#FF99BA"/>
<path d="M364.231 177.887C364.104 179.122 363.615 180.291 362.824 181.248C362.033 182.204 360.976 182.905 359.787 183.26C358.598 183.616 357.331 183.61 356.145 183.245C354.959 182.88 353.908 182.171 353.125 181.208C352.342 180.245 351.862 179.072 351.745 177.836C351.629 176.6 351.881 175.357 352.471 174.264C353.06 173.172 353.96 172.279 355.056 171.698C356.153 171.117 357.397 170.875 358.631 171.002C360.286 171.172 361.806 171.993 362.856 173.284C363.906 174.575 364.401 176.231 364.231 177.887Z" fill="#FF99BA"/>
<path d="M274.624 271.089C288.729 273.256 316.106 330.225 301.394 337.162C289.508 342.779 250.641 313.178 251.803 293.435C252.582 280.353 264.732 269.57 274.624 271.089Z" fill="#AD6359"/>
<path d="M164.442 265.235C163.61 242.955 175.311 199.929 198.779 192.555C222.247 185.181 248.251 198.422 252.556 228.935C255.91 252.721 246.97 277.313 246.97 277.313C246.97 277.313 266.779 269.504 272.775 270.799C284.661 273.376 297.009 296.316 285.123 310.112C276.632 319.957 217.994 364.755 185.216 332.498C166.515 314.103 165.459 292.894 164.442 265.235Z" fill="#AD6359"/>
<g opacity="0.1">
<path d="M274.624 271.089C288.729 273.257 316.106 330.225 301.394 337.163C289.508 342.779 250.641 313.178 251.803 293.435C252.582 280.353 264.732 269.57 274.624 271.089Z" fill="black"/>
<path d="M164.442 265.235C163.61 242.955 175.311 199.929 198.779 192.555C222.247 185.181 248.251 198.422 252.556 228.935C255.91 252.721 246.97 277.313 246.97 277.313C246.97 277.313 266.779 269.504 272.775 270.799C284.661 273.376 297.009 296.316 285.123 310.112C276.632 319.957 217.994 364.755 185.216 332.498C166.515 314.103 165.459 292.894 164.442 265.235Z" fill="black"/>
</g>
<path d="M247.683 273.587C245.882 279.882 243.034 285.828 239.257 291.176C237.461 293.752 235.533 296.21 233.499 298.602C231.372 301.27 228.997 303.73 226.407 305.95C226.116 306.174 226.407 306.61 226.763 306.399C228.15 305.368 229.669 304.522 231.016 303.412C232.339 302.302 233.604 301.124 234.806 299.884C237.117 297.521 239.142 294.896 240.842 292.061C244.235 286.375 246.641 280.156 247.96 273.666C247.986 273.508 247.802 273.428 247.683 273.587Z" fill="#263238"/>
<path d="M277.516 309.623C275.27 313.93 272.325 317.832 268.8 321.173C267.149 322.719 265.446 324.146 263.676 325.507C261.834 327.039 259.832 328.368 257.706 329.472C257.469 329.577 257.614 330 257.852 329.908C258.948 329.445 260.097 329.154 261.18 328.586C262.253 328.044 263.294 327.44 264.297 326.776C266.268 325.477 268.07 323.937 269.658 322.19C273.005 318.502 275.714 314.282 277.675 309.703C277.728 309.636 277.569 309.518 277.516 309.623Z" fill="#263238"/>
<path d="M48.7122 277.802C56.1343 279.586 97.986 288.44 124.135 280.961C144.125 275.477 161.234 262.495 171.903 244.713C189.072 216.605 172.867 195.422 155.527 204.646C134.938 215.614 115.907 229.291 102.622 233.718C86.3774 239.11 58.1946 240.59 53.7571 241.422C44.4201 243.18 39.4676 275.556 48.7122 277.802Z" fill="#AD6359"/>
<path d="M56.4116 241.502C53.8892 237.894 43.839 231.749 42.3334 228.75C40.8278 225.75 38.7808 217.346 34.3302 219.566C29.8796 221.786 34.4227 233.824 35.4924 236.573C36.5621 239.321 8.30002 229.899 5.94925 236.573C3.59847 243.246 23.5272 247.739 23.1178 249.1C22.7084 250.461 1.43259 247.937 0.0591081 253.858C-1.31438 259.778 21.7047 260.346 21.6651 260.808C21.6255 261.271 5.27571 255.417 3.057 260.346C0.838293 265.275 24.0159 269.675 23.9366 270.719C23.8574 271.763 10.281 273.627 11.2715 278.926C12.262 284.225 32.7058 278.794 34.5811 278.582C36.4565 278.371 50.9705 279.349 53.2288 277.089C55.4872 274.829 58.2077 244.079 56.4116 241.502Z" fill="#AD6359"/>
<g opacity="0.1">
<path d="M48.7122 277.802C56.1343 279.586 97.986 288.44 124.135 280.961C144.125 275.477 161.234 262.495 171.903 244.713C189.072 216.605 172.867 195.422 155.527 204.646C134.938 215.614 115.907 229.291 102.622 233.718C86.3774 239.11 58.1946 240.59 53.7571 241.422C44.4201 243.18 39.4676 275.556 48.7122 277.802Z" fill="black"/>
<path d="M56.4116 241.502C53.8892 237.894 43.839 231.749 42.3334 228.75C40.8278 225.75 38.7808 217.345 34.3302 219.565C29.8796 221.785 34.4227 233.824 35.4924 236.573C36.5621 239.321 8.30002 229.899 5.94925 236.573C3.59847 243.246 23.5272 247.739 23.1178 249.1C22.7084 250.461 1.43259 247.937 0.0591081 253.857C-1.31438 259.778 21.7047 260.346 21.6651 260.808C21.6255 261.271 5.27571 255.417 3.057 260.346C0.838293 265.275 24.0159 269.675 23.9366 270.719C23.8574 271.763 10.281 273.626 11.2715 278.926C12.262 284.225 32.7058 278.793 34.5811 278.582C36.4565 278.371 50.9705 279.348 53.2288 277.089C55.4872 274.829 58.2077 244.079 56.4116 241.502Z" fill="black"/>
</g>
<path d="M38.3847 242.652C36.3334 246.987 34.838 251.565 33.9341 256.276C33.1906 261.043 33.1061 265.89 33.6831 270.68C33.6831 271.05 34.2907 271.05 34.251 270.68C33.9713 265.942 34.2416 261.189 35.0566 256.514C35.7271 251.815 36.9873 247.22 38.8073 242.837C38.913 242.599 38.5036 242.414 38.3847 242.652Z" fill="#263238"/>
<path d="M19.0633 260.399C17.5974 260.161 16.1447 259.897 14.6919 259.606C13.2392 259.315 12.0506 259.143 10.6111 258.998C8.99991 258.813 7.9698 258.76 6.35859 258.443C5.89636 258.337 5.80391 258.443 6.23973 258.641C8.91308 259.464 11.6344 260.121 14.3882 260.61C15.8145 260.795 17.2276 260.954 18.6539 261.086C20.179 261.273 21.7134 261.374 23.2498 261.39C23.4347 261.39 23.5007 261.086 23.2498 261.046C21.9688 260.756 20.4632 260.637 19.0633 260.399Z" fill="#263238"/>
<path d="M222.59 306.452C221.137 305.513 229.616 276.838 230.303 247.211C231.135 211.267 223.898 189.436 225.165 187.454C227.807 183.41 233.367 187.11 234.265 187.044C235.163 186.978 269.923 176.036 293.14 186.132C316.357 196.228 331.439 228.644 326.737 254.994C322.036 281.344 301.209 326.353 228.348 305.936C227.912 305.817 225.813 308.592 222.59 306.452Z" fill="#0095D9"/>
<g opacity="0.6">
<path d="M222.59 306.452C221.137 305.513 229.616 276.838 230.303 247.211C231.135 211.267 223.898 189.436 225.165 187.454C227.807 183.41 233.367 187.11 234.265 187.044C235.163 186.978 269.923 176.036 293.14 186.132C316.357 196.228 331.439 228.644 326.737 254.994C322.036 281.344 301.209 326.353 228.348 305.936C227.912 305.817 225.813 308.592 222.59 306.452Z" fill="white"/>
</g>
<path d="M234.436 192.304C236.22 196.661 237.694 201.138 238.847 205.703C239.965 210.285 240.846 214.92 241.489 219.592C242.84 228.949 243.282 238.415 242.809 247.858C242.383 257.306 241.057 266.691 238.847 275.886C237.794 280.482 236.507 285.02 234.991 289.484C234.331 291.744 233.34 293.898 232.495 296.091C231.65 298.285 230.739 300.452 229.854 302.606C230.501 300.347 231.174 298.087 231.861 295.854C232.548 293.62 233.314 291.413 233.776 289.101C234.859 284.555 236.114 280.062 236.866 275.45L237.5 272.014C237.712 270.865 237.989 269.741 238.108 268.579L239.032 261.654C239.402 259.355 239.495 257.016 239.719 254.703C239.944 252.391 240.155 250.065 240.168 247.739L240.406 240.762L240.3 233.784C240.155 229.133 239.864 224.534 239.389 219.843C238.555 210.535 236.898 201.319 234.436 192.304Z" fill="#0095D9"/>
<path d="M351.671 296.29C365.631 299.263 389.706 357.698 374.624 363.816C362.488 368.745 325.324 336.964 327.609 317.327C329.141 304.284 341.885 294.202 351.671 296.29Z" fill="#AD6359"/>
<path d="M241.991 284.145C242.453 261.866 256.518 219.566 280.395 213.54C304.273 207.514 329.458 222.222 332.02 252.932C334.001 276.877 323.673 300.915 323.673 300.915C323.673 300.915 343.893 294.308 349.822 295.893C361.563 299.144 372.551 322.759 359.899 335.841C350.866 345.184 289.759 386.559 258.882 352.478C241.278 333.053 241.436 311.817 241.991 284.145Z" fill="#AD6359"/>
<path d="M324.637 297.254C322.47 303.43 319.288 309.201 315.221 314.328C313.267 316.799 311.259 319.138 309.04 321.411C306.765 323.951 304.253 326.27 301.539 328.335C301.483 328.382 301.447 328.447 301.437 328.519C301.428 328.591 301.445 328.665 301.487 328.724C301.528 328.784 301.59 328.826 301.661 328.842C301.732 328.858 301.806 328.847 301.869 328.811C303.322 327.859 304.88 327.106 306.294 326.075C307.67 325.043 308.992 323.94 310.256 322.772C312.699 320.547 314.871 318.04 316.727 315.305C320.445 309.82 323.204 303.743 324.888 297.334C324.941 297.188 324.69 297.096 324.637 297.254Z" fill="#263238"/>
<path d="M352.358 334.929C349.872 339.102 346.707 342.832 342.995 345.963C341.265 347.417 339.469 348.752 337.633 350.007C335.701 351.424 333.625 352.633 331.439 353.615C331.201 353.707 331.32 354.143 331.571 354.051C332.694 353.654 333.843 353.443 334.965 352.967C336.066 352.489 337.137 351.946 338.174 351.342C340.217 350.155 342.107 348.721 343.8 347.073C347.341 343.572 350.285 339.514 352.517 335.061C352.569 335.022 352.424 334.824 352.358 334.929Z" fill="#263238"/>
<path d="M227.556 189.502C243.655 230.957 227.028 301.245 222.551 303.994C222.551 303.994 147.365 308.447 113.358 232.384C111.536 228.3 165.802 195.925 179.233 189.066C191.806 182.657 213.451 186.833 224.267 188.128C226.103 188.339 227.279 188.762 227.556 189.502Z" fill="#AD6359"/>
<g opacity="0.1">
<path d="M179.484 243.563C179.159 243.378 178.801 243.259 178.43 243.214C178.059 243.168 177.683 243.196 177.323 243.297C176.963 243.398 176.627 243.569 176.334 243.801C176.04 244.032 175.796 244.32 175.614 244.647C175.159 245.363 174.996 246.227 175.158 247.061C175.32 247.894 175.795 248.633 176.486 249.127C176.993 249.435 177.601 249.53 178.177 249.391C178.754 249.253 179.252 248.891 179.563 248.387C179.843 248.229 180.097 248.028 180.316 247.792C180.556 247.466 180.726 247.093 180.815 246.697C180.904 246.302 180.909 245.892 180.831 245.494C180.753 245.096 180.592 244.719 180.36 244.387C180.129 244.054 179.83 243.774 179.484 243.563Z" fill="black"/>
<path d="M147.511 264.469C147.186 264.284 146.828 264.165 146.457 264.119C146.086 264.073 145.71 264.102 145.35 264.203C144.99 264.303 144.654 264.474 144.36 264.706C144.067 264.938 143.823 265.225 143.641 265.552C143.184 266.269 143.021 267.135 143.186 267.97C143.35 268.804 143.831 269.543 144.526 270.032C144.777 270.189 145.056 270.294 145.348 270.341C145.64 270.388 145.938 270.377 146.226 270.309C146.513 270.24 146.784 270.114 147.023 269.94C147.262 269.765 147.463 269.545 147.616 269.292C147.892 269.134 148.142 268.933 148.356 268.697C148.598 268.371 148.769 267.998 148.857 267.601C148.946 267.205 148.951 266.794 148.871 266.395C148.792 265.997 148.629 265.62 148.395 265.288C148.161 264.956 147.859 264.677 147.511 264.469Z" fill="black"/>
<path d="M191.277 290.29C191.093 290.29 190.868 290.475 190.987 290.687C191.234 291.046 191.507 291.386 191.806 291.704C191.964 291.902 192.387 292.497 192.175 292.788C191.964 293.078 191.304 292.788 191.066 292.656C189.976 291.783 189.232 290.551 188.966 289.18C188.948 289.128 188.913 289.083 188.865 289.055C188.818 289.026 188.763 289.014 188.708 289.022C188.653 289.03 188.603 289.057 188.566 289.097C188.528 289.138 188.507 289.191 188.504 289.246C188.663 291.043 189.745 295.127 192.334 294.532C192.793 294.396 193.184 294.092 193.428 293.681C193.673 293.269 193.754 292.78 193.655 292.312C193.524 291.766 193.224 291.276 192.796 290.912C192.369 290.549 191.837 290.331 191.277 290.29Z" fill="black"/>
</g>
<path d="M206.861 353.588C209.238 346.32 228.454 306.016 223.105 279.282C217.413 250.884 207.918 228.38 198.198 221.297C171.586 201.884 149.333 227.904 153.44 247.158C158.551 271.327 168.681 280.961 171.718 294.625C172.062 296.21 167.849 331.005 171.018 345.633C172.986 354.976 203.837 362.627 206.861 353.588Z" fill="#AD6359"/>
<path d="M170.767 339.924C167.162 340.995 161.919 346.109 158.882 346.664C155.844 347.219 147.114 349.941 149.241 352.795C151.367 355.65 163.385 354.328 166.119 354.011C168.852 353.694 159.066 369.168 165.63 371.283C172.194 373.397 176.988 362.244 178.322 362.667C179.655 363.09 176.829 375.221 182.68 376.687C188.53 378.154 189.455 364.794 189.917 364.794C190.379 364.794 184.291 373.78 189.151 375.63C194.011 377.48 198.739 364.411 199.716 364.57C200.694 364.728 202.358 372.882 207.64 372.895C212.923 372.908 207.852 360.341 207.64 359.218C207.429 358.094 208.67 349.716 206.452 348.144C204.233 346.571 173.343 339.158 170.767 339.924Z" fill="#AD6359"/>
<path d="M170.596 310.112C169.789 304.901 170.032 299.582 171.309 294.466C171.6 293.145 172.009 291.929 172.392 290.673C172.827 289.429 173.325 288.207 173.884 287.013C174.981 284.622 176.37 282.376 178.018 280.326C176.822 282.624 175.76 284.989 174.835 287.409C173.918 289.808 173.168 292.268 172.59 294.77C171.982 297.274 171.519 299.811 171.203 302.368C170.867 304.937 170.664 307.522 170.596 310.112Z" fill="#263238"/>
<path d="M171.652 294.625C169.843 291.493 168.258 288.268 166.766 285.018C165.274 281.767 163.86 278.41 162.5 275.16C161.14 271.909 159.859 268.552 158.67 265.13C157.482 261.707 156.32 258.377 155.303 254.901C157.28 257.92 159.046 261.073 160.585 264.337C162.17 267.561 163.596 270.852 164.957 274.168C166.317 277.485 167.598 280.842 168.681 284.251C169.851 287.655 170.843 291.117 171.652 294.625Z" fill="#263238"/>
<path d="M154.167 260.24C155.637 261.185 156.97 262.328 158.129 263.636C159.329 264.915 160.343 266.356 161.14 267.918C158.187 266.002 155.777 263.358 154.14 260.24H154.167Z" fill="#263238"/>
<path d="M210.612 238.978C214.103 247.304 217.141 255.813 219.711 264.469C221.023 268.814 222.108 273.225 222.96 277.683C223.158 278.82 223.303 279.956 223.475 281.093C223.647 282.229 223.7 283.432 223.7 284.581C223.7 285.731 223.7 286.894 223.7 288.03C223.7 289.167 223.62 290.303 223.541 291.44C222.872 300.479 221.547 309.458 219.579 318.305C218.575 322.719 217.413 327.093 216.027 331.414L214.917 334.612L213.676 337.784C213.227 338.828 212.751 339.845 212.289 340.876C211.827 341.907 211.193 342.858 210.665 343.849C212.415 339.716 213.794 335.435 214.785 331.057C215.868 326.696 216.74 322.309 217.558 317.843C219.136 309.031 220.255 300.143 220.913 291.215C221.005 290.105 221.071 288.995 221.098 287.885C221.124 286.775 221.164 285.678 221.098 284.581C221.032 283.485 220.979 282.414 220.926 281.331L220.477 278.053C219.804 273.666 218.76 269.305 217.704 264.945C215.525 256.302 213.108 247.633 210.612 238.978Z" fill="#263238"/>
<path d="M214.098 241.951C214.859 243.773 215.348 245.696 215.55 247.66C215.838 249.617 215.803 251.608 215.445 253.554C214.867 251.684 214.465 249.763 214.244 247.818C213.983 245.874 213.935 243.906 214.098 241.951Z" fill="#263238"/>
<path d="M201.103 344.536C197.755 342.558 194.157 341.038 190.406 340.017C186.533 339.127 182.554 338.785 178.586 338.999C178.282 338.999 178.216 339.502 178.52 339.488C182.421 339.51 186.305 340.003 190.089 340.955C193.859 341.788 197.501 343.121 200.918 344.92C201.103 344.972 201.288 344.642 201.103 344.536Z" fill="#263238"/>
<path d="M178.599 122.002C180.414 123.632 182.655 124.71 185.061 125.111C187.466 125.511 189.936 125.217 192.18 124.262C194.425 123.308 196.351 121.733 197.732 119.723C199.114 117.712 199.894 115.349 199.98 112.91C204.193 116.029 209.753 117.046 214.349 113.637C218.945 110.228 219.83 103.951 217.162 98.9159C217.162 98.9159 217.083 98.9159 217.096 98.9159C219.024 103.753 218.258 109.62 213.821 112.818C210.031 115.553 205.897 115.091 202.292 113.148C204.206 113.482 206.169 113.42 208.059 112.965C209.949 112.511 211.726 111.674 213.279 110.505C214.959 109.146 216.201 107.322 216.852 105.262C217.502 103.201 217.532 100.994 216.938 98.9159C221.692 97.5284 226.301 94.4098 228.044 89.5864C228.789 87.5849 228.936 85.4098 228.467 83.3262C227.998 81.2426 226.934 79.3405 225.403 77.8518C227.538 76.7881 229.317 75.1249 230.522 73.0655C231.727 71.0062 232.306 68.64 232.189 66.2565C232.071 63.873 231.261 61.5754 229.859 59.645C228.457 57.7145 226.523 56.2348 224.294 55.3869C225.757 54.4713 226.967 53.202 227.811 51.696C228.656 50.19 229.108 48.4956 229.126 46.7688C229.145 45.042 228.729 43.3383 227.916 41.8145C227.104 40.2908 225.922 38.996 224.479 38.0494C225.45 37.1421 226.142 35.9756 226.472 34.6877C226.802 33.3998 226.756 32.0443 226.341 30.7813C225.443 27.7948 222.894 25.7597 220.213 24.3326C220.584 22.9944 220.614 21.5846 220.3 20.2319C219.986 18.8792 219.339 17.6267 218.417 16.5888C217.186 15.2975 215.537 14.4862 213.764 14.2998C211.99 14.1134 210.208 14.564 208.736 15.5713C206.557 11.1311 203.559 6.59853 198.818 4.68241C194.922 3.10987 190.062 3.53272 187.091 6.65138C185.925 4.89613 184.401 3.40836 182.618 2.28637C180.835 1.16438 178.835 0.433727 176.749 0.142702C174.663 -0.148323 172.539 0.00690658 170.518 0.598125C168.497 1.18934 166.623 2.20308 165.023 3.57236C163.6 2.41471 161.899 1.65053 160.089 1.35605C158.279 1.06157 156.424 1.2471 154.708 1.89412C152.313 2.68282 150.147 4.04353 148.396 5.85851C147.044 4.93054 145.438 4.44492 143.798 4.46859C142.159 4.49226 140.568 5.02404 139.243 5.99064C138.039 6.9379 137.06 8.14007 136.375 9.51088C135.69 10.8817 135.316 12.3872 135.281 13.9194C134.744 14.6322 134.054 15.2149 133.261 15.6241C131.276 16.6549 129.576 18.1583 128.309 20.002C127.042 21.8456 126.248 23.9727 125.997 26.1958C124.701 26.4437 123.472 26.9665 122.395 27.7291C121.317 28.4917 120.415 29.4764 119.749 30.6169C119.084 31.7575 118.67 33.0274 118.536 34.3413C118.401 35.6553 118.55 36.9827 118.971 38.2344C116.562 39.5494 114.767 41.76 113.974 44.3885C113.181 47.017 113.453 49.8522 114.732 52.2815C112.898 53.4695 111.342 55.0397 110.171 56.8848C108.999 58.7298 108.239 60.8063 107.944 62.9721C107.508 66.3419 108.472 70.2798 111.536 71.9713C109.436 73.6364 109.713 76.9532 111.206 79.0676C111.794 79.8609 112.467 80.5876 113.213 81.2348C114.072 82.0144 115.392 82.7677 115.934 83.8777C116.475 84.9877 116.171 86.3488 116.224 87.5117C116.27 88.3556 116.403 89.1926 116.62 90.0093C117.488 93.0322 119.36 95.6689 121.926 97.485C124.493 99.301 127.601 100.188 130.738 99.9995C130.989 104.506 134.846 107.585 138.86 109.091C140.173 109.554 141.526 109.895 142.902 110.109C144.147 110.234 145.324 110.741 146.269 111.562C146.85 112.131 147.313 112.884 147.907 113.399C150.073 115.395 152.714 115.659 155.355 115.54C156.438 127.552 170.992 130.023 178.599 122.002ZM138.781 7.78784C139.988 6.57324 141.543 5.76433 143.23 5.47312C144.917 5.1819 146.653 5.42279 148.197 6.16244L147.933 6.49281C147.933 6.49281 146.811 6.32102 146.256 6.3078C145.236 6.27457 144.216 6.39485 143.232 6.6646C141.742 7.0459 140.356 7.7518 139.171 8.73183C137.986 9.71186 137.032 10.9418 136.378 12.3337L136.206 12.6376C136.592 10.811 137.484 9.13027 138.781 7.78784ZM217.73 19.2714C216.785 17.9356 215.45 16.9251 213.909 16.3785C212.367 15.832 210.694 15.7762 209.119 16.2188L209.001 15.9809C212.104 14.567 215.327 14.1309 217.981 17.0513C218.793 17.959 219.35 19.0656 219.596 20.2586C219.842 21.4517 219.768 22.6886 219.381 23.8436C219.27 22.1948 218.698 20.6105 217.73 19.2714ZM155.857 115.527H155.976C157.285 119.03 159.906 121.886 163.284 123.487C166.662 125.088 170.531 125.309 174.069 124.103C166.436 127.301 157.997 125.662 155.857 115.527Z" fill="#263238"/>
<path d="M194.209 179.406C184.225 208.346 158.895 221.693 144.09 226.318C121.164 233.52 56.9267 241.806 38.5431 201.369C34.2774 192 32.1115 178.005 31.6228 162.901C30.672 133.974 35.8754 100.964 44.2615 88.4367C62.064 61.8621 110.955 45.3042 153.414 62.5889C187.593 76.5171 204.22 150.44 194.209 179.406Z" fill="#AD6359"/>
<path d="M120.556 134.49C118.728 134.056 116.925 133.522 115.155 132.891C113.094 132.257 111.378 131.966 109.951 130.248C109.605 129.71 109.445 129.072 109.498 128.434C109.55 127.796 109.812 127.194 110.242 126.72C112.196 124.79 114.917 124.936 117.439 125.596C119.999 126.181 122.249 127.698 123.752 129.851C125.363 132.032 123.039 134.979 120.556 134.49Z" fill="#263238"/>
<path d="M61.4566 134.331C63.2861 133.928 65.0935 133.429 66.8713 132.838C68.9315 132.243 70.622 131.966 72.0615 130.195C72.4129 129.667 72.5802 129.037 72.5372 128.404C72.4942 127.77 72.2434 127.169 71.8238 126.693C69.9088 124.751 67.2015 124.869 64.6922 125.491C62.1509 126.045 59.9032 127.517 58.3795 129.627C56.7154 131.834 58.9473 134.794 61.4566 134.331Z" fill="#263238"/>
<path d="M101.525 179.591C101.809 180.358 102.038 181.144 102.212 181.944C102.952 185.115 103.427 190.692 98.6331 192.727C96.8025 193.454 94.7829 193.556 92.8883 193.017C87.6849 191.775 82.8116 186.318 82.8116 186.318C93.9712 188.141 101.525 179.591 101.525 179.591Z" fill="#263238"/>
<path d="M102.212 181.943C102.952 185.115 103.427 190.692 98.6331 192.727C96.8024 193.454 94.7829 193.556 92.8882 193.017C93.2853 190.22 94.5565 187.621 96.52 185.591C98.0887 183.925 100.044 182.672 102.212 181.943Z" fill="#FF99BA"/>
<path d="M75.5744 141.163C74.5442 153.056 75.3102 148.828 73.7651 160.694C71.1237 161.011 59.2378 161.672 60.1491 162.69C63.4375 166.35 73.1444 172.535 73.1047 172.627C71.8633 175.891 66.5939 179.538 66.8712 179.789C82.1909 194.114 96.5596 185.234 101.354 180.186C102.318 179.168 101.908 179.208 101.354 179.657C96.4672 183.331 81.8871 189.211 71.0709 179.406C73.0945 177.47 74.6096 175.064 75.4819 172.402C75.5876 172.072 67.9542 166.813 64.9167 163.905C68.5221 163.562 72.9595 163.456 75.6404 163.232C76.2611 163.232 77.7535 153.809 76.6705 141.123C76.6653 140.978 76.6025 140.841 76.496 140.741C76.3895 140.642 76.248 140.59 76.1026 140.595C75.9573 140.6 75.82 140.663 75.7209 140.77C75.6218 140.876 75.5691 141.018 75.5744 141.163Z" fill="#263238"/>
<path d="M113.609 143.846C123.316 143.568 123.145 163.033 114.151 163.284C105.157 163.536 105.461 144.07 113.609 143.846Z" fill="#263238"/>
<path d="M116.7 144.586C118.258 145.365 119.869 146.885 121.639 146.872C123.686 146.872 125.046 144.956 126.195 143.132C126.314 142.947 126.473 143.132 126.499 143.291C126.882 146.489 125.997 149.898 122.616 150.731C119.539 151.497 117.004 148.907 115.868 145.775C115.656 145.194 116.079 144.255 116.7 144.586Z" fill="#263238"/>
<path d="M68.0334 144.189C59.568 143.542 58.7888 162.28 66.5938 162.888C74.3989 163.496 75.1121 144.731 68.0334 144.189Z" fill="#263238"/>
<path d="M65.6695 144.586C64.1111 145.365 62.5131 146.885 60.7302 146.872C58.6832 146.872 57.3229 144.956 56.1739 143.132C56.0551 142.947 55.8966 143.132 55.8702 143.291C55.4872 146.489 56.372 149.898 59.7529 150.731C62.8301 151.497 65.3657 148.907 66.5015 145.775C66.7128 145.194 66.2902 144.255 65.6695 144.586Z" fill="#263238"/>
<path d="M110.044 230.626C102.767 230.032 95.5163 230.97 88.2527 230.111C81.2192 229.254 74.3041 227.609 67.6372 225.208C60.4752 222.851 53.7736 219.275 47.8273 214.636C47.4444 214.319 47.5236 214.557 47.8273 214.914C52.5973 219.671 58.2142 223.494 64.3884 226.186C70.3625 228.988 76.6622 231.034 83.1418 232.278C89.7887 233.51 96.5575 233.953 103.308 233.599C110.994 233.256 120.147 232.463 125.152 239.665C125.284 239.85 125.588 239.665 125.469 239.48C122.537 233.811 116.185 231.142 110.044 230.626Z" fill="#263238"/>
<path d="M148.462 232.291C149.27 229.628 150.659 227.177 152.529 225.116C154.429 223.089 156.541 221.273 158.829 219.698C163.306 216.5 167.862 213.645 172.141 210.355C176.557 207.398 180.431 203.701 183.591 199.426C186.58 194.913 189.322 190.242 191.806 185.432C190.266 190.722 188.093 195.807 185.334 200.576C183.873 202.984 182.121 205.203 180.118 207.183C178.097 209.08 175.958 210.846 173.713 212.469C169.281 215.666 164.693 218.638 159.964 221.376C157.635 222.725 155.426 224.273 153.361 226.001C151.359 227.782 149.699 229.914 148.462 232.291Z" fill="#263238"/>
<path d="M34.6208 124.182C38.2299 124.091 41.6721 122.643 44.2616 120.125C49.6367 114.958 50.0725 110.082 50.0725 110.082C55.9494 105.999 60.4133 98.4534 59.119 91.4628C62.5277 92.1464 66.0553 91.9348 69.358 90.8486C72.6607 89.7625 75.6259 87.8389 77.9648 85.2652C82.772 105.087 108.617 113.28 125.905 102.444C126.631 110.518 129.074 118.711 135.017 124.433C140.729 129.984 147.919 133.769 155.725 135.335C155.719 135.375 155.719 135.415 155.725 135.454C151.671 150.519 166.977 163.324 181.214 160.417C182.555 160.276 183.881 160.015 185.176 159.637C192.07 157.549 198.805 154.14 201.592 147.176C203.303 142.743 203.365 137.842 201.768 133.367C200.17 128.892 197.019 125.14 192.889 122.795C195.747 119.973 197.564 116.264 198.044 112.275C198.523 108.286 197.637 104.252 195.53 100.832C192.757 96.4051 186.1 94.304 185.44 89.0314C184.84 83.1379 182.336 77.6007 178.309 73.2585C174.282 68.9163 168.95 66.0057 163.121 64.9675C159.934 64.6052 156.923 63.3191 154.457 61.2674C152.866 59.8401 151.186 58.5159 149.426 57.303C142.493 52.789 134.272 50.6767 126.024 51.2904C121.19 51.6604 116.383 54.0787 111.589 52.7308C107.429 51.5679 94.3278 52.5193 90.062 53.4708C71.4672 57.607 63.8206 66.1304 63.8206 66.1304C63.8206 66.1304 54.0741 68.1787 45.886 79.834C38.0545 90.9607 37.962 97.013 37.962 97.013C36.9053 100.041 35.6569 102.998 34.2246 105.867C29.4042 113.307 34.1057 124.195 34.6208 124.182ZM155.937 136.208C158.314 147.374 161.906 152.501 166.37 156.03C159.41 152.025 154.603 144.89 155.937 136.208ZM79.6817 85.6881C82.1333 90.5733 85.6898 94.8191 90.0686 98.088C94.4475 101.357 99.5279 103.559 104.906 104.519C93.6939 103.488 83.9474 97.7398 79.6817 85.6881Z" fill="#263238"/>
<path d="M157.667 159.888C157.667 159.888 168.76 135.203 182.627 133.538C197.286 131.767 202.437 158.25 193.192 170.143C182.416 184.084 163.9 180.714 163.9 180.714L157.667 159.888Z" fill="#AD6359"/>
<path d="M179.418 149.554C181.369 147.47 183.563 145.629 185.955 144.07C186.232 143.899 185.955 143.423 185.665 143.568C175.496 148.696 166.726 160.589 169.222 172.482C169.239 172.57 169.286 172.649 169.354 172.706C169.423 172.763 169.509 172.794 169.599 172.794C169.688 172.794 169.775 172.763 169.843 172.706C169.912 172.649 169.959 172.57 169.975 172.482C170.16 171.385 170.332 170.315 170.517 169.244C172.128 166.178 173.581 163.403 176.446 161.157C179.19 158.992 182.474 157.621 185.942 157.193C186.351 157.193 186.246 156.571 185.849 156.571C183.147 156.634 180.489 157.272 178.052 158.443C175.615 159.614 173.456 161.292 171.718 163.364C172.406 160.586 173.477 157.917 174.901 155.435C176.19 153.273 177.704 151.253 179.418 149.409" fill="#263238"/>
<path d="M166.898 180.014C166.884 180.02 166.872 180.03 166.863 180.043C166.855 180.056 166.85 180.071 166.85 180.087C166.85 180.102 166.855 180.117 166.863 180.13C166.872 180.143 166.884 180.153 166.898 180.159C166.912 180.153 166.924 180.143 166.932 180.13C166.941 180.117 166.945 180.102 166.945 180.087C166.945 180.071 166.941 180.056 166.932 180.043C166.924 180.03 166.912 180.02 166.898 180.014Z" fill="#263238"/>
<path d="M188.227 193.348C189.125 197.061 196.335 181.6 196.335 179.591C196.335 177.583 202.08 170.09 202.939 165.927C203.797 161.765 204.458 150.07 204.022 147.427C203.586 144.784 206.439 137.067 205.118 132.587C203.797 128.107 190.472 88.5425 155.857 69.4209C121.243 50.2994 96.8634 55.4663 96.8634 55.4663C84.3206 57.089 71.992 60.0755 60.0963 64.3729C40.8675 71.4031 25.9308 125.583 26.1553 126.614C26.3798 127.645 28.5986 130.38 28.4797 133.406C28.3608 136.432 26.1817 140.172 28.4797 142.379C30.7776 144.586 28.7967 152.541 29.6683 155.369C30.5399 158.197 31.504 158.699 31.5568 160.774C31.6096 162.848 26.393 110.373 81.3985 75.645C81.3985 75.645 168.787 113.624 188.227 193.348Z" fill="#0095D9"/>
<path d="M31.504 160.245C31.5254 160.434 31.5254 160.624 31.504 160.813C31.5568 160.984 31.5304 160.786 31.504 160.245Z" fill="#0095D9"/>
<path d="M31.504 160.245C31.5244 160.434 31.5244 160.624 31.504 160.813C31.5568 160.984 31.5304 160.786 31.504 160.245Z" fill="#0095D9"/>
<path opacity="0.3" d="M44.1427 100.66C44.1805 101.917 43.7693 103.146 42.983 104.127C42.1966 105.108 41.0865 105.776 39.8522 106.012C38.6178 106.247 37.3399 106.035 36.248 105.412C35.156 104.79 34.3216 103.799 33.8944 102.616C34.7528 100.383 35.6905 98.1098 36.681 95.8105C37.4903 95.4437 38.3791 95.2871 39.2649 95.3552C40.1508 95.4233 41.0052 95.7138 41.749 96.1999C42.4929 96.686 43.1023 97.352 43.5207 98.1363C43.9391 98.9206 44.153 99.7978 44.1427 100.687V100.66ZM63.1074 84.0098C61.7063 84.0098 60.3627 84.5667 59.372 85.558C58.3813 86.5493 57.8248 87.8938 57.8248 89.2957C57.8174 90.0412 57.9678 90.7798 58.2659 91.4631C58.5641 92.1463 59.0034 92.7587 59.5548 93.2601C61.932 90.8154 64.5073 88.3971 67.2939 86.0317C66.7964 85.3975 66.1605 84.8857 65.4348 84.5352C64.7092 84.1848 63.9131 84.0051 63.1074 84.0098ZM36.8791 120.416C35.4781 120.329 34.0996 120.801 33.047 121.731C31.9944 122.66 31.3539 123.97 31.2663 125.372C31.1787 126.774 31.6513 128.153 32.5801 129.206C33.5089 130.259 34.8177 130.9 36.2188 130.988C37.3143 127.739 38.5795 124.55 40.0091 121.434C39.1037 120.764 38.0051 120.407 36.8791 120.416ZM131.425 59.0342C130.973 59.841 130.741 60.7523 130.752 61.6771C130.632 63.079 131.075 64.4708 131.981 65.5464C132.888 66.6219 134.184 67.2931 135.585 67.4123C136.986 67.5314 138.377 67.0888 139.452 66.1818C140.527 65.2747 141.198 63.9776 141.317 62.5757C137.857 61.1221 134.555 59.9856 131.425 59.0342ZM147.431 100.66C146.387 100.66 145.365 100.97 144.497 101.551C143.628 102.132 142.951 102.957 142.551 103.923C142.151 104.889 142.047 105.952 142.25 106.977C142.454 108.003 142.957 108.945 143.696 109.684C144.435 110.423 145.376 110.926 146.401 111.13C147.426 111.334 148.488 111.23 149.453 110.83C150.418 110.43 151.243 109.752 151.824 108.883C152.404 108.014 152.714 106.992 152.714 105.946C152.714 104.544 152.158 103.2 151.167 102.208C150.176 101.217 148.833 100.66 147.431 100.66ZM73.0256 60.316C69.9484 61.1617 66.6864 62.1396 63.3583 63.2761C63.3583 64.678 63.9149 66.0225 64.9056 67.0138C65.8962 68.005 67.2399 68.5619 68.641 68.5619C70.042 68.5619 71.3857 68.005 72.3763 67.0138C73.367 66.0225 73.9236 64.678 73.9236 63.2761C73.922 62.2205 73.6047 61.1895 73.0123 60.316H73.0256ZM99.6104 61.6375C98.5656 61.6375 97.5443 61.9475 96.6755 62.5283C95.8068 63.1091 95.1297 63.9346 94.7299 64.9005C94.3301 65.8664 94.2254 66.9292 94.4293 67.9545C94.6331 68.9799 95.1362 69.9217 95.875 70.661C96.6138 71.4002 97.5551 71.9036 98.5798 72.1076C99.6046 72.3116 100.667 72.2069 101.632 71.8068C102.597 71.4067 103.422 70.7292 104.003 69.86C104.583 68.9907 104.893 67.9688 104.893 66.9233C104.895 66.2269 104.759 65.5371 104.493 64.8934C104.228 64.2497 103.838 63.6648 103.346 63.1724C102.854 62.68 102.269 62.2898 101.626 62.0241C100.983 61.7584 100.293 61.6225 99.5972 61.6243L99.6104 61.6375ZM121.282 82.0673C120.238 82.0673 119.216 82.3773 118.348 82.9581C117.479 83.5389 116.802 84.3645 116.402 85.3303C116.002 86.2962 115.897 87.359 116.101 88.3844C116.305 89.4097 116.808 90.3516 117.547 91.0908C118.286 91.8301 119.227 92.3335 120.252 92.5374C121.277 92.7414 122.339 92.6367 123.304 92.2366C124.269 91.8366 125.094 91.1591 125.675 90.2898C126.255 89.4205 126.565 88.3986 126.565 87.3531C126.567 86.6568 126.431 85.9669 126.165 85.3232C125.9 84.6795 125.51 84.0947 125.018 83.6023C124.526 83.1098 123.941 82.7196 123.298 82.4539C122.655 82.1882 121.965 82.0523 121.269 82.0541L121.282 82.0673ZM161.18 76.7814C160.135 76.7814 159.113 77.0914 158.245 77.6723C157.376 78.2531 156.699 79.0786 156.299 80.0445C155.899 81.0104 155.795 82.0732 155.998 83.0985C156.202 84.1239 156.705 85.0657 157.444 85.805C158.183 86.5442 159.124 87.0476 160.149 87.2516C161.174 87.4555 162.236 87.3508 163.201 86.9508C164.166 86.5507 164.991 85.8732 165.572 85.0039C166.152 84.1347 166.462 83.1127 166.462 82.0673C166.467 81.3687 166.334 80.676 166.07 80.0292C165.806 79.3825 165.417 78.7945 164.924 78.2993C164.432 77.8041 163.846 77.4114 163.201 77.1441C162.556 76.8768 161.865 76.74 161.166 76.7418L161.18 76.7814ZM172.709 115.553C171.664 115.553 170.643 115.863 169.774 116.444C168.905 117.025 168.228 117.85 167.828 118.816C167.429 119.782 167.324 120.845 167.528 121.87C167.732 122.896 168.235 123.837 168.973 124.577C169.712 125.316 170.654 125.819 171.678 126.023C172.703 126.227 173.765 126.123 174.73 125.723C175.696 125.322 176.521 124.645 177.101 123.776C177.682 122.906 177.992 121.884 177.992 120.839C177.997 120.14 177.864 119.448 177.6 118.801C177.336 118.154 176.946 117.566 176.454 117.071C175.961 116.576 175.376 116.183 174.731 115.916C174.085 115.648 173.394 115.512 172.696 115.514L172.709 115.553ZM185.216 174.305C184.208 174.301 183.222 174.591 182.376 175.138C183.697 178.309 184.819 181.573 185.849 184.904C187.25 184.819 188.561 184.182 189.492 183.131C190.423 182.08 190.899 180.702 190.815 179.301C190.731 177.899 190.094 176.588 189.044 175.656C187.994 174.724 186.617 174.248 185.216 174.332V174.305ZM161.166 136.802C160.753 136.803 160.341 136.852 159.938 136.948C161.946 139.476 163.887 142.079 165.762 144.757C166.234 143.957 166.481 143.044 166.475 142.115C166.479 141.416 166.344 140.724 166.078 140.078C165.813 139.431 165.422 138.844 164.928 138.35C164.435 137.856 163.848 137.465 163.202 137.2C162.556 136.934 161.865 136.799 161.166 136.802ZM185.612 95.8369C184.905 96.1569 184.277 96.6287 183.773 97.2188C183.27 97.8089 182.902 98.5028 182.696 99.2512C182.49 99.9996 182.452 100.784 182.583 101.549C182.715 102.314 183.013 103.041 183.457 103.677C183.901 104.314 184.48 104.845 185.152 105.232C185.824 105.62 186.573 105.855 187.346 105.92C188.119 105.985 188.897 105.879 189.624 105.61C190.351 105.34 191.011 104.914 191.555 104.36C189.772 101.48 187.791 98.612 185.612 95.7444V95.8369ZM187.659 143.132C186.614 143.132 185.593 143.442 184.724 144.023C183.855 144.604 183.178 145.429 182.778 146.395C182.378 147.361 182.274 148.424 182.478 149.449C182.681 150.475 183.185 151.416 183.923 152.156C184.662 152.895 185.603 153.398 186.628 153.602C187.653 153.806 188.715 153.701 189.68 153.301C190.646 152.901 191.471 152.224 192.051 151.355C192.632 150.485 192.941 149.463 192.941 148.418C192.954 147.716 192.826 147.019 192.566 146.367C192.306 145.715 191.919 145.121 191.427 144.62C190.935 144.12 190.349 143.722 189.702 143.451C189.055 143.179 188.36 143.039 187.659 143.04V143.132ZM201.79 157.377C201.789 158.127 201.948 158.868 202.255 159.552C202.562 160.235 203.012 160.845 203.573 161.342C203.824 158.699 204.022 155.62 204.114 153.003C203.412 153.478 202.834 154.115 202.43 154.86C202.025 155.605 201.806 156.437 201.79 157.285V157.377ZM200.601 121.064C199.912 121.142 199.245 121.355 198.638 121.691C198.03 122.027 197.496 122.48 197.063 123.023C196.631 123.566 196.31 124.189 196.118 124.856C195.926 125.523 195.868 126.221 195.946 126.911C196.024 127.601 196.237 128.269 196.573 128.876C196.909 129.483 197.361 130.019 197.904 130.451C198.446 130.884 199.069 131.205 199.736 131.397C200.402 131.589 201.1 131.647 201.79 131.569C202.722 131.563 203.636 131.303 204.431 130.816C203.784 128.622 202.516 125.2 200.601 120.945V121.064Z" fill="white"/>
<path opacity="0.1" d="M196.296 179.591C195.686 175.871 194.712 172.22 193.39 168.689C192.202 165.108 190.894 161.58 189.56 158.051C186.919 151.008 184.146 143.978 181.108 137.093C180.355 135.375 179.616 133.618 178.757 131.992C177.79 130.434 176.652 128.989 175.363 127.684C172.828 124.936 170.081 122.398 167.347 119.755C164.613 117.113 161.827 114.615 159.027 112.091L150.627 104.506C156.588 109.148 162.39 113.994 168.034 119.042C170.873 121.539 173.62 124.143 176.248 126.891C177.626 128.257 178.84 129.778 179.867 131.424C180.791 133.129 181.544 134.86 182.31 136.591C185.268 143.551 188.002 150.598 190.511 157.734C191.74 161.315 192.941 164.897 193.998 168.517C194.526 170.341 195.028 172.165 195.451 174.015C195.922 175.84 196.205 177.708 196.296 179.591Z" fill="#050400"/>
<path opacity="0.1" d="M171.296 105.973C178.864 110.922 185.732 116.869 191.713 123.654C194.741 127.047 197.397 130.755 199.637 134.714C201.887 138.657 203.395 142.979 204.088 147.466C203.744 146.383 203.414 145.312 203.11 144.242C202.963 143.7 202.764 143.173 202.516 142.67L201.856 141.137C201.631 140.621 201.446 140.106 201.209 139.604L200.416 138.124C199.862 137.159 199.413 136.142 198.765 135.216L196.956 132.415L194.975 129.706C194.341 128.794 193.655 127.948 192.915 127.063C192.175 126.178 191.528 125.319 190.762 124.499C187.851 121.125 184.765 117.905 181.518 114.853C179.906 113.293 178.242 111.8 176.539 110.32C174.835 108.84 173.039 107.4 171.296 105.973Z" fill="#050400"/>
<path opacity="0.1" d="M28.4797 130.988C29.4214 126.796 30.7477 122.699 32.4417 118.751C34.0001 114.787 35.7169 110.822 37.4866 106.95C39.2229 103.018 41.1579 99.1763 43.2843 95.4405C45.5793 91.7904 48.4058 88.5034 51.6705 85.6881C50.2295 87.261 48.8802 88.9155 47.6293 90.6436C46.3527 92.3245 45.1923 94.0905 44.156 95.9294C43.1523 97.7795 42.2674 99.7088 41.3694 101.651L38.7281 107.466L33.4454 119.121C32.5474 121.064 31.7021 123.086 30.8041 124.988C29.9039 126.937 29.1276 128.941 28.4797 130.988Z" fill="#050400"/>
<path opacity="0.1" d="M29.3513 144.163C29.7334 141.097 30.3157 138.06 31.0946 135.071C31.8186 132.067 32.7002 129.103 33.7359 126.191C34.2697 124.721 34.887 123.283 35.5848 121.883C36.3376 120.562 37.0508 119.174 37.8432 117.839L40.1411 113.875C40.9599 112.553 41.7259 111.232 42.5711 109.911C41.99 111.338 41.3297 112.738 40.7222 114.152L38.7412 118.315C38.0941 119.716 37.4206 121.077 36.7074 122.451C36.0574 123.821 35.4799 125.223 34.9773 126.653C33.9076 129.521 32.9831 132.441 32.0191 135.362C31.5436 136.816 31.0814 138.282 30.6324 139.762C30.2097 141.203 29.7871 142.683 29.3513 144.163Z" fill="#050400"/>
<path opacity="0.1" d="M148.752 65.8133C139.943 73.055 119.698 89.3354 114.296 90.4586C112.449 90.7647 110.582 90.9326 108.71 90.9608C100.01 85.1648 90.8799 80.0446 81.3985 75.645C74.988 79.6546 68.97 84.2605 63.4243 89.4015C56.6658 87.3353 50.1136 84.6455 43.8522 81.367C48.633 73.2003 54.1401 66.5798 60.0566 64.4126C71.9524 60.1152 84.2809 57.1286 96.8238 55.5059C96.8238 55.5059 117.941 51.0526 148.752 65.8133Z" fill="#050400"/>
<path d="M81.7551 63.5801C81.7551 63.5801 53.8891 43.56 25.2308 51.8984C25.2308 51.8984 37.6582 78.5919 51.0101 83.5078C57.6134 85.9525 79.8533 78.8562 80.8702 74.2575C81.5258 70.7376 81.8223 67.1601 81.7551 63.5801Z" fill="#0095D9"/>
<path opacity="0.3" d="M52.1591 51.1317C51.659 52.0789 50.883 52.8516 49.9341 53.3475C48.9852 53.8434 47.908 54.0391 46.8454 53.9087C45.7828 53.7783 44.7849 53.328 43.9838 52.6173C43.1828 51.9066 42.6165 50.9692 42.3598 49.9292C45.6532 50.0668 48.9302 50.469 52.1591 51.1317ZM38.9525 68.3108C37.7182 68.3083 36.5221 68.7385 35.5717 69.5265C37.6194 72.4233 39.9078 75.142 42.4127 77.6535C42.9858 77.1631 43.4473 76.5555 43.7662 75.8717C44.0852 75.1879 44.2541 74.4437 44.2616 73.6891C44.2756 72.9895 44.1506 72.294 43.8939 71.643C43.6372 70.992 43.2538 70.3986 42.7661 69.897C42.2783 69.3955 41.6959 68.9958 41.0526 68.7212C40.4093 68.4467 39.7179 68.3027 39.0186 68.2975L38.9525 68.3108ZM68.5749 58.0166C67.5301 58.0166 66.5088 58.3266 65.64 58.9074C64.7713 59.4882 64.0942 60.3138 63.6944 61.2796C63.2946 62.2455 63.1899 63.3083 63.3938 64.3336C63.5976 65.359 64.1007 66.3008 64.8395 67.0401C65.5783 67.7793 66.5196 68.2828 67.5443 68.4867C68.5691 68.6907 69.6312 68.586 70.5965 68.1859C71.5618 67.7858 72.3868 67.1083 72.9673 66.2391C73.5477 65.3698 73.8575 64.3479 73.8575 63.3024C73.8611 61.9096 73.3152 60.5717 72.3384 59.5794C71.3616 58.5871 70.0328 58.0207 68.6409 58.0033L68.5749 58.0166Z" fill="white"/>
<path opacity="0.1" d="M81.7683 63.5933C81.8094 67.1379 81.5086 70.6782 80.8702 74.165C80.8423 74.3824 80.7555 74.588 80.6193 74.7597C80.51 75.0048 80.358 75.2286 80.1703 75.4204C80.025 75.5393 79.9061 75.6979 79.708 75.8565C77.661 77.8255 73.1047 79.8869 68.1259 81.433C67.0619 77.1699 66.3987 72.8165 66.1449 68.4298C66.0524 65.0072 68.5088 60.9768 71.203 57.5542C74.8906 59.2618 78.4253 61.2822 81.7683 63.5933Z" fill="#050400"/>
<path d="M89.996 64.5051C89.996 64.5051 125.654 42.6878 147.418 43.2824C147.418 43.2824 145.728 67.3331 128.704 80.2834C121.084 86.0582 89.5734 80.997 89.0847 75.949C88.855 72.1105 89.1617 68.2588 89.996 64.5051Z" fill="#0095D9"/>
<path opacity="0.3" d="M141.383 61.6242C141.383 62.6697 141.073 63.6916 140.493 64.5609C139.912 65.4301 139.087 66.1076 138.122 66.5077C137.157 66.9078 136.094 67.0125 135.07 66.8085C134.045 66.6046 133.104 66.1011 132.365 65.3619C131.626 64.6227 131.123 63.6808 130.919 62.6555C130.715 61.6301 130.82 60.5673 131.22 59.6014C131.62 58.6356 132.297 57.81 133.165 57.2292C134.034 56.6484 135.055 56.3384 136.1 56.3384C137.501 56.3384 138.845 56.8953 139.836 57.8866C140.826 58.8779 141.383 60.2223 141.383 61.6242ZM99.5972 61.6242C98.5524 61.6242 97.5311 61.9342 96.6623 62.5151C95.7936 63.0959 95.1165 63.9214 94.7167 64.8873C94.3169 65.8531 94.2122 66.916 94.4161 67.9413C94.6199 68.9667 95.123 69.9085 95.8618 70.6477C96.6006 71.387 97.5419 71.8904 98.5666 72.0944C99.5913 72.2983 100.654 72.1936 101.619 71.7936C102.584 71.3935 103.409 70.716 103.99 69.8467C104.57 68.9775 104.88 67.9555 104.88 66.9101C104.88 65.5082 104.323 64.1637 103.333 63.1724C102.342 62.1811 100.998 61.6242 99.5972 61.6242ZM121.269 82.0541C120.367 82.0497 119.479 82.282 118.694 82.728C120.088 82.665 121.477 82.5194 122.854 82.2919C122.341 82.1324 121.807 82.0522 121.269 82.0541Z" fill="white"/>
<path opacity="0.1" d="M98.2237 59.8271C100.403 63.0779 102.899 67.9806 102.82 72.7246C102.624 75.6467 101.809 78.4936 100.429 81.0763C94.1032 79.7548 89.2828 77.8255 89.0451 75.7904C88.843 71.9766 89.1629 68.153 89.996 64.4258C89.996 64.4258 93.1656 62.5361 98.2237 59.8271Z" fill="#050400"/>
<path d="M97.5898 71.469C97.3666 74.1433 96.356 76.6913 94.6858 78.791C93.0156 80.8908 90.7608 82.4479 88.2064 83.2656C85.652 84.0833 82.9126 84.1248 80.3346 83.385C77.7566 82.6452 75.4556 81.1573 73.7226 79.1092C71.9895 77.0612 70.9022 74.545 70.598 71.8787C70.2938 69.2124 70.7865 66.5158 72.0137 64.1296C73.2409 61.7434 75.1475 59.7748 77.4926 58.4727C79.8377 57.1706 82.5159 56.5934 85.1888 56.814C88.7748 57.1136 92.0953 58.8254 94.4206 61.5733C96.7459 64.3213 97.8858 67.8806 97.5898 71.469Z" fill="#0095D9"/>
</svg>
