<svg width="412" height="371" viewBox="0 0 412 371" fill="none" xmlns="http://www.w3.org/2000/svg">
<path opacity="0.15" d="M9.96047 224.295L71.063 196.043L71.7557 196.325L346.887 323.637L347.507 323.959L286.405 352.211C280.584 354.9 271.165 354.9 265.344 352.211L9.96047 234.038C4.1516 231.339 4.1516 226.984 9.96047 224.295Z" fill="black"/>
<path d="M287.036 326.57H305.265L302.336 340.861C302.221 341.241 302.002 341.595 301.695 341.898C301.388 342.201 301.001 342.446 300.562 342.615C299.199 343.17 297.692 343.459 296.163 343.459C294.634 343.459 293.127 343.17 291.764 342.615C291.322 342.447 290.933 342.203 290.624 341.9C290.315 341.596 290.094 341.242 289.977 340.861L287.036 326.57Z" fill="#FAFAFA"/>
<path d="M296.138 330.418C291.091 330.418 287 328.525 287 326.19C287 323.854 291.091 321.961 296.138 321.961C301.186 321.961 305.277 323.854 305.277 326.19C305.277 328.525 301.186 330.418 296.138 330.418Z" fill="#FAFAFA"/>
<path d="M379.65 283.382H397.879L394.962 297.616C394.851 297.995 394.635 298.35 394.33 298.653C394.025 298.957 393.639 299.201 393.2 299.369C391.835 299.925 390.326 300.215 388.795 300.215C387.264 300.215 385.755 299.925 384.39 299.369C383.951 299.201 383.565 298.957 383.26 298.653C382.955 298.35 382.739 297.995 382.628 297.616L379.65 283.382Z" fill="#FAFAFA"/>
<path d="M395.218 280.002C398.79 281.658 398.79 284.337 395.218 285.983C393.217 286.799 391.004 287.225 388.759 287.225C386.514 287.225 384.3 286.799 382.3 285.983C378.69 284.356 378.69 281.658 382.336 280.002C384.334 279.195 386.54 278.774 388.777 278.774C391.014 278.774 393.22 279.195 395.218 280.002Z" fill="#FAFAFA"/>
<path d="M8.46596 144.642V212.634C8.63262 215.095 9.51913 217.49 11.0539 219.626C12.5886 221.762 14.7286 223.578 17.3008 224.928L19.8528 226.117L19.9743 226.166C23.3939 227.512 27.2249 228.039 31.0088 227.685L259.293 329.229C259.552 331.59 260.47 333.874 261.981 335.911C263.491 337.949 265.555 339.687 268.018 340.998H268.103L270.643 342.186C270.853 342.296 271.077 342.388 271.312 342.459C271.428 342.515 271.55 342.564 271.676 342.605C271.676 342.605 271.761 342.605 271.785 342.605C276.136 344.054 280.983 344.233 285.481 343.112C286.002 342.983 286.513 342.83 287.012 342.654C287.098 342.654 287.183 342.605 287.256 342.566C287.62 342.44 287.973 342.293 288.301 342.147L403.166 289.052C405.733 287.707 407.869 285.897 409.402 283.768C410.934 281.639 411.82 279.251 411.988 276.796V171.58C411.816 169.124 410.927 166.734 409.392 164.604C407.858 162.473 405.721 160.662 403.154 159.314L149.836 41.9786C147.101 40.8614 144.076 40.2791 141.007 40.2791C137.938 40.2791 134.912 40.8614 132.178 41.9786L124.984 45.2909C122.356 46.6745 120.102 48.4671 118.354 50.5623C116.607 52.6576 115.403 55.0128 114.812 57.4882L107.873 90.4853L17.3008 132.377C14.7333 133.724 12.5964 135.536 11.0619 137.667C9.52739 139.797 8.63821 142.186 8.46596 144.642Z" fill="#37474F"/>
<path d="M124.984 45.3004L132.178 41.9686C134.915 40.859 137.94 40.2809 141.007 40.2809C144.074 40.2809 147.098 40.859 149.836 41.9686L403.166 159.304C403.688 159.538 404.247 159.86 404.077 159.752C408.332 162.325 411.146 166.142 411.903 170.372C411.259 166.757 407.589 165.452 403.178 167.449L395.984 170.781C393.249 171.898 390.224 172.48 387.155 172.48C384.086 172.48 381.061 171.898 378.326 170.781L124.984 53.4644C120.111 51.214 120.111 47.5606 124.984 45.3004Z" fill="#455A64"/>
<path d="M8.46558 144.643V212.634C8.63224 215.095 9.51876 217.49 11.0535 219.626C12.5883 221.762 14.7282 223.578 17.3004 224.929L19.8524 226.117L19.974 226.166C23.1639 227.469 26.7524 228.013 30.3157 227.734C32.8322 227.622 35.2877 227.07 37.51 226.117L119.235 188.239C121.803 186.892 123.94 185.08 125.474 182.95C127.009 180.819 127.898 178.43 128.07 175.974V108.021C127.903 105.564 127.015 103.174 125.481 101.043C123.946 98.9116 121.806 97.1005 119.235 95.756L107.873 90.4854L17.3004 132.377C14.733 133.725 12.596 135.536 11.0615 137.667C9.52701 139.797 8.63784 142.186 8.46558 144.643Z" fill="#263238"/>
<path d="M107.873 90.4854L119.248 95.756C124.109 98.0064 124.109 101.679 119.248 103.93L37.5101 141.759C34.9513 143.105 32.8215 144.913 31.2915 147.038C29.7615 149.163 28.8738 151.546 28.6996 153.995V222.006C28.6996 226.497 24.7257 228.338 19.8769 226.088L17.3249 224.909C14.7613 223.562 12.6277 221.751 11.0954 219.622C9.56314 217.494 8.67498 215.107 8.50221 212.653V144.652C8.66853 142.197 9.55123 139.807 11.0793 137.675C12.6075 135.543 14.7383 133.729 17.3006 132.377L107.873 90.4854Z" fill="#455A64"/>
<path d="M28.6996 153.995V222.006C28.6996 226.497 24.7257 228.338 19.8769 226.088L17.3249 224.909C14.7613 223.562 12.6276 221.751 11.0954 219.622C9.56311 217.494 8.67494 215.107 8.50218 212.653V144.652C8.61579 142.192 9.50643 139.796 11.0907 137.687L31.2759 146.991C29.6835 149.11 28.7965 151.522 28.6996 153.995Z" fill="#37474F"/>
<path d="M32.3452 227.695C33.1944 229.107 34.2822 230.419 35.5778 231.592C37.4493 233.278 41.4474 235.119 43.8779 236.249C74.8788 250.629 217.549 316.691 248.659 331.061C250.025 331.619 251.537 331.909 253.07 331.909C254.604 331.909 256.115 331.619 257.482 331.061L286.149 317.772L343.582 291.176C348.443 288.926 352.417 283.665 352.417 279.427C352.417 275.189 348.467 269.928 343.582 267.678L311.001 252.597L286.149 241.101L138.934 172.905C136.197 171.797 133.173 171.22 130.106 171.22C127.039 171.22 124.015 171.797 121.277 172.905L39.5516 210.744C34.6906 213.004 30.7168 218.265 30.7168 222.503C30.7918 224.307 31.347 226.077 32.3452 227.695Z" fill="#263238"/>
<path d="M248.598 315.736L35.1403 216.862C32.7098 215.742 30.7168 216.648 30.7168 218.908V226.068C30.7983 227.297 31.2416 228.493 32.0105 229.558C32.7793 230.623 33.8518 231.527 35.1403 232.196L248.598 331.061C251.029 332.191 253.022 331.275 253.022 329.025V321.864C252.94 320.635 252.497 319.439 251.728 318.374C250.959 317.309 249.887 316.405 248.598 315.736Z" fill="#37474F"/>
<path d="M138.947 137.843L343.582 232.615C346.158 233.955 348.302 235.765 349.837 237.897C351.373 240.029 352.257 242.422 352.417 244.881V259.202C352.249 261.658 351.362 264.047 349.827 266.177C348.292 268.306 346.152 270.115 343.582 271.458L261.844 309.287C259.11 310.404 256.085 310.986 253.016 310.986C249.947 310.986 246.921 310.404 244.187 309.287L39.5516 214.514C36.977 213.175 34.8343 211.367 33.2988 209.237C31.7632 207.106 30.8785 204.715 30.7168 202.258V187.908C30.8785 185.451 31.7632 183.06 33.2988 180.93C34.8343 178.8 36.977 176.991 39.5516 175.652L121.289 137.823C124.025 136.709 127.052 136.13 130.121 136.133C133.19 136.137 136.214 136.722 138.947 137.843Z" fill="#37474F"/>
<path d="M253.01 280.304V310.992C256.088 311.039 259.13 310.452 261.844 309.287L343.582 271.467C346.153 270.123 348.293 268.313 349.828 266.181C351.363 264.05 352.25 261.659 352.417 259.202V244.881C352.417 240.653 348.929 235.567 344.481 233.083C348.443 235.353 348.127 238.685 343.582 240.799L261.844 278.618C259.127 279.774 256.086 280.354 253.01 280.304Z" fill="#263238"/>
<path d="M244.187 278.618L39.5515 183.846C34.6905 181.585 34.6905 177.932 39.5515 175.672L121.289 137.843C124.023 136.725 127.049 136.143 130.118 136.143C133.187 136.143 136.212 136.725 138.946 137.843L343.582 232.615C348.443 234.875 348.443 238.539 343.582 240.789L261.844 278.618C259.11 279.735 256.085 280.318 253.016 280.318C249.947 280.318 246.921 279.735 244.187 278.618Z" fill="#455A64"/>
<path d="M52.0078 227.384C52.0078 227.384 60.3322 243.741 60.7575 250.19C61.195 256.912 63.188 259.143 61.8026 266.46C61.4988 268.048 60.4537 271.243 60.1864 272.539C60.1086 272.811 60.1045 273.093 60.1744 273.366C60.2444 273.64 60.3867 273.898 60.5918 274.123C60.7969 274.348 61.0599 274.536 61.3632 274.673C61.6664 274.81 62.0028 274.893 62.3495 274.916C65.9953 275.52 72.0715 270.045 74.903 264.083C77.8438 257.201 80.2505 250.179 82.1094 243.059C82.2516 241.436 81.8532 239.812 80.9549 238.353C80.4974 237.498 79.9399 236.679 79.29 235.908C78.0748 232.985 77.5036 227.423 76.495 223.574L52.0078 227.384Z" fill="#FFA8A7"/>
<path d="M89.2311 249.187C89.707 249.872 90.0357 250.616 90.2033 251.389C90.2883 252.723 86.5576 257.146 85.0264 258.754C82.929 260.929 81.9544 263.667 82.3042 266.401C82.5229 270.688 80.1532 274.819 76.7019 278.365C71.9507 282.972 65.57 286.318 58.4003 287.961C49.5655 290.143 46.4544 286.587 46.4544 286.587C46.4544 286.587 43.7201 283.178 45.3607 281.775C47.0013 280.372 89.2311 249.187 89.2311 249.187Z" fill="#263238"/>
<path d="M79.2901 235.908C79.5575 235.908 80.0314 235.84 80.7241 236.512C80.9793 236.765 82.5956 239.951 83.9324 241.627C85.2692 243.303 88.7933 246.498 89.2308 249.187C87.1771 254.438 81.0401 258.091 80.1165 263.04C79.1929 267.989 79.0957 273.757 69.5925 279.816C60.0892 285.876 50.3187 286.509 46.8066 284.902C43.2945 283.294 43.6105 280.284 48.5079 274.536C53.7092 268.447 57.2091 255.237 57.2091 255.227C57.8532 252.928 57.2942 249.05 60.15 247.628C61.5676 247.034 63.1329 246.701 64.7315 246.654C66.5422 246.498 68.523 246.371 70.0178 247.199C71.2638 248.01 72.0589 249.184 72.2296 250.463C72.4004 251.727 72.6764 252.98 73.0559 254.214C73.2017 254.604 73.4934 255.032 73.9916 255.091C74.7451 255.178 75.2069 254.418 75.3041 253.814L77.5766 244.296L78.6947 239.659C78.9742 238.47 79.6547 237.097 79.2901 235.908Z" fill="#37474F"/>
<path d="M43.0394 247.472C43.0394 247.472 38.9198 267.424 34.3261 275.16C29.7325 282.895 27.3871 286.636 21.0678 292.501C19.6946 293.767 16.5592 296.145 15.429 297.177C15.1534 297.375 14.9378 297.621 14.7987 297.896C14.6596 298.171 14.6007 298.468 14.6265 298.764C14.6523 299.06 14.7621 299.348 14.9475 299.604C15.1329 299.861 15.3891 300.081 15.6964 300.246C18.5036 302.399 30.413 302.915 37.0969 298.902C43.7808 294.888 49.857 286.334 53.8308 283.109C55.3256 281.892 56.7353 280.654 58.0842 279.339C59.4331 278.024 59.0199 276.865 59.1293 275.442C59.1293 274.751 59.0685 272.88 59.0685 272.88C59.98 269.519 62.4469 264.248 63.7594 260.975L43.0394 247.472Z" fill="#FFA8A7"/>
<path d="M61.4136 287.951C61.4839 288.771 61.3812 289.594 61.1098 290.387C60.4414 291.683 54.4138 294.508 52.1048 295.501C48.9182 296.813 46.4757 299.05 45.2751 301.756C43.0877 305.896 38.5427 308.965 33.2928 311.079C26.2315 313.731 18.3335 314.604 10.6406 313.583C1.0645 312.482 0.0922708 308.011 0.0922708 308.011C0.0922708 308.011 -0.588248 303.792 1.74502 303.061C4.0783 302.331 61.4136 287.951 61.4136 287.951Z" fill="#263238"/>
<path d="M59.4088 271.828C59.664 271.925 60.1501 272.032 60.4296 272.909C60.539 273.25 60.2838 276.806 60.624 278.901C60.9643 280.995 62.5077 285.223 61.414 287.951C56.553 292.189 48.7025 293.446 45.0689 297.801C41.4353 302.155 38.1298 307.543 25.7586 309.91C13.3874 312.278 3.79917 309.336 1.36868 306.559C-1.06181 303.782 0.919023 301.045 8.75736 297.362C17.0696 293.465 27.7395 282.213 27.7517 282.203C29.212 280.609 30.5473 278.943 31.7498 277.215C32.4911 276.173 32.3817 275.16 34.2654 274.955C35.1863 274.9 36.1118 274.993 36.9875 275.228C38.7619 275.609 40.5102 276.064 42.2252 276.592C43.1128 276.769 43.885 277.207 44.3884 277.819C44.6894 278.535 44.6548 279.314 44.2911 280.011L41.5568 287.581C45.2026 285.896 47.4629 282.778 49.7719 279.933C51.0439 278.255 52.6024 276.727 54.402 275.394C55.2605 274.787 56.217 274.276 57.2457 273.874C57.6224 273.728 58.6311 273.601 58.8863 273.367C59.1415 273.133 59.0442 272.744 59.1536 272.705C59.263 272.666 59.4088 271.828 59.4088 271.828Z" fill="#455A64"/>
<path d="M97.9686 133.868C87.7727 139.859 52.2389 156.275 37.8139 166.991C33.6456 170.08 32.2724 174.152 33.2932 183.027C34.6907 195.069 46.4908 236.113 46.4908 236.113C48.1192 238.431 50.975 234.038 50.975 234.038L107.29 176.734L97.9686 133.868Z" fill="#0095D9"/>
<path opacity="0.3" d="M97.9686 133.868C87.7727 139.859 52.2389 156.275 37.8139 166.991C33.6456 170.08 32.2724 174.152 33.2932 183.027C34.6907 195.069 46.4908 236.113 46.4908 236.113C48.1192 238.431 50.975 234.038 50.975 234.038L107.29 176.734L97.9686 133.868Z" fill="black"/>
<path opacity="0.3" d="M48.909 223.36C61.9364 214.592 104.02 161.399 104.02 161.399C98.2966 157.502 95.3435 144.058 95.3435 144.058C93.071 149.251 95.4651 157.083 97.2272 159.948C93.9217 162.247 75.1947 174.561 62.1916 182.842C58.9226 184.917 55.5928 187.47 54.4748 192.185C51.7891 203.496 48.6052 221.032 48.909 223.36Z" fill="black"/>
<path d="M97.9687 133.868L170.458 146.727C166.91 157.444 165.901 162.9 162.207 168.521C158.512 174.142 154.405 180.212 135.544 187.606C117.401 194.767 95.2223 202.141 90.7866 203.837C87.4447 205.113 85.8527 210.471 84.3458 217.417C82.766 224.704 82.6202 230.404 73.6273 245.67C64.829 260.644 63.0304 263.878 63.0304 263.878C63.0304 263.878 49.4075 265.008 40.3661 258.637C40.3661 258.637 52.7008 207.295 55.3257 198.059C56.7962 192.896 56.8326 190.168 64.8168 184.498C71.6708 179.627 102.283 161.068 102.283 161.068C102.283 161.068 90.1061 147.965 97.9687 133.868Z" fill="#0095D9"/>
<path opacity="0.3" d="M97.9687 133.868L170.458 146.727C166.91 157.444 165.901 162.9 162.207 168.521C158.512 174.142 154.405 180.212 135.544 187.606C117.401 194.767 95.2223 202.141 90.7866 203.837C87.4447 205.113 85.8527 210.471 84.3458 217.417C82.766 224.704 82.6202 230.404 73.6273 245.67C64.829 260.644 63.0304 263.878 63.0304 263.878C63.0304 263.878 49.4075 265.008 40.3661 258.637C40.3661 258.637 52.7008 207.295 55.3257 198.059C56.7962 192.896 56.8326 190.168 64.8168 184.498C71.6708 179.627 102.283 161.068 102.283 161.068C102.283 161.068 90.1061 147.965 97.9687 133.868Z" fill="black"/>
<path d="M61.912 110.944C62.1308 110.243 62.4103 109.493 62.7627 108.704C62.9693 108.236 63.188 107.729 63.4311 107.252C63.6012 106.94 63.7713 106.589 63.9658 106.219L64.5856 105.07C64.7679 104.738 64.9501 104.407 65.1446 104.095C65.5335 103.423 65.9466 102.741 66.3598 102.04C66.5786 101.689 66.7973 101.338 67.0282 100.988C67.2591 100.637 67.4778 100.277 67.7209 99.916C68.1827 99.2049 68.6688 98.4839 69.167 97.763L69.9691 96.6232C76.4707 87.368 85.1354 77.1387 90.3245 70.8549C96.2913 63.5872 99.8277 61.3172 111.239 61.8238C111.239 61.8238 110.413 73.6801 108.14 87.9526L99.6333 100.393L88.5745 116.546L99.0378 123.112C97.708 126.431 95.8015 129.583 93.3748 132.475C93.1803 132.689 92.9859 132.894 92.7914 133.088C92.0837 133.815 91.2675 134.47 90.3609 135.037L89.9599 135.271L89.5589 135.485C89.4255 135.556 89.2875 135.621 89.1457 135.68L88.7325 135.855L88.3193 136.001L87.894 136.128L87.4686 136.235L87.0312 136.323L86.3506 136.401H85.8159H85.2569H85.1354C84.8452 136.375 84.5571 136.336 84.2726 136.284H84.1267L83.7135 136.186C83.5275 136.143 83.345 136.091 83.1667 136.031L82.948 135.962C82.6158 135.853 82.2913 135.73 81.9757 135.592C81.2709 135.28 80.5782 134.978 79.922 134.618C79.2657 134.258 78.7918 134.102 78.2449 133.858L78.014 133.751L76.179 132.874L74.9638 132.27L74.5992 132.085C58.4972 124.116 59.0805 119.995 61.912 110.944Z" fill="#FFA8A7"/>
<path d="M67.1133 109.843C67.1133 109.843 63.7106 120.735 74.0159 128.704L74.4534 132.066L74.818 132.251L76.0332 132.855L77.8682 133.731L78.0991 133.839C78.646 134.082 79.1929 134.345 79.7762 134.598C80.3595 134.852 81.1251 135.212 81.8299 135.573C82.1455 135.71 82.47 135.834 82.8021 135.943H82.8994H83.0209H83.1424L83.5677 136.07L83.9809 136.167H84.1267C84.4113 136.219 84.6994 136.258 84.9896 136.284H85.1111H85.6701H86.2656L86.9461 136.206L87.3836 136.118L87.809 136.011L88.2343 135.884L88.6475 135.738L89.0607 135.563C89.2025 135.504 89.3404 135.439 89.4739 135.368L89.8749 135.154L90.2759 134.92C93.6422 132.816 96.5101 128.5 98.9285 122.947L88.4652 116.38L99.5239 100.228L70.0178 96.5745L69.2157 97.7143C68.7174 98.4352 68.2313 99.1562 67.7695 99.8674C67.5265 100.228 67.2956 100.588 67.0768 100.939C66.8581 101.29 66.6272 101.64 66.4085 101.991C65.971 102.693 65.5578 103.375 65.1932 104.047C64.9988 104.378 64.8165 104.709 64.6342 105.021L64.0144 106.171C63.82 106.541 63.6499 106.892 63.4797 107.203C63.2367 107.7 63.018 108.177 62.8114 108.655C64.1457 109.253 65.6025 109.656 67.1133 109.843Z" fill="#F28F8F"/>
<path d="M110.522 61.4244C103.133 61.0737 97.4944 62.0869 91.9286 67.5425C86.3628 72.9982 72.9222 89.7354 67.7452 99.8674C75.6184 105.684 85.3044 109.69 95.7809 111.461L110.522 86.3548V61.4244Z" fill="#0095D9"/>
<path d="M168.756 66.734C169.971 71.8 181.942 119.927 168.294 155.817C143.71 158.136 100.544 149.095 94.0672 136.05C94.0672 136.05 98.4299 123.668 100.326 117.618C99.9247 107.69 100.326 88.7418 100.569 82.8769C101.067 71.2641 103.327 62.272 110.522 61.4439C110.522 61.4439 124.983 60.6646 133.696 61.2783C145.601 62.0395 157.361 63.8695 168.756 66.734Z" fill="#FAFAFA"/>
<path d="M123.489 49.7628C123.683 47.2786 118.142 39.6309 115.784 33.6589C111.822 23.6731 111.92 14.8368 123.246 11.3978C123.246 11.3978 130.732 2.04526 148.268 2.19139C165.804 2.33753 178.649 14.6712 171.916 30.3076L123.489 49.7628Z" fill="#37474F"/>
<path d="M128.702 34.7307C126.418 34.6528 125.737 31.9931 124.242 30.522C123.547 29.931 122.696 29.4725 121.75 29.1805C120.805 28.8885 119.789 28.7704 118.779 28.8349C117.769 28.8995 116.79 29.1449 115.914 29.5533C115.038 29.9616 114.288 30.5224 113.718 31.1943C110.267 34.8281 113.111 40.352 116.538 42.5732C120.828 45.3692 123.282 42.9142 123.282 42.9142L122.577 62.4961C122.577 62.4961 116.756 70.5627 127.183 72.1604C140.053 74.1089 145.412 68.2635 147.612 64.5615L148.28 57.6737C151.826 58.132 155.427 58.2595 159.011 58.0537C162.924 57.7127 168.307 55.8519 169.778 50.9126C172.95 39.8894 172.913 28.4284 169.668 17.4187C165.67 19.7179 147.587 23.6635 131.777 18.5488C131.874 26.4693 130.938 34.8184 128.702 34.7307Z" fill="#FFA8A7"/>
<path d="M148.28 57.6735C148.28 57.6735 138.995 56.0757 135.277 53.7766C132.53 52.0814 129.796 47.9897 129.261 46.6355C129.261 46.6355 130.804 52.5296 133.332 55.0431C137.743 59.4466 147.988 60.1383 147.988 60.1383L148.28 57.6735Z" fill="#F28F8F"/>
<path d="M148.705 35.3444C148.705 35.6044 148.64 35.8618 148.514 36.1014C148.388 36.3411 148.204 36.5581 147.972 36.7397C147.74 36.9212 147.465 37.0637 147.163 37.1587C146.861 37.2537 146.538 37.2993 146.214 37.2928C145.708 37.2984 145.212 37.1823 144.79 36.9595C144.368 36.7368 144.038 36.4177 143.845 36.0433C143.651 35.669 143.601 35.2567 143.703 34.8597C143.805 34.4627 144.052 34.0992 144.414 33.8162C144.776 33.5332 145.235 33.3436 145.733 33.2721C146.23 33.2005 146.743 33.2502 147.205 33.4148C147.667 33.5793 148.057 33.8511 148.325 34.1951C148.592 34.5391 148.724 34.9394 148.705 35.3444Z" fill="#263238"/>
<path d="M146.433 28.6124L141.061 30.6388C140.737 30.0504 140.709 29.3843 140.983 28.7798C141.257 28.1753 141.812 27.679 142.532 27.3946C142.887 27.2644 143.271 27.1926 143.661 27.1836C144.051 27.1746 144.44 27.2284 144.804 27.342C145.167 27.4556 145.499 27.6265 145.779 27.8447C146.059 28.063 146.281 28.324 146.433 28.6124Z" fill="#263238"/>
<path d="M168.939 29.0118L163.154 27.8232C163.231 27.5162 163.385 27.225 163.607 26.9675C163.829 26.7099 164.114 26.4915 164.445 26.3254C164.777 26.1594 165.147 26.0494 165.533 26.002C165.919 25.9547 166.313 25.971 166.69 26.0501C167.466 26.2201 168.131 26.6216 168.55 27.1724C168.968 27.7231 169.107 28.3813 168.939 29.0118Z" fill="#263238"/>
<path d="M167.566 34.2142C167.565 34.5962 167.425 34.9696 167.162 35.2881C166.899 35.6067 166.525 35.8562 166.086 36.0057C165.648 36.1551 165.164 36.198 164.696 36.1289C164.227 36.0599 163.794 35.8819 163.45 35.6171C163.107 35.3524 162.868 35.0125 162.764 34.6398C162.659 34.2671 162.694 33.8781 162.863 33.521C163.032 33.1639 163.328 32.8545 163.715 32.6313C164.102 32.4081 164.562 32.281 165.038 32.2657C165.365 32.2552 165.692 32.2979 165.998 32.3911C166.304 32.4843 166.584 32.6261 166.82 32.8081C167.056 32.9901 167.244 33.2085 167.372 33.4501C167.5 33.6917 167.566 33.9516 167.566 34.2142Z" fill="#263238"/>
<path d="M145.144 44.9894L155.425 47.9997C154.883 49.1045 153.829 49.9987 152.485 50.4961C151.14 50.9934 149.607 51.0554 148.207 50.6691C147.531 50.4674 146.913 50.1582 146.391 49.7602C145.868 49.3621 145.451 48.8834 145.165 48.3528C144.879 47.8222 144.729 47.2508 144.726 46.6728C144.722 46.0947 144.865 45.5221 145.144 44.9894Z" fill="#B16668"/>
<path d="M146.505 46.9571C145.927 46.9402 145.35 47.0095 144.804 47.1617C144.907 47.9425 145.28 48.6848 145.881 49.3046C146.482 49.9244 147.288 50.3969 148.207 50.6689C149.083 50.918 150.025 50.9818 150.941 50.854C150.97 50.3644 150.879 49.8749 150.671 49.4137C150.464 48.9525 150.145 48.5287 149.733 48.1666C149.321 47.8045 148.824 47.5113 148.27 47.3037C147.716 47.0961 147.116 46.9783 146.505 46.9571Z" fill="#F28F8F"/>
<path d="M171.527 19.4839C177.749 17.7011 178.017 15.2948 177.919 14.1452C177.893 13.5661 177.605 13.0144 177.108 12.5931C176.612 12.1719 175.941 11.9098 175.222 11.8558C176.52 11.0599 177.61 10.0668 178.43 8.93308C178.836 8.36664 179.031 7.71877 178.993 7.06613C178.954 6.4135 178.683 5.78344 178.211 5.2505C177.429 4.58632 176.359 4.18865 175.222 4.13989C174.095 4.09297 172.965 4.11904 171.843 4.21783C165.937 4.51984 161.198 2.42525 155.717 1.17824C150.283 -0.0432564 144.585 -0.318959 139.007 0.369634C129.419 1.49974 123.525 7.10153 123.282 11.3686C124.971 14.4862 127.45 16.2398 131.789 18.5195L132.08 18.7143C135.385 20.8112 139.159 22.3819 143.2 23.3419C145.873 24.0787 148.648 24.5499 151.464 24.7448C154.939 25.0078 162.644 24.8714 165.39 22.4164C166.521 21.4421 165.208 20.312 164.321 20.1172C166.472 20.1718 168.622 20.0148 170.725 19.6496C170.956 19.6203 171.248 19.5619 171.527 19.4839Z" fill="#37474F"/>
<path d="M155.085 43.4305L163.422 42.9823C161.778 38.689 158.926 34.7559 155.085 31.4865V43.4305Z" fill="#F28F8F"/>
<path d="M70.4675 108.1C68.4988 110.516 66.7367 119.391 77.759 128.383C88.7812 137.375 102.817 144.828 123.464 145.637C144.111 146.445 164.625 139.236 162.51 128.1C160.396 116.965 142.289 114.286 134.134 111.792C125.98 109.298 114.143 96.8473 98.6977 97.3052C83.2519 97.763 70.4675 108.1 70.4675 108.1Z" fill="#0095D9"/>
<path opacity="0.7" d="M70.4675 108.1C68.4988 110.516 66.7367 119.391 77.759 128.383C88.7812 137.375 102.817 144.828 123.464 145.637C144.111 146.445 164.625 139.236 162.51 128.1C160.396 116.965 142.289 114.286 134.134 111.792C125.98 109.298 114.143 96.8473 98.6977 97.3052C83.2519 97.763 70.4675 108.1 70.4675 108.1Z" fill="white"/>
<path opacity="0.05" d="M70.4677 108.099C74.2604 105.221 78.5395 102.784 83.1792 100.861C92.6824 102.118 101.335 104.086 98.8315 106.96C93.6911 112.805 83.9326 112.084 79.8616 112.805C75.7905 113.526 78.4154 118.991 80.2261 123.521C82.0368 128.052 92.9741 131.042 93.7883 130.156C94.6025 129.269 93.2779 126.259 92.3908 123.521C92.2491 123.184 92.2014 122.826 92.2511 122.472C92.3008 122.118 92.4467 121.777 92.6784 121.474C92.9101 121.17 93.2221 120.911 93.5923 120.714C93.9625 120.518 94.382 120.388 94.8212 120.336C94.8212 120.336 103.328 130.926 111.093 131.91C118.859 132.894 141.037 128.587 145.497 126.288C149.957 123.989 149.143 118.641 145.497 114.987C153.141 117.355 161.028 121.008 162.377 128.139C164.491 139.284 143.978 146.494 123.331 145.675C102.684 144.857 88.5992 137.424 77.6255 128.422C66.6519 119.42 68.499 110.516 70.4677 108.099Z" fill="black"/>
<path d="M80.5541 85.6146C80.5541 87.6816 81.5784 89.664 83.4016 91.1256C85.2248 92.5873 87.6977 93.4084 90.2761 93.4084C94.177 93.4084 97.1058 90.5929 97.6405 87.6605C97.8971 85.9462 97.613 84.2077 96.8141 82.6042C96.1829 81.0467 94.8651 79.7271 93.1076 78.8924C92.0862 78.3409 90.9072 78.0057 89.6806 77.9182C88.1592 77.9246 86.6684 78.2613 85.3665 78.8924C83.9115 79.5871 82.7044 80.5705 81.8615 81.748C81.0186 82.9254 80.5683 84.2571 80.5541 85.6146Z" fill="#455A64"/>
<path d="M61.9122 95.3566C61.9122 100.033 63.2733 103.219 67.6968 105.703C71.0023 107.564 75.4136 110.301 81.9273 110.798C90.7622 111.48 98.6127 109.006 102.319 103.277C103.563 101.339 103.862 99.0987 103.158 96.9933C102.514 95.1521 100.97 93.6517 99.7672 92.0345C98.5641 90.4173 98.0415 88.5468 96.9356 86.8711C95.9146 85.3543 94.5601 83.9979 92.9375 82.8671C91.4423 81.6853 89.6593 80.7633 87.6998 80.1587C85.7391 79.6441 83.6865 79.3907 81.6235 79.4086C79.0094 79.3792 76.4148 79.7727 73.9948 80.5656C71.5747 81.3586 69.379 82.5346 67.5389 84.0234C65.6988 85.5122 64.2521 87.2832 63.2853 89.2305C62.3185 91.1778 61.8515 93.2614 61.9122 95.3566Z" fill="#B16668"/>
<path d="M79.8734 97.2465C79.8734 97.5095 80.3474 96.7302 81.5383 96.1067C82.2585 95.734 83.117 95.5723 83.9688 95.6488C84.1737 95.6708 84.3767 95.7034 84.5764 95.7462C84.9046 95.8241 84.8681 95.4637 84.2605 95.1324C83.896 94.9345 83.4807 94.8046 83.0452 94.7525C82.295 94.6836 81.5412 94.8547 80.9474 95.2286C80.3536 95.6025 79.9677 96.149 79.8734 96.7496C79.849 96.9147 79.849 97.0815 79.8734 97.2465Z" fill="#263238"/>
<path d="M91.9895 92.5606C92.0502 92.8041 92.3419 92.0637 93.3263 91.4013C93.93 90.9978 94.6913 90.7771 95.4773 90.7778C95.6634 90.7677 95.8502 90.7677 96.0363 90.7778C96.3401 90.7778 96.255 90.505 95.6596 90.2517C95.2845 90.096 94.8665 90.0189 94.4443 90.0276C94.1025 90.0121 93.7604 90.0546 93.4406 90.1524C93.1207 90.2502 92.8302 90.4011 92.5881 90.5952C92.346 90.7892 92.1578 91.0221 92.0358 91.2786C91.9138 91.535 91.8607 91.8092 91.8801 92.0832C91.8949 92.245 91.9316 92.4051 91.9895 92.5606Z" fill="#263238"/>
<path d="M91.8193 96.3893C92.8766 96.097 94.4321 96.8374 93.4964 97.4122C92.5606 97.987 89.9236 99.1074 89.8507 98.5813C89.9404 98.1175 90.1655 97.6772 90.5076 97.2963C90.8497 96.9154 91.2991 96.6046 91.8193 96.3893Z" fill="#9A4A4D"/>
<path d="M94.6025 101.105L90.3369 101.835C90.4933 102.259 90.8433 102.619 91.3168 102.845C91.7904 103.071 92.3527 103.145 92.8914 103.052C93.4302 102.96 93.9056 102.708 94.2228 102.347C94.54 101.986 94.6756 101.542 94.6025 101.105Z" fill="#9A4A4D"/>
<path d="M58.9835 96.8277C58.9816 99.1497 59.7853 101.426 61.3047 103.403C62.8241 105.38 64.9994 106.979 67.5874 108.022C69.0928 108.579 70.6756 108.991 72.3025 109.249H72.3633C72.8501 109.311 73.3412 109.35 73.8338 109.366H73.9796C74.1252 109.375 74.2715 109.375 74.4171 109.366C74.6477 109.378 74.8791 109.378 75.1098 109.366C73.8305 108.106 72.9917 106.597 72.6793 104.992C71.8286 106.112 69.0335 105.518 68.0492 104.612C67.4162 104.159 66.9526 103.574 66.7101 102.922C66.4677 102.27 66.4558 101.576 66.676 100.919C66.8571 100.611 67.1175 100.338 67.44 100.116C67.7624 99.8942 68.1397 99.7296 68.5471 99.6331C68.9545 99.5365 69.3827 99.51 69.8037 99.5554C70.2248 99.6008 70.629 99.7171 70.9901 99.8965C71.6584 100.306 72.1081 101.036 72.9466 101.114C73.1646 101.131 73.3839 101.097 73.5785 101.017C73.8219 100.915 74.0316 100.769 74.1901 100.589C74.3486 100.409 74.4514 100.202 74.49 99.9842C74.5362 99.3659 74.3362 98.7518 73.9188 98.2306C73.5218 97.703 73.2114 97.1365 72.9952 96.5452C72.5578 94.7916 74.4778 92.9795 73.7001 91.3038C73.3963 90.6414 72.6914 89.9107 73.2018 89.3554C73.4664 89.1183 73.8208 88.9574 74.2105 88.8975C77.443 88.1474 80.8336 87.9233 84.0054 87.0367L84.2484 86.9588C87.3473 86.0723 90.3246 84.3868 91.2725 81.8831C91.4861 81.2454 91.6244 80.5931 91.6857 79.9346C91.8315 79.1956 91.8315 78.4427 91.6857 77.7037C91.4579 76.5199 90.7738 75.423 89.7292 74.5667C89.5703 74.4032 89.3572 74.2791 89.1143 74.2084C88.8714 74.1378 88.6085 74.1235 88.3559 74.1672C87.8212 74.3426 87.7362 74.8979 87.6025 75.3558C87.364 76.1341 86.7585 76.808 85.9133 77.236C85.7553 76.8074 85.7067 76.3592 85.573 75.9306C85.4843 75.4859 85.2634 75.0649 84.9289 74.703C84.7584 74.5267 84.5358 74.3872 84.2812 74.2971C84.0266 74.2069 83.7481 74.169 83.4707 74.1867C82.7901 74.2646 82.705 74.6446 82.4741 75.044C82.278 75.3228 82.063 75.5927 81.8301 75.8526C81.2542 76.6182 80.4891 77.2813 79.5819 77.8011C76.8962 79.2429 68.6446 78.6097 63.7837 83.0814C62.8872 83.9891 62.2613 85.0491 61.9538 86.1803C61.6463 87.3116 61.6653 88.4842 62.0094 89.6087V89.6574L61.7785 89.8328C59.9906 91.886 59.0165 94.3238 58.9835 96.8277Z" fill="#455A64"/>
<path opacity="0.4" d="M76.4829 101.767C76.4829 103.452 78.5852 104.816 81.1737 104.816C83.7622 104.816 85.8524 103.452 85.8524 101.767C85.8524 100.082 83.7622 98.7177 81.1737 98.7177C78.5852 98.7177 76.4829 100.082 76.4829 101.767Z" fill="#F28F8F"/>
<path opacity="0.4" d="M96.1821 96.1361C96.5904 96.751 97.2219 97.252 97.9932 97.5728C98.7644 97.8937 99.639 98.0192 100.501 97.9328C101.363 97.8463 102.173 97.5521 102.821 97.0889C103.47 96.6257 103.929 96.0155 104.135 95.3389C104.342 94.6624 104.288 93.9514 103.98 93.3002C103.671 92.6489 103.124 92.0881 102.409 91.6918C101.694 91.2956 100.847 91.0827 99.9777 91.0813C99.1088 91.0799 98.2598 91.29 97.5432 91.6839C96.6295 92.1319 95.9737 92.8513 95.7187 93.6853C95.4638 94.5192 95.6304 95.4002 96.1821 96.1361Z" fill="#F28F8F"/>
<path d="M168.587 67.2697C177.883 68.4192 185.381 72.0823 186.998 87.2023C188.213 98.4546 188.456 125.197 186.998 136.157C186.208 141.876 183.352 146.416 174.007 147.936C164.661 149.455 135.337 151.56 111.154 148.686C100.472 147.409 87.8699 143.405 82.535 138.943C79.108 134.988 77.7591 128.402 77.7591 128.402C85.0506 133.225 92.2813 133.273 95.0277 133.03C95.5034 133.005 95.9628 132.881 96.361 132.671C96.7593 132.461 97.0829 132.172 97.3003 131.832C97.5717 131.1 97.4847 130.312 97.0572 129.63C95.842 127.058 93.6059 124.613 93.9583 121.768C93.9649 121.482 94.0539 121.202 94.2184 120.948C94.3828 120.694 94.6183 120.475 94.9062 120.307C95.2196 120.188 95.5647 120.135 95.9105 120.15C96.2562 120.165 96.5918 120.249 96.8871 120.394C99.0016 121.271 99.828 123.444 101.602 124.642C103.828 126.279 105.704 128.198 107.156 130.322C108.067 131.559 108.371 133.04 109.902 133.887C111.434 134.735 113.682 134.861 115.529 134.939C124.546 135.388 158.731 129.416 158.731 129.416L157.37 95.191C157.37 95.191 150.346 71.868 168.587 67.2697Z" fill="#FFA8A7"/>
<path d="M168.756 66.734C174.505 67.8739 181.942 69.3352 185.575 77.9181C189.209 86.5011 188.917 95.7465 188.881 103.949C188.844 112.152 188.383 128.003 188.383 128.003C188.383 128.003 170.154 131.51 158.536 125.87L155.826 92.9991C155.826 92.9991 150.613 71.9169 168.756 66.734Z" fill="#0095D9"/>
<path d="M175.562 317.236C177.02 317.236 176.996 319.185 177.737 321.766C178.691 324.242 178.691 326.89 177.737 329.365C176.364 332.522 170.02 332.951 166.678 337.091C163.337 341.232 158.476 348.694 147.235 350.847C135.994 353 127.195 350.155 124.996 347.486C122.796 344.817 124.619 342.206 131.777 338.718C139.384 335.035 141.499 333.954 141.499 333.954L175.562 317.236Z" fill="#263238"/>
<path d="M161.283 301.629C161.283 301.629 157.917 311.567 154.745 317.217C151.573 322.868 146.481 328.255 140.782 333.302C139.566 334.402 136.723 336.439 135.714 337.325C135.473 337.497 135.283 337.71 135.158 337.948C135.032 338.186 134.975 338.444 134.989 338.702C135.003 338.96 135.088 339.213 135.239 339.442C135.389 339.67 135.602 339.869 135.86 340.024C138.29 341.972 147.587 342.43 153.554 339.049C159.521 335.669 164.722 327.875 168.307 325.099C169.644 324.056 172.257 322.799 173.472 321.669C174.545 320.867 175.266 319.807 175.526 318.649C175.8 316.588 176.379 314.56 177.251 312.609C178.88 308.809 179.256 307.855 180.484 305L161.283 301.629Z" fill="#B16668"/>
<path d="M311.11 201.284L278.481 209.789C274.41 219.015 269.622 227.51 253.459 234.681C240.092 240.623 214.754 249.83 210.926 251.457C207.098 253.084 206.417 256.123 205.299 261.686C204.084 267.668 203.804 272.831 193.718 287.24C184.64 300.188 179.329 308.546 179.329 308.546C179.329 308.546 167.869 310.29 159.97 303.812C159.97 303.812 174.019 250.073 176.765 242.036C178.138 237.993 179.645 234.242 185.563 230.111C203.792 217.398 246.241 196.51 246.241 196.51L311.11 201.284Z" fill="#263238"/>
<path d="M247.942 221.09C246.204 219.054 245.366 214.592 245.512 210.189C245.512 210.189 247.492 217.719 253.411 221.304L227.89 244.968L216.054 249.469C216.078 247.833 238.633 226.741 247.942 221.09Z" fill="black"/>
<path d="M217.597 334.412C219.055 334.324 219.76 336.604 220.696 339.127C221.837 341.549 222.045 344.189 221.291 346.707C220.149 349.931 213.271 350.935 210.245 355.231C207.219 359.528 202.953 367.195 191.785 369.845C180.617 372.494 171.734 370.098 169.34 367.545C166.946 364.993 168.574 362.294 175.477 358.495C182.768 354.471 184.858 353.283 184.858 353.283L217.597 334.412Z" fill="#263238"/>
<path d="M204.193 309.56C204.193 309.56 199.575 330.164 196.828 335.951C194.082 341.738 189.379 347.36 184.056 352.659C182.841 353.819 180.24 355.981 179.292 356.917C179.067 357.101 178.895 357.323 178.789 357.567C178.683 357.811 178.645 358.071 178.679 358.328C178.713 358.585 178.817 358.832 178.984 359.053C179.151 359.274 179.376 359.463 179.645 359.606C182.197 361.427 192.684 361.554 198.384 357.871C204.083 354.189 208.264 345.82 211.411 342.732C213.271 340.891 214.765 339.897 215.883 338.708C217.002 337.52 217.852 336.838 217.804 335.591C217.867 333.598 218.322 331.625 219.153 329.746C220.708 325.936 226.189 315.308 227.21 312.395L204.193 309.56Z" fill="#B16668"/>
<path d="M311.11 201.284C313.76 210.335 315.85 213.491 312.459 222.883C309.069 232.274 298.132 241.12 282.528 249.041C269.61 255.587 257.652 261.793 249.716 265.602C246.01 267.376 243.98 272.558 242.935 278.413C241.89 284.269 240.845 291.225 232.958 304.64C225.071 318.055 221.741 325.03 221.741 325.03C221.741 325.03 209.905 326.004 201.544 319.886C201.544 319.886 211.764 269.227 213.696 261.014C215.203 254.399 216.905 252.246 218.727 250.297C228.449 240.156 254.978 220.194 254.978 220.194C254.978 220.194 249.619 205.532 246.277 196.53L311.11 201.284Z" fill="#263238"/>
<path d="M166.022 140.765C169.571 144.565 175.647 147.293 177.506 147.117C176.534 145.325 175.185 143.435 175.003 142.382C174.65 140.298 176.291 139.002 177.251 139.031C178.211 139.06 178.649 141.194 180.702 142.928C183.255 144.914 185.288 147.289 186.681 149.913C187.289 151.053 188.14 152.719 189.549 153.274C196.61 156.08 213.028 162.685 224.475 164.371C227.574 157.649 232.812 147.429 236.336 139.119C241.44 127.058 249.23 123.132 263.922 124.116L264.566 135.962C259.244 146.289 244.563 171.668 239.873 177.075C233.979 183.894 228.935 183.319 221.486 181.371C211.679 178.789 201.179 174.61 188.869 168.54C181.82 165.082 175.926 163.28 171.15 161C158.451 154.931 152.168 148.588 152.278 145.792C152.581 137.998 161.295 135.719 166.022 140.765Z" fill="#B16668"/>
<path d="M168.027 234.242C159.764 238.071 131.643 225.874 120.524 220.769C109.404 215.664 107.095 210.052 115.298 205.999C123.501 201.947 149.325 208.016 159.934 215.878C170.543 223.74 172.67 231.573 168.027 234.242Z" fill="#0095D9"/>
<g opacity="0.5">
<path d="M168.027 234.242C159.764 238.071 131.643 225.874 120.524 220.769C109.404 215.664 107.095 210.052 115.298 205.999C123.501 201.947 149.325 208.016 159.934 215.878C170.543 223.74 172.67 231.573 168.027 234.242Z" fill="white"/>
</g>
<g opacity="0.1">
<path d="M168.027 234.242C159.764 238.071 131.643 225.874 120.524 220.769C109.404 215.664 107.095 210.052 115.298 205.999C123.501 201.947 149.325 208.016 159.934 215.878C170.543 223.74 172.67 231.573 168.027 234.242Z" fill="black"/>
</g>
<path d="M167.954 186.934C169 193.861 169.996 202.424 164.904 209.341C161.1 214.465 157.224 216.911 146.129 219.434C136.151 221.704 127.256 223.204 127.256 223.204C127.842 227.077 127.624 231.001 126.612 234.817C125.397 239.376 121.119 251.876 121.119 251.876C121.119 251.876 112.612 255.568 106.05 250.541C106.05 250.541 104.604 227.16 104.895 222.123C105.187 217.086 102.246 212.234 115.298 206.068C116.999 205.269 152.181 191.308 152.181 191.308L167.954 186.934Z" fill="#F28F8F"/>
<path d="M106.05 250.473C106.05 250.473 105.649 243.984 105.309 237.106C107.668 238.545 110.422 239.51 113.341 239.922C117.175 240.469 121.082 240.6 124.959 240.312C123.282 245.572 121.119 251.808 121.119 251.808C121.119 251.808 112.551 255.5 106.05 250.473Z" fill="#F0F0F0"/>
<path d="M135.994 221.509C137.209 219.453 139.554 217.193 143.881 214.602L156.301 207.159L168.234 201.956C167.7 204.534 166.589 207.013 164.953 209.273C161.149 214.397 157.273 216.843 146.178 219.366C142.471 220.204 138.971 220.925 135.994 221.509Z" fill="#B16668"/>
<path d="M121.957 258.13L82.1701 265.125L81.599 265.281C81.2952 266.148 81.2709 267.229 83.1666 268.369C85.5971 269.928 93.5935 271.682 100.362 270.756C107.131 269.831 111.944 265.486 113.402 264.609C115.966 263.069 120.292 263.186 121.289 262.534C122.65 260.897 121.957 258.13 121.957 258.13Z" fill="#455A64"/>
<path d="M103.34 247.492C102.995 248.203 102.782 248.952 102.708 249.713C102.36 250.652 101.676 251.489 100.74 252.119C98.5023 253.789 95.9871 255.202 93.2658 256.318C90.7381 257.381 88.1328 258.322 85.4639 259.134C84.0352 259.578 82.8836 260.457 82.2599 261.58C81.6362 262.702 81.591 263.976 82.1341 265.125C83.1671 265.982 85.6948 267.6 90.811 268.36C96.7657 269.246 100.642 269.139 105.868 267.044C109.514 265.583 110.729 263.868 114.375 262.427C115.845 261.842 120.123 261.598 121.994 259.913C123.209 257.965 122.881 255.665 122.723 254.34C122.584 253.305 122.547 252.263 122.614 251.223C122.687 250.161 123.209 249.625 123.197 248.631C123.197 248.417 123.197 247.881 122.48 247.833L121.727 249.206C120.803 250.755 117.413 250.931 115.31 250.609C115.48 249.421 115.796 248.953 115.201 248.291C114.472 247.462 112.77 247.209 111.628 246.985C109.804 246.694 107.945 246.573 106.087 246.625C105.268 246.554 104.443 246.712 103.753 247.073C103.586 247.192 103.446 247.334 103.34 247.492Z" fill="#0095D9"/>
<path opacity="0.3" d="M103.34 247.492C102.995 248.203 102.782 248.952 102.708 249.713C102.36 250.652 101.676 251.489 100.74 252.119C98.5023 253.789 95.9871 255.202 93.2658 256.318C90.7381 257.381 88.1328 258.322 85.4639 259.134C84.0352 259.578 82.8836 260.457 82.2599 261.58C81.6362 262.702 81.591 263.976 82.1341 265.125C83.1671 265.982 85.6948 267.6 90.811 268.36C96.7657 269.246 100.642 269.139 105.868 267.044C109.514 265.583 110.729 263.868 114.375 262.427C115.845 261.842 120.123 261.598 121.994 259.913C123.209 257.965 122.881 255.665 122.723 254.34C122.584 253.305 122.547 252.263 122.614 251.223C122.687 250.161 123.209 249.625 123.197 248.631C123.197 248.417 123.197 247.881 122.48 247.833L121.727 249.206C120.803 250.755 117.413 250.931 115.31 250.609C115.48 249.421 115.796 248.953 115.201 248.291C114.472 247.462 112.77 247.209 111.628 246.985C109.804 246.694 107.945 246.573 106.087 246.625C105.268 246.554 104.443 246.712 103.753 247.073C103.586 247.192 103.446 247.334 103.34 247.492Z" fill="black"/>
<path d="M81.5625 265.281C80.0799 262.056 81.5625 259.494 86.4235 258.296C91.2845 257.098 98.576 259.27 101.213 261.15C103.85 263.031 105.308 265.301 103.716 267.804C103.716 267.804 98.2114 270.123 89.6561 268.778C86.548 268.367 83.6999 267.136 81.5625 265.281Z" fill="#FAFAFA"/>
<path d="M195.99 192.526C198.032 199.443 200.256 208.045 196.063 215.478C192.928 221.022 188.225 222.785 177.932 226.643C168.404 230.218 159.837 232.976 159.837 232.976C160.977 236.851 161.314 240.85 160.833 244.812C160.286 249.547 157.673 262.611 157.673 262.611C157.673 262.611 149.507 267.142 142.191 262.611C142.191 262.611 137.403 238.996 136.99 233.882C136.577 228.767 132.907 224.091 145.278 216.648L157.649 209.204L195.99 192.526Z" fill="#F28F8F"/>
<path d="M139.821 250.57C139.821 250.57 141.814 251.856 149.398 251.798C156.981 251.739 160.067 249.849 160.067 249.849C159.107 255.49 157.637 262.651 157.637 262.651C157.637 262.651 149.47 267.181 142.155 262.651C142.191 262.641 141.037 256.961 139.821 250.57Z" fill="#F0F0F0"/>
<path d="M161.55 267.794L124.631 283.197L124.108 283.48C124.108 284.395 124.437 285.428 126.685 286.188C129.662 287.162 138.059 287.221 144.439 284.863C150.819 282.505 154.089 277.196 155.243 276.017C157.248 273.952 161.55 273.143 162.316 272.286C163.154 270.366 161.55 267.794 161.55 267.794Z" fill="#455A64"/>
<path d="M139.664 261.267C139.571 262.044 139.611 262.828 139.785 263.596C139.758 264.595 139.36 265.565 138.643 266.382C136.998 268.509 134.99 270.44 132.676 272.12C130.54 273.711 128.283 275.195 125.919 276.563C124.657 277.305 123.813 278.417 123.571 279.657C123.33 280.897 123.711 282.162 124.631 283.178C125.931 283.801 128.969 284.853 134.256 284.512C140.417 284.113 144.209 283.178 148.656 280.002C151.755 277.79 152.399 275.822 155.523 273.63C156.738 272.744 160.906 271.584 162.194 269.529C162.741 267.395 161.66 265.154 161.052 263.878C160.575 262.891 160.197 261.874 159.922 260.839C159.63 259.777 159.922 259.134 159.63 258.15C159.557 257.935 159.375 257.419 158.658 257.516L158.366 259.036C157.977 260.761 154.721 261.657 152.509 261.784C152.29 260.575 152.448 260.049 151.634 259.523C150.82 258.997 148.912 258.968 147.684 258.997C145.788 259.102 143.912 259.38 142.094 259.825C141.259 259.934 140.5 260.28 139.955 260.8C139.828 260.942 139.729 261.1 139.664 261.267Z" fill="#0095D9"/>
<path opacity="0.3" d="M139.664 261.267C139.571 262.044 139.611 262.828 139.785 263.596C139.758 264.595 139.36 265.565 138.643 266.382C136.998 268.509 134.99 270.44 132.676 272.12C130.54 273.711 128.283 275.195 125.919 276.563C124.657 277.305 123.813 278.417 123.571 279.657C123.33 280.897 123.711 282.162 124.631 283.178C125.931 283.801 128.969 284.853 134.256 284.512C140.417 284.113 144.209 283.178 148.656 280.002C151.755 277.79 152.399 275.822 155.523 273.63C156.738 272.744 160.906 271.584 162.194 269.529C162.741 267.395 161.66 265.154 161.052 263.878C160.575 262.891 160.197 261.874 159.922 260.839C159.63 259.777 159.922 259.134 159.63 258.15C159.557 257.935 159.375 257.419 158.658 257.516L158.366 259.036C157.977 260.761 154.721 261.657 152.509 261.784C152.29 260.575 152.448 260.049 151.634 259.523C150.82 258.997 148.912 258.968 147.684 258.997C145.788 259.102 143.912 259.38 142.094 259.825C141.259 259.934 140.5 260.28 139.955 260.8C139.828 260.942 139.729 261.1 139.664 261.267Z" fill="black"/>
<path d="M124.108 283.46C121.593 280.596 122.225 277.751 126.636 275.52C131.048 273.289 138.995 273.854 142.167 275.179C145.339 276.504 147.575 278.394 146.834 281.2C146.834 281.2 142.179 284.658 133.296 285.097C130.091 285.387 126.858 284.811 124.108 283.46Z" fill="#FAFAFA"/>
<path d="M161.368 140.005C157.722 139.869 153.177 139.723 148.632 142.86C144.901 145.432 127.438 161.643 122.881 167.371C118.324 173.1 118.166 176.305 124.352 180.913C130.537 185.521 143.966 187.733 143.966 187.733L161.368 140.005Z" fill="#F28F8F"/>
<path d="M126.843 162.987L133.49 162.549V185.18C130.887 184.377 128.411 183.331 126.114 182.063C125.42 180.402 124.832 178.715 124.351 177.006C124.128 176.411 124.109 175.779 124.295 175.176C124.481 174.573 124.865 174.02 125.409 173.577C124.732 171.095 124.261 168.579 123.999 166.046C124.789 165.15 125.749 164.117 126.843 162.987Z" fill="#B16668"/>
<path d="M203.148 167.371C203.598 162.237 205.044 156.44 205.117 154.229C205.262 149.787 205.749 143.308 198.214 142.207C190.68 141.106 186.45 140.687 186.45 140.687C186.45 140.687 170.859 139.937 167.76 139.898C164.661 139.859 158.463 139.898 158.463 139.898C155.255 141.593 150.37 148.666 147.32 160.474C146.299 164.429 143.406 183.962 142.884 194.913C163.397 199.073 183.072 200.758 200.584 196.15C200.584 196.13 202.394 176.003 203.148 167.371Z" fill="#0095D9"/>
<path opacity="0.2" d="M203.148 167.371C203.598 162.237 205.044 156.44 205.117 154.229C205.262 149.787 205.749 143.308 198.214 142.207C190.68 141.106 186.45 140.687 186.45 140.687C186.45 140.687 170.859 139.937 167.76 139.898C164.661 139.859 158.463 139.898 158.463 139.898C155.255 141.593 150.37 148.666 147.32 160.474C146.299 164.429 143.406 183.962 142.884 194.913C163.397 199.073 183.072 200.758 200.584 196.15C200.584 196.13 202.394 176.003 203.148 167.371Z" fill="black"/>
<path d="M194.07 141.545C190.181 147.156 186.39 162.101 186.633 167.099C186.876 172.096 197.801 175.204 202.431 175.292C202.431 175.292 202.03 192.828 203.075 202.57C204.12 212.312 196.829 220.106 186.681 225.357C177.202 230.228 168.003 234.252 168.003 234.252C167.291 230.395 165.558 226.704 162.922 223.428C160.285 220.151 156.805 217.365 152.715 215.255C133.514 205.444 122.213 205.512 115.273 206.009C115.273 206.009 124.57 201.498 130.671 198.215C136.771 194.932 138.594 193.753 139.566 188.093C140.538 182.433 147.757 148.062 161.538 139.771H166.678C166.678 139.771 160.663 148.023 158.816 154.229C156.969 160.435 176.947 161.165 178.928 157.045C180.909 152.924 183.303 146.055 188.067 140.716L194.07 141.545Z" fill="#0095D9"/>
<path opacity="0.7" d="M194.07 141.545C190.181 147.156 186.39 162.101 186.633 167.099C186.876 172.096 197.801 175.204 202.431 175.292C202.431 175.292 202.03 192.828 203.075 202.57C204.12 212.312 196.829 220.106 186.681 225.357C177.202 230.228 168.003 234.252 168.003 234.252C167.291 230.395 165.558 226.704 162.922 223.428C160.285 220.151 156.805 217.365 152.715 215.255C133.514 205.444 122.213 205.512 115.273 206.009C115.273 206.009 124.57 201.498 130.671 198.215C136.771 194.932 138.594 193.753 139.566 188.093C140.538 182.433 147.757 148.062 161.538 139.771H166.678C166.678 139.771 160.663 148.023 158.816 154.229C156.969 160.435 176.947 161.165 178.928 157.045C180.909 152.924 183.303 146.055 188.067 140.716L194.07 141.545Z" fill="white"/>
<path d="M176.959 168.219C168.707 168.067 160.553 166.747 152.873 164.322C152.873 164.322 149.932 172.116 153.396 175.263C156.264 177.873 167.979 179.627 172.657 178.185C177.336 176.743 176.959 168.219 176.959 168.219Z" fill="#0095D9"/>
<path d="M197.862 127.506C192.077 132.845 183.279 134.004 174.991 134.326C172.986 134.394 168.38 134.754 166.484 134.326C166.484 134.326 162.96 130.429 161.623 129.143C157.977 125.596 156.981 124.33 154.866 118.826C153.481 115.24 154.781 110.476 156.264 106.95C157.746 103.423 159.91 101.708 163.021 99.156C169.947 93.3593 182.61 92.4728 190.971 94.4797C196.655 96.0112 201.47 99.1209 204.545 103.248C206.054 105.128 206.942 107.285 207.125 109.516C207.308 111.747 206.78 113.978 205.591 116C204.521 117.657 202.941 119.079 201.945 120.784C201.289 121.943 200.936 123.19 200.341 124.369C199.728 125.514 198.891 126.573 197.862 127.506Z" fill="#263238"/>
<path d="M205.943 117.491C206.192 119.185 206.286 120.891 206.223 122.596C206.298 124.365 205.933 126.128 205.149 127.783C204.364 129.437 203.176 130.949 201.653 132.231C198.299 135.017 193.572 135.914 188.917 135.885H187.799L187.253 140.97C181.65 148.043 163.409 147.01 166.326 140.337L166.654 123.58C166.654 123.58 164.819 125.675 161.015 124.554C158.512 123.814 154.793 120.307 156.823 116.595C157.314 115.835 158.126 115.238 159.114 114.912C160.101 114.586 161.201 114.55 162.218 114.812C164.467 115.309 165.755 117.735 168.489 117.403C171.029 117.121 171.248 115.202 172.013 113.877C173.35 111.568 173.739 110.282 176.109 108.519C177.569 107.575 179.304 106.945 181.152 106.687C183.101 106.354 185.128 106.465 187.003 107.007C188.878 107.55 190.526 108.502 191.761 109.756C195.942 103.316 202.698 105.352 204.351 109.532C205.797 113.039 205.639 115.27 205.943 117.491Z" fill="#F28F8F"/>
<path d="M184.943 117.335C184.929 117.704 184.78 118.061 184.516 118.363C184.251 118.664 183.883 118.897 183.455 119.033C183.027 119.169 182.559 119.201 182.109 119.127C181.659 119.052 181.245 118.873 180.92 118.612C180.595 118.351 180.372 118.02 180.278 117.659C180.185 117.298 180.226 116.923 180.395 116.58C180.564 116.237 180.855 115.942 181.231 115.729C181.608 115.517 182.053 115.398 182.513 115.387C183.158 115.387 183.776 115.592 184.232 115.957C184.687 116.323 184.943 116.818 184.943 117.335Z" fill="#263238"/>
<path d="M179.159 113.653L183.412 112.367C183.307 112.143 183.148 111.938 182.944 111.763C182.739 111.589 182.494 111.448 182.222 111.349C181.95 111.251 181.657 111.196 181.359 111.188C181.06 111.181 180.763 111.22 180.484 111.305C180.204 111.389 179.949 111.517 179.731 111.681C179.513 111.844 179.338 112.041 179.215 112.259C179.092 112.477 179.024 112.712 179.014 112.951C179.004 113.19 179.054 113.429 179.159 113.653Z" fill="#263238"/>
<path d="M198.129 111.451L202.37 112.893C202.508 112.667 202.587 112.421 202.603 112.17C202.619 111.919 202.571 111.669 202.462 111.433C202.352 111.197 202.185 110.982 201.968 110.8C201.752 110.618 201.492 110.474 201.204 110.375C200.915 110.276 200.605 110.226 200.292 110.226C199.978 110.227 199.668 110.279 199.381 110.379C199.093 110.478 198.834 110.624 198.618 110.807C198.403 110.989 198.237 111.205 198.129 111.441V111.451Z" fill="#263238"/>
<path d="M182.805 125.372L190.959 127.633C190.796 128.071 190.525 128.478 190.162 128.83C189.8 129.183 189.352 129.474 188.847 129.685C188.342 129.897 187.789 130.025 187.221 130.062C186.652 130.1 186.081 130.045 185.539 129.903C184.44 129.578 183.541 128.925 183.031 128.08C182.521 127.235 182.44 126.264 182.805 125.372Z" fill="#9A4A4D"/>
<path d="M182.975 127.438C183.468 127.228 184.021 127.124 184.58 127.136C185.138 127.148 185.683 127.275 186.162 127.505C186.641 127.736 187.038 128.061 187.314 128.45C187.591 128.84 187.737 129.279 187.739 129.727C187.014 129.883 186.249 129.863 185.539 129.669C184.919 129.49 184.362 129.194 183.915 128.806C183.469 128.417 183.146 127.948 182.975 127.438Z" fill="#F28F8F"/>
<path d="M201.471 116.302C201.459 116.674 201.311 117.034 201.046 117.339C200.781 117.644 200.411 117.88 199.98 118.017C199.55 118.155 199.079 118.189 198.625 118.114C198.171 118.039 197.754 117.859 197.426 117.596C197.099 117.334 196.874 117 196.781 116.636C196.688 116.272 196.729 115.894 196.901 115.549C197.073 115.204 197.367 114.907 197.747 114.694C198.128 114.482 198.577 114.364 199.04 114.354C199.685 114.354 200.303 114.559 200.759 114.925C201.215 115.29 201.471 115.786 201.471 116.302Z" fill="#263238"/>
<path d="M191.19 115.942L191.348 123.619L197.278 122.567C195.933 120.003 193.846 117.732 191.19 115.942Z" fill="#B16668"/>
<path d="M187.799 135.845C182.992 135.883 178.26 134.891 174.091 132.971C172.161 131.975 170.58 130.6 169.498 128.977C169.946 130.626 170.884 132.163 172.232 133.459C176.959 137.687 187.593 137.843 187.593 137.843L187.799 135.845Z" fill="#B16668"/>
<path d="M146.578 97.0613C146.369 97.9244 146.434 98.8158 146.768 99.6534C147.101 100.491 147.692 101.248 148.486 101.854C148.145 102.909 148.248 104.025 148.78 105.027C149.312 106.03 150.242 106.864 151.426 107.398C152.611 107.933 153.982 108.139 155.327 107.984C156.673 107.828 157.916 107.321 158.864 106.541C160.626 105.099 161.149 102.936 162.717 101.358C163.525 100.632 164.403 99.9576 165.341 99.341C166.167 98.8426 166.801 98.1681 167.17 97.3945C167.54 96.6209 167.631 95.7796 167.432 94.9667C167.199 94.1258 166.671 93.3557 165.911 92.7466C165.151 92.1375 164.191 91.7146 163.142 91.5277C162.334 91.3857 161.497 91.3817 160.687 91.516C159.877 91.6502 159.111 91.9198 158.439 92.3071C157.533 91.6386 156.397 91.2041 155.179 91.0599C153.961 90.9157 152.717 91.0685 151.609 91.4985C150.275 92.0341 149.122 92.8191 148.246 93.7873C147.371 94.7556 146.798 95.8785 146.578 97.0613Z" fill="#263238"/>
<path d="M200.681 86.9295C199.589 86.8667 198.494 87.0236 197.497 87.386C196.499 87.7484 195.63 88.3048 194.969 89.0046C193.625 88.862 192.259 89.0784 191.083 89.6205C189.906 90.1625 188.986 91 188.463 92.0035C187.94 93.007 187.844 94.1206 188.19 95.1722C188.536 96.2238 189.304 97.1548 190.376 97.8214C192.369 99.0586 195.103 99.2145 197.242 100.286C198.239 100.856 199.177 101.488 200.049 102.176C200.763 102.775 201.672 103.201 202.674 103.405C203.676 103.608 204.729 103.581 205.712 103.326C206.728 103.043 207.621 102.533 208.287 101.857C208.952 101.18 209.362 100.364 209.467 99.5068C209.553 98.8477 209.461 98.1817 209.199 97.5532C208.937 96.9248 208.511 96.3486 207.948 95.8632C208.671 95.0624 209.078 94.1064 209.117 93.1184C209.156 92.1304 208.825 91.1557 208.167 90.3198C207.348 89.3162 206.241 88.4845 204.938 87.8946C203.636 87.3047 202.176 86.9738 200.681 86.9295Z" fill="#263238"/>
<path d="M149.495 158.457C150.465 158.338 151.427 158.175 152.375 157.97C154.132 157.536 155.972 157.361 157.807 157.454C159.924 157.569 161.942 158.213 163.579 159.295C164.126 159.733 164.333 160.766 163.409 161.029C163.447 161.203 163.421 161.382 163.335 161.545C163.249 161.707 163.106 161.846 162.923 161.945C162.71 162.061 162.471 162.143 162.218 162.184C161.966 162.226 161.706 162.228 161.453 162.189C161.453 162.607 160.626 162.89 159.8 162.793C158.639 162.547 157.439 162.442 156.239 162.481C153.712 162.539 153.274 163.309 153.274 163.309" fill="#455A64"/>
<path d="M159.46 160.863C160.022 160.777 160.604 160.866 161.088 161.113C161.571 161.359 161.919 161.744 162.06 162.188C161.858 162.198 161.655 162.198 161.453 162.188C161.376 161.812 161.133 161.47 160.766 161.226C160.4 160.983 159.936 160.854 159.46 160.863Z" fill="#37474F"/>
<path d="M161.368 159.655C161.872 159.642 162.37 159.746 162.802 159.955C163.233 160.165 163.579 160.47 163.798 160.834C163.699 160.951 163.553 161.036 163.385 161.078C163.247 160.714 162.985 160.388 162.629 160.137C162.273 159.885 161.836 159.719 161.368 159.655Z" fill="#37474F"/>
<path d="M127.207 153.43L131.327 154.356L139.664 156.207L140.405 156.353L142.337 156.606C143.692 156.715 145.036 156.897 146.36 157.152H146.664C147.191 157.169 147.714 157.241 148.219 157.366C148.552 157.564 148.873 157.775 149.179 157.999L150.054 158.701C150.162 158.787 150.263 158.878 150.358 158.973L152.946 162.598C153.49 163.173 154.235 163.607 155.085 163.845C156.445 164.079 157.661 164.685 158.524 165.559C158.617 165.446 158.743 165.353 158.891 165.288C159.04 165.223 159.206 165.189 159.375 165.189C159.406 165.003 159.492 164.826 159.628 164.673C159.764 164.52 159.944 164.396 160.153 164.312C160.69 164.155 161.28 164.155 161.818 164.312C161.818 163.971 162.535 163.533 163.981 163.786C166.837 164.302 168.526 165.218 171.503 166.709C175.21 168.589 176.364 170.304 176.364 171.707C176.38 172.157 176.243 172.603 175.966 172.996C175.69 173.389 175.286 173.715 174.796 173.938C174.796 173.938 186.317 182.774 170.531 190.266C155.207 197.543 135.155 189.769 128.885 178.117C127.266 175.031 126.265 171.76 125.919 168.423C125.069 161.935 126.661 156.976 127.207 153.43Z" fill="#455A64"/>
<path d="M182.707 166.329C184.834 166.387 186.256 167.907 187.022 169.378C187.846 171.024 188.106 172.817 187.775 174.571C187.427 176.255 186.584 177.849 185.316 179.221C184.048 180.593 182.392 181.704 180.484 182.462C179.442 182.89 178.34 183.217 177.202 183.436C176.067 183.773 174.834 183.837 173.654 183.621C173.534 183.589 173.428 183.532 173.345 183.455C173.263 183.378 173.208 183.285 173.185 183.186C173.163 183.086 173.175 182.984 173.218 182.889C173.262 182.794 173.337 182.711 173.435 182.647C173.92 182.446 174.457 182.339 175.003 182.335C175.552 182.283 176.096 182.202 176.631 182.092C177.699 181.861 178.73 181.535 179.706 181.118C181.745 180.267 183.449 178.978 184.628 177.396C186.105 175.314 186.564 172.866 185.916 170.528C185.454 169.018 184.494 167.293 182.61 166.631C182.464 166.631 182.501 166.319 182.61 166.329H182.707Z" fill="#37474F"/>
<path d="M158.925 167.732C158.925 167.732 156.495 166.845 155.279 167.927C154.989 167.816 154.669 167.766 154.348 167.782C154.027 167.797 153.716 167.877 153.444 168.014C153.214 168.128 153.038 168.3 152.943 168.503C152.849 168.705 152.841 168.928 152.922 169.135C152.736 169.142 152.555 169.191 152.401 169.275C152.247 169.359 152.124 169.476 152.047 169.612C151.953 169.858 151.933 170.119 151.988 170.373C152.043 170.627 152.171 170.867 152.363 171.073C152.812 171.751 153.424 172.349 154.165 172.834C154.906 173.319 155.76 173.681 156.677 173.899C155.787 174.309 155.032 174.884 154.474 175.575C153.916 176.266 153.571 177.054 153.469 177.873C153.048 179.517 153.299 181.225 154.186 182.745C148.905 181.703 144.227 179.245 140.927 175.779C133.903 168.55 136.443 155.788 136.443 155.788L148.207 157.376C149.44 157.901 150.508 158.645 151.327 159.552C152.147 160.459 152.696 161.504 152.934 162.607C155.367 162.796 157.697 163.491 159.691 164.624C159.56 164.787 159.469 164.969 159.423 165.16C159.258 165.171 159.096 165.21 158.95 165.274C158.804 165.338 158.675 165.425 158.573 165.53C158.261 165.861 158.124 166.277 158.189 166.688C158.255 167.1 158.519 167.474 158.925 167.732Z" fill="#E0E0E0"/>
<path opacity="0.1" d="M141.523 164.302C143.661 164.211 145.783 164.649 147.599 165.559C148.219 165.949 148.596 166.972 147.709 167.332C147.769 167.504 147.769 167.686 147.709 167.858C147.649 168.029 147.531 168.185 147.368 168.307C146.969 168.585 146.451 168.728 145.922 168.706C145.922 169.125 145.205 169.495 144.354 169.485C143.151 169.293 141.912 169.293 140.709 169.485C139.573 169.687 138.532 170.143 137.707 170.801C136.995 169.039 136.511 167.224 136.261 165.384C137.909 164.749 139.697 164.381 141.523 164.302Z" fill="black"/>
<path d="M136.006 164.4C137.721 163.694 139.599 163.28 141.523 163.182C143.663 163.08 145.788 163.52 147.599 164.439C148.219 164.819 148.596 165.851 147.709 166.202C147.769 166.374 147.769 166.556 147.709 166.727C147.649 166.899 147.531 167.055 147.368 167.176C146.968 167.452 146.449 167.592 145.922 167.566C145.922 167.995 145.205 168.365 144.354 168.345C143.147 168.174 141.909 168.191 140.709 168.394C139.389 168.633 138.202 169.211 137.33 170.041L133.454 165.247C134.339 165.036 135.194 164.752 136.006 164.4Z" fill="#455A64"/>
<path d="M143.966 166.475C144.266 166.362 144.599 166.314 144.93 166.338C145.261 166.362 145.579 166.457 145.849 166.611C146.039 166.715 146.199 166.85 146.317 167.008C146.434 167.167 146.507 167.344 146.53 167.527C146.337 167.554 146.142 167.57 145.946 167.576C145.898 166.855 144.913 166.475 143.966 166.475Z" fill="#37474F"/>
<path d="M148.17 165.842C148.081 166 147.926 166.127 147.732 166.203C147.595 165.962 147.383 165.754 147.117 165.597C146.851 165.44 146.54 165.34 146.213 165.306C146.569 165.256 146.935 165.279 147.277 165.373C147.619 165.467 147.926 165.628 148.17 165.842Z" fill="#37474F"/>
<path opacity="0.1" d="M125.785 162.032C126.077 158.564 126.855 155.71 127.207 153.43L131.327 154.356L139.663 156.207L140.405 156.353L142.337 156.606C143.692 156.715 145.035 156.897 146.359 157.152H146.663C147.191 157.169 147.714 157.241 148.219 157.366C148.485 157.467 148.741 157.584 148.984 157.717C147.09 159.366 144.562 160.459 141.802 160.824C138.073 161.344 134.245 161.174 130.61 160.328C130.138 160.987 129.415 161.508 128.547 161.815C127.679 162.122 126.711 162.198 125.785 162.032Z" fill="black"/>
<path d="M135.301 140.171C135.702 138.973 137.561 138.456 140.539 138.408C142.884 138.408 145.132 138.943 148.596 137.696C152.059 136.449 154.915 137.005 155.887 139.82C156.859 142.636 156.033 146.055 152.241 147.254C150.163 147.769 147.971 147.926 145.811 147.713C143.651 147.499 141.573 146.921 139.712 146.016C136.48 144.224 135.301 140.171 135.301 140.171Z" fill="#37474F"/>
<path d="M145.582 138.943C145.497 138.764 145.436 138.578 145.399 138.388C146.505 138.275 147.582 138.029 148.596 137.657C152.059 136.401 154.915 136.966 155.887 139.781C156.209 140.733 156.312 141.723 156.191 142.704C155.507 143.033 154.746 143.245 153.955 143.327C153.639 143.377 153.313 143.365 153.004 143.292C152.695 143.219 152.413 143.087 152.181 142.909C151.67 142.412 151.865 141.613 151.33 141.135C150.795 140.658 149.665 140.785 148.766 140.756C148.075 140.727 147.409 140.541 146.846 140.22C146.282 139.899 145.844 139.456 145.582 138.943Z" fill="#E0E0E0"/>
<path d="M125.919 145.451C127.572 142.577 128.508 141.944 133.126 140.629C137.743 139.314 140.587 139.479 144.658 141.476C147.21 142.743 148.231 146.094 148.231 146.094C149.057 146.179 149.853 146.395 150.573 146.729C151.293 147.064 151.922 147.51 152.424 148.043C154.21 150.235 152.849 154.151 151.694 155.466C149.82 157.582 147.007 159.042 143.832 159.548C137.889 160.523 133.101 160.191 130.112 157.785C126.332 154.784 124.704 147.536 125.919 145.451Z" fill="#455A64"/>
<path d="M134.207 147.487C134.207 147.703 134.287 147.914 134.437 148.094C134.586 148.273 134.799 148.413 135.047 148.495C135.296 148.578 135.57 148.6 135.834 148.557C136.098 148.515 136.34 148.411 136.531 148.259C136.721 148.106 136.851 147.912 136.903 147.7C136.956 147.489 136.929 147.269 136.826 147.07C136.723 146.87 136.548 146.7 136.325 146.58C136.101 146.46 135.838 146.396 135.568 146.396C135.207 146.396 134.861 146.511 134.606 146.716C134.351 146.92 134.207 147.198 134.207 147.487Z" fill="#263238"/>
<path d="M143.856 145.451C143.856 145.667 143.936 145.878 144.086 146.057C144.235 146.237 144.448 146.377 144.697 146.459C144.945 146.542 145.219 146.564 145.483 146.521C145.747 146.479 145.989 146.375 146.18 146.223C146.37 146.07 146.5 145.876 146.552 145.664C146.605 145.452 146.578 145.233 146.475 145.034C146.372 144.834 146.197 144.664 145.974 144.544C145.75 144.424 145.487 144.36 145.217 144.36C144.856 144.36 144.51 144.475 144.255 144.68C144 144.884 143.856 145.162 143.856 145.451Z" fill="#263238"/>
<path d="M147.149 154.443C147.235 154.431 147.31 154.393 147.361 154.336C147.411 154.28 147.431 154.21 147.417 154.141L146.797 151.618C146.791 151.584 146.777 151.551 146.754 151.522C146.731 151.492 146.701 151.467 146.666 151.448C146.63 151.428 146.59 151.415 146.547 151.409C146.505 151.404 146.461 151.405 146.42 151.414C146.378 151.419 146.338 151.432 146.302 151.45C146.267 151.469 146.236 151.493 146.212 151.521C146.188 151.549 146.172 151.581 146.163 151.614C146.155 151.648 146.156 151.682 146.164 151.716L146.772 154.239C146.78 154.272 146.795 154.304 146.818 154.333C146.841 154.362 146.871 154.386 146.907 154.405C146.942 154.424 146.981 154.438 147.023 154.444C147.065 154.451 147.108 154.45 147.149 154.443Z" fill="#263238"/>
<path d="M145.205 148.666C146.858 148.257 148.158 148.325 148.462 148.822C148.61 149.265 148.618 149.73 148.484 150.176C148.35 150.622 148.08 151.034 147.696 151.374C147.404 151.582 147.06 151.738 146.687 151.832C146.315 151.926 145.921 151.956 145.533 151.92C144.597 151.842 143.103 151.355 142.811 150.556C142.519 149.757 143.419 149.095 145.205 148.666Z" fill="#263238"/>
<path d="M147.794 148.764C148.015 148.868 148.179 149.034 148.256 149.231C148.332 149.427 148.315 149.639 148.207 149.825C148.012 150.098 147.684 149.085 146.785 149.085C145.751 149.169 144.754 149.439 143.868 149.874C143.309 150.166 143.285 149.631 144.403 149.182C144.897 148.921 145.456 148.748 146.041 148.676C146.626 148.603 147.224 148.633 147.794 148.764Z" fill="#37474F"/>
<path d="M145.156 154.687C145.355 154.696 145.553 154.696 145.752 154.687C146.338 154.684 146.918 154.587 147.456 154.401C147.995 154.216 148.482 153.945 148.887 153.606C148.939 153.551 148.961 153.483 148.95 153.415C148.938 153.348 148.894 153.286 148.826 153.245C148.759 153.204 148.673 153.186 148.589 153.195C148.505 153.204 148.428 153.24 148.377 153.294C147.65 153.845 146.692 154.158 145.691 154.171C145.046 154.24 144.39 154.203 143.763 154.063C143.136 153.922 142.552 153.68 142.045 153.352C141.981 153.304 141.895 153.279 141.808 153.282C141.72 153.285 141.637 153.315 141.577 153.367C141.518 153.419 141.486 153.487 141.49 153.557C141.493 153.628 141.531 153.694 141.596 153.742C142.596 154.399 143.864 154.736 145.156 154.687Z" fill="#263238"/>
<path d="M128.568 142.344C126.745 142.519 123.112 143.211 121.994 144.604C120.876 145.997 117.315 150.644 118.348 154.999C118.654 156.599 119.684 158.052 121.242 159.082C122.8 160.112 124.776 160.645 126.794 160.581C129.771 160.337 131.594 159.237 130.099 155.807C128.605 152.378 127.511 147.546 128.593 145.237C129.565 143.094 130.598 142.119 128.568 142.344Z" fill="#37474F"/>
<path d="M119.685 148.043C120.445 148.927 121.474 149.641 122.674 150.118C123.243 150.299 123.781 150.534 124.279 150.819C124.527 150.963 124.717 151.164 124.823 151.394C124.929 151.625 124.947 151.876 124.874 152.115C124.631 152.7 123.768 152.904 123.039 153.089C122.31 153.274 121.447 153.606 121.435 154.219C121.435 154.658 121.885 155.028 121.921 155.466C121.913 155.624 121.863 155.779 121.776 155.921C121.689 156.062 121.566 156.188 121.416 156.29C121.265 156.391 121.089 156.467 120.9 156.511C120.711 156.556 120.512 156.568 120.317 156.548C119.572 156.449 118.904 156.12 118.458 155.632C118.397 155.437 118.336 155.233 118.287 155.018C117.908 152.634 118.393 150.212 119.685 148.043Z" fill="#E0E0E0"/>
<path d="M158.925 167.732C163.786 169.446 168.489 171.356 169.376 173.577C169.541 173.834 169.633 174.116 169.645 174.404C169.657 174.693 169.589 174.98 169.446 175.244C169.303 175.509 169.089 175.745 168.818 175.935C168.548 176.125 168.228 176.265 167.882 176.344C167.882 176.344 170.312 176.246 170.312 174.454C170.312 172.661 168.295 169.934 158.925 167.732Z" fill="#37474F"/>
<path d="M155.352 169.631C154.806 169.583 153.797 169.281 153.712 168.745C153.712 168.375 154.052 168.307 154.441 168.307C154.972 168.318 155.485 168.468 155.899 168.735C156.531 169.183 156.142 169.719 155.352 169.631Z" fill="#37474F"/>
<path d="M154.477 170.958C153.931 170.958 152.873 170.831 152.667 170.314C152.533 169.963 152.91 169.836 153.286 169.787C153.811 169.72 154.349 169.792 154.818 169.992C155.535 170.373 155.267 170.919 154.477 170.958Z" fill="#37474F"/>
<path d="M157.832 168.951C157.321 168.951 156.361 168.736 156.228 168.258C156.094 167.78 156.495 167.829 156.835 167.8C157.328 167.772 157.819 167.875 158.233 168.093C158.865 168.424 158.561 168.97 157.832 168.951Z" fill="#37474F"/>
<path d="M157.358 169.885C157.941 169.456 158.792 169.057 161.344 169.641C163.896 170.226 164.795 171.181 164.175 171.59C163.276 172.213 161.745 171.229 162.134 172.691C162.328 173.519 160.918 174.132 158.646 172.691C156.373 171.249 156.726 170.372 157.358 169.885Z" fill="#37474F"/>
<path d="M162.17 166.046C161.623 165.988 160.614 165.696 160.541 165.16C160.481 164.79 160.87 164.721 161.258 164.721C161.79 164.733 162.302 164.883 162.717 165.15C163.349 165.588 162.96 166.124 162.17 166.046Z" fill="#37474F"/>
<path d="M161.307 167.372C160.748 167.372 159.691 167.246 159.497 166.729C159.351 166.378 159.727 166.251 160.104 166.202C160.629 166.134 161.167 166.206 161.635 166.407C162.377 166.748 162.085 167.333 161.307 167.372Z" fill="#37474F"/>
<path d="M164.661 165.365C164.138 165.365 163.178 165.151 163.045 164.673C162.911 164.195 163.312 164.244 163.664 164.215C164.154 164.188 164.64 164.291 165.05 164.507C165.682 164.858 165.39 165.385 164.661 165.365Z" fill="#37474F"/>
<path d="M164.187 166.3C164.759 165.861 165.609 165.472 168.161 166.056C170.713 166.641 171.613 167.595 170.993 168.005C170.094 168.628 168.562 167.644 168.951 169.105C169.146 169.934 167.736 170.547 165.464 169.105C163.191 167.664 163.592 166.787 164.187 166.3Z" fill="#37474F"/>
<path opacity="0.1" d="M127.134 173.967C127.96 173.84 128.41 174.162 129.297 174.697C130.184 175.233 131.242 175.896 131.995 176.393C133.472 177.375 135.133 178.164 136.917 178.731C138.306 179.172 139.76 179.47 141.243 179.617C142.717 179.808 144.213 179.864 145.703 179.783C146.033 179.788 146.359 179.732 146.658 179.621C146.957 179.509 147.221 179.345 147.429 179.14C147.555 178.894 147.614 178.629 147.601 178.364C147.589 178.098 147.505 177.838 147.356 177.601C146.867 176.622 146.485 175.612 146.213 174.581C146.019 173.694 145.91 171.843 146.93 171.219C147.14 171.117 147.383 171.068 147.628 171.078C147.873 171.088 148.109 171.158 148.304 171.278C148.773 171.647 149.181 172.063 149.519 172.515C150.745 173.754 151.869 175.056 152.885 176.412C153.336 175.445 154.13 174.605 155.17 173.996C152.107 172.194 152.302 171.073 152.302 171.073C153.967 173.022 157.831 173.918 157.831 173.918C156.779 174.335 155.886 174.971 155.245 175.759C154.603 176.548 154.238 177.459 154.185 178.399C154.7 179.321 155.349 180.191 156.118 180.991C157.604 182.36 159.535 183.372 161.696 183.914C163.215 184.333 170.603 184.888 177.287 185.336C175.556 187.391 173.229 189.079 170.506 190.256C155.182 197.533 135.13 189.759 128.86 178.107C128.141 176.767 127.544 175.386 127.073 173.976L127.134 173.967Z" fill="black"/>
<path d="M141.012 191.181C138.001 190.049 135.177 188.622 132.603 186.934C131.29 186.208 130.132 185.317 129.176 184.294C128.228 183.21 127.414 182.055 126.745 180.845C125.884 179.301 125.508 177.612 125.652 175.925C125.652 175.418 125.943 174.805 126.575 174.717C127.414 174.59 127.924 175.467 128.398 175.876C129.042 176.464 129.736 177.014 130.476 177.523C131.954 178.502 133.615 179.287 135.398 179.851C136.787 180.292 138.241 180.59 139.724 180.738C141.198 180.929 142.694 180.985 144.184 180.903C144.511 180.909 144.835 180.855 145.132 180.745C145.429 180.636 145.691 180.473 145.898 180.27C146.024 180.024 146.083 179.76 146.07 179.494C146.058 179.228 145.974 178.968 145.825 178.731C145.343 177.747 144.961 176.734 144.682 175.701C144.5 174.824 144.391 172.973 145.412 172.34C145.621 172.241 145.862 172.194 146.105 172.207C146.348 172.219 146.58 172.289 146.773 172.408C147.244 172.772 147.652 173.185 147.988 173.636C149.339 174.963 150.558 176.373 151.634 177.854C152.458 179.343 153.45 180.768 154.599 182.111C156.021 183.514 158.245 184.216 162.583 184.333C167.833 184.469 183.825 182.735 189.561 181.546L192.101 160.63C192.101 160.63 194.532 145.48 199.393 142.48C208.361 142.87 212.007 147.205 212.76 151.959C213.514 156.713 209.346 182.725 206.684 189.165C204.023 195.604 201.045 195.79 191.129 196.783C182.841 197.592 159.46 197.65 141.012 191.181Z" fill="#F28F8F"/>
<path d="M306.894 189.291C305.217 186.31 304.645 182.92 305.217 180.971C306.067 178.107 309.737 159.139 309.737 159.139C309.737 159.139 302.871 150.147 302.045 145.373C301.218 140.599 301.401 137.287 304.293 128.88L292.141 126.931C285.507 125.402 278.65 124.58 271.749 124.486L263.91 124.135C263.91 124.135 245.682 137.94 242.947 144.087C241.197 148.101 238.998 155.417 246.338 164.312C246.447 169.066 246.338 177.795 246.046 181.575C245.755 185.355 241.72 195.039 241.027 198.517C243.701 203.457 255.61 212.156 283.743 210.734C306.213 209.604 312.909 201.635 312.909 201.635C311.217 197.426 309.209 193.304 306.894 189.291Z" fill="#0095D9"/>
<path opacity="0.1" d="M265.927 164.78C265.927 164.78 271.542 170.216 283.342 168.472C295.142 166.728 297.317 159.539 297.317 159.539C297.317 159.539 298.217 168.745 284.108 170.781C270.217 172.788 265.927 164.78 265.927 164.78Z" fill="black"/>
<path d="M279.563 107.193C276.622 105.177 273.803 102.761 270.546 101.085C266.268 98.8833 259.912 101.085 255.464 101.855C251.722 102.507 247.638 102.829 244.199 101.416C240.76 100.004 238.415 96.5451 240.079 93.7978C238.237 93.5233 236.545 92.8002 235.233 91.727C233.922 90.6538 233.055 89.2826 232.751 87.8002C232.447 86.3178 232.72 84.7962 233.533 83.4428C234.347 82.0893 235.661 80.9697 237.297 80.2366C235.622 79.2006 234.476 77.7111 234.072 76.0466C233.668 74.3821 234.034 72.6567 235.102 71.1929C236.169 69.7292 237.866 68.6274 239.873 68.0936C241.881 67.5598 244.063 67.6305 246.01 68.2926C245.67 66.863 245.813 65.3867 246.424 64.0164C247.035 62.6461 248.092 61.4316 249.485 60.4988C253.277 58.0145 258.709 58.2385 263.011 59.6804C265.284 60.45 267.228 61.6289 269.537 62.379C274.337 63.8696 279.526 63.2558 284.448 64.4833C289.181 65.6583 293.516 67.6842 297.123 70.4066C303.09 74.9465 307.477 81.8538 307.866 88.4395C308.359 93.628 306.835 98.8115 303.503 103.277C300.137 107.583 295.47 110.097 292.347 114.422C288.519 111.821 283.403 109.814 279.563 107.193Z" fill="#263238"/>
<path d="M301.741 92.5993C299.529 90.6508 295.58 90.1345 293.429 92.4531C292.748 93.1936 292.299 94.0411 291.715 94.8205C291.185 95.6329 290.329 96.2783 289.285 96.6521C288.651 96.8265 287.959 96.8092 287.34 96.6033C287.039 96.5193 286.782 96.3563 286.61 96.1407C286.438 95.9251 286.361 95.6694 286.393 95.4148C286.32 94.236 286.538 93.0182 286.393 91.8394C280.195 90.1053 280.316 88.264 279.478 83.8897C275.115 80.1487 267.581 79.6226 261.079 83.2467C257.057 77.0994 252.755 77.8982 250.895 79.8174C249.53 82.074 248.608 84.486 248.161 86.9682C247.279 90.6812 246.953 94.4652 247.189 98.24C248.088 112.853 254.14 116.38 257.154 117.354C260.168 118.329 263.813 117.598 269.306 116.741L269.367 125.509C263.716 134.277 259.195 147.624 259.463 156.294C268.212 142.86 281.981 135.631 288.471 130.74C289.962 129.65 291.28 128.416 292.396 127.067L292.25 102.848C294.158 104.641 297.488 104.573 300.331 102.702C303.746 100.49 305.144 95.6583 301.741 92.5993Z" fill="#B16668"/>
<path d="M269.318 116.79C274.07 115.815 279.21 114.305 282.686 112.104C285.037 110.569 286.819 108.547 287.839 106.258C287.839 106.258 287.462 111.909 283.938 114.471C280.413 117.033 269.355 120.014 269.355 120.014L269.318 116.79Z" fill="#9A4A4D"/>
<path d="M268.455 96.3308C268.412 96.726 268.515 97.1227 268.75 97.4717C268.986 97.8206 269.344 98.1065 269.78 98.2938C270.216 98.4811 270.712 98.5616 271.204 98.5253C271.697 98.4891 272.166 98.3376 272.552 98.0898C272.939 97.8419 273.226 97.5086 273.378 97.1311C273.531 96.7536 273.541 96.3486 273.409 95.9662C273.277 95.5839 273.008 95.2411 272.635 94.9803C272.262 94.7195 271.802 94.5522 271.311 94.4992C270.631 94.4442 269.951 94.6052 269.417 94.9477C268.883 95.2901 268.538 95.7866 268.455 96.3308Z" fill="#263238"/>
<path d="M250.482 94.6064C250.433 94.8497 250.446 95.0983 250.518 95.3376C250.591 95.577 250.722 95.8025 250.904 96.001C251.086 96.1994 251.315 96.367 251.578 96.4938C251.842 96.6207 252.134 96.7044 252.438 96.74C252.747 96.7846 253.065 96.7759 253.37 96.7144C253.675 96.6528 253.959 96.54 254.206 96.3833C254.452 96.2266 254.653 96.0296 254.797 95.8055C254.941 95.5815 255.023 95.3354 255.039 95.0838C255.078 94.8439 255.058 94.6002 254.979 94.3666C254.901 94.133 254.766 93.914 254.582 93.7223C254.398 93.5305 254.169 93.3696 253.907 93.2488C253.646 93.1281 253.357 93.0498 253.058 93.0185C252.759 92.9871 252.455 93.0033 252.163 93.0662C251.872 93.129 251.599 93.2372 251.359 93.3847C251.12 93.5322 250.92 93.7159 250.769 93.9256C250.618 94.1352 250.521 94.3666 250.482 94.6064Z" fill="#263238"/>
<path d="M263.12 92.0151L261.395 104.232L253.569 101.874L263.12 92.0151Z" fill="#9A4A4D"/>
<path d="M269.768 90.1638L275.491 92.2389C275.825 91.6119 275.843 90.9059 275.541 90.2685C275.24 89.6312 274.643 89.1119 273.875 88.8194C273.496 88.6844 273.088 88.6122 272.673 88.6071C272.259 88.602 271.848 88.6641 271.464 88.7897C271.08 88.9153 270.732 89.1017 270.441 89.3379C270.149 89.574 269.92 89.8549 269.768 90.1638Z" fill="#263238"/>
<path d="M271.748 105.722L263.521 108.002C263.933 108.885 264.755 109.606 265.815 110.015C266.875 110.423 268.091 110.488 269.209 110.194C269.748 110.041 270.244 109.803 270.666 109.493C271.088 109.184 271.428 108.809 271.665 108.391C271.902 107.974 272.032 107.522 272.046 107.064C272.06 106.605 271.959 106.149 271.748 105.722Z" fill="#9A4A4D"/>
<path d="M271.53 107.262C270.506 107.306 269.537 107.644 268.8 108.215C268.064 108.786 267.609 109.551 267.519 110.369C268.613 110.434 269.694 110.148 270.526 109.575C271.357 109.001 271.871 108.187 271.955 107.31C271.748 107.31 271.676 107.252 271.53 107.262Z" fill="#F28F8F"/>
<path d="M249.728 90.7776L255.501 88.7123C255.352 88.4032 255.127 88.1217 254.838 87.8849C254.549 87.6482 254.202 87.4612 253.82 87.3353C253.438 87.2095 253.028 87.1475 252.615 87.1531C252.202 87.1586 251.794 87.2317 251.418 87.3678C250.644 87.6536 250.037 88.1671 249.722 88.8019C249.408 89.4367 249.41 90.1441 249.728 90.7776Z" fill="#263238"/>
<path d="M295.884 116.624C297.963 116.629 299.987 116.085 301.644 115.077C303.3 114.069 304.497 112.652 305.05 111.045C305.602 109.437 305.48 107.729 304.702 106.182C303.924 104.636 302.534 103.338 300.745 102.488C300.383 102.741 300.006 102.978 299.614 103.199C301.399 103.927 302.788 105.155 303.518 106.65C304.247 108.145 304.266 109.802 303.571 111.308C302.876 112.813 301.515 114.061 299.747 114.815C297.979 115.569 295.927 115.775 293.982 115.396C292.036 115.016 290.332 114.077 289.194 112.756C288.056 111.436 287.562 109.826 287.807 108.233C288.053 106.64 289.019 105.174 290.524 104.115C292.029 103.056 293.966 102.477 295.969 102.488C296.143 102.488 296.31 102.433 296.433 102.334C296.556 102.235 296.625 102.101 296.625 101.962C296.625 101.821 296.556 101.687 296.433 101.586C296.311 101.486 296.144 101.429 295.969 101.426C293.455 101.426 291.044 102.227 289.266 103.652C287.488 105.077 286.49 107.01 286.49 109.025C286.49 111.04 287.488 112.973 289.266 114.398C291.044 115.823 293.455 116.624 295.969 116.624H295.884Z" fill="#0095D9"/>
<path d="M282.042 234.33C281.787 237.554 280.62 245.865 282.455 251.642C284.509 258.111 282.662 266.508 267.653 269.655C251.065 273.133 241.55 266.528 233.432 264.453C225.022 262.3 227.198 256.795 233.845 257.633C241.854 258.656 254.358 266.177 266.073 263.264C277.011 260.527 275.078 254.155 273.997 250.599C273.244 248.088 273.022 245.493 273.341 242.922L282.042 234.33Z" fill="#E0E0E0"/>
<path d="M220.963 176.091C223.309 173.83 229.47 172.028 232.703 174.21C234.55 175.448 230.503 181.42 230.503 181.42C230.503 181.42 223.418 179.588 220.963 176.091Z" fill="#E0E0E0"/>
<path d="M211.412 198.118C212.019 197.806 212.104 200.066 212.092 200.164C211.874 201.089 211.463 201.978 210.877 202.794C209.796 204.781 209.261 206.93 209.309 209.097C209.356 212.04 210.829 214.853 213.417 216.94C216.722 219.473 221.474 220.32 226.007 220.837C229.006 221.087 231.981 221.494 234.914 222.055C236.387 222.284 237.793 222.733 239.058 223.38C239.992 224.132 240.677 225.06 241.051 226.078C242.024 228.124 242.583 232.05 248.963 232.82C255.343 233.589 263.035 226.156 263.035 226.156C263.035 226.156 264.919 213.589 252.706 205.697C240.492 197.806 224.755 191.133 211.412 198.118Z" fill="#FAFAFA"/>
<path d="M209.869 205.132C208.027 205.438 206.31 206.108 204.874 207.081C203.469 208.086 202.364 209.331 201.641 210.724C201.022 212.183 200.802 213.731 200.997 215.264C201.087 216.571 201.548 217.844 202.346 218.986C203.314 220.277 204.728 221.316 206.417 221.977C208.103 222.638 209.96 222.972 211.837 222.951C212.559 222.963 213.277 222.863 213.952 222.659C214.287 222.551 214.59 222.387 214.841 222.179C215.092 221.971 215.286 221.723 215.41 221.451C215.663 221.367 215.911 221.273 216.151 221.168C216.373 221.006 216.54 220.801 216.637 220.574C216.844 220.028 216.467 219.755 216.309 219.298C216.537 219.079 216.684 218.813 216.733 218.531C216.783 218.248 216.733 217.961 216.589 217.7C216.139 216.599 212.943 216.073 210.586 213.754C209.215 211.013 208.964 207.995 209.869 205.132Z" fill="#E0E0E0"/>
<path d="M211.217 175.642C209.516 173.548 204.558 171.522 201.495 173.1C199.782 173.996 202.966 180.124 202.966 180.124C202.966 180.124 208.689 178.4 211.217 175.642Z" fill="#E0E0E0"/>
<path d="M208.775 177.396C205.955 178.838 202.978 180.124 202.978 180.124C202.978 180.124 199.794 173.996 201.507 173.1C202.674 172.691 206.125 173.519 208.775 177.396Z" fill="#FFA8A7"/>
<path d="M203.695 179.14C203.511 178.873 203.272 178.633 202.99 178.429C202.82 178.039 202.613 177.591 202.431 177.104C203.291 176.79 204.221 176.617 205.165 176.597C205.13 176.087 204.861 175.605 204.412 175.243C205.171 175.177 205.934 175.34 206.552 175.7C207.17 176.06 207.598 176.592 207.754 177.192C207.475 177.73 207.061 178.218 206.538 178.624C205.919 178.877 205.323 179.082 204.898 179.247C204.492 179.278 204.082 179.242 203.695 179.14Z" fill="#F28F8F"/>
<path d="M207.523 177.084C207.228 176.623 206.764 176.245 206.192 176.003C205.62 175.76 204.969 175.665 204.327 175.73C204.777 176.092 205.045 176.574 205.08 177.084C205.08 177.084 202.006 177.084 201.337 178.419C201.828 178.443 202.301 178.572 202.707 178.793C203.113 179.015 203.438 179.319 203.646 179.676C206.405 180.329 207.523 177.084 207.523 177.084Z" fill="#F5F5F5"/>
<path d="M259.754 247.034C255.756 248.281 248.817 250.931 246.387 251.466C243.956 252.002 239.788 251.583 235.449 251.233C231.111 250.882 228.292 250.755 226.019 250.629C221.79 250.414 221.158 247.092 225.788 245.874C228.627 245.23 231.581 244.973 234.526 245.114L259.754 247.034Z" fill="#E0E0E0"/>
<path d="M220.429 175.155C217.07 174.607 213.6 174.68 210.281 175.37C207.635 175.923 205.31 177.198 203.707 178.974C202.367 180.785 201.406 182.76 200.863 184.82C199.648 188.463 199.296 192.234 202.893 195.127C204.851 196.633 207.335 197.625 210.014 197.972C212.461 198.238 214.945 198.202 217.378 197.865C219.384 197.65 221.194 197.592 222.859 198.722C224.138 199.682 225.063 200.905 225.533 202.258C226.821 205.395 227.04 209.078 224.816 212.001C221.583 216.19 217.439 218.314 209.893 220.262C202.346 222.21 193.778 225.299 190.777 227.413C187.982 229.361 187.131 231.086 188.2 232.225C188.2 232.225 188.14 234.31 191.239 233.852C191.488 234.278 191.905 234.627 192.425 234.845C192.945 235.064 193.54 235.139 194.119 235.06C196.428 234.593 198.032 232.82 200.134 231.514C202.614 230.044 205.564 229.169 208.641 228.991C212.031 228.777 226.14 227.169 232.362 222.892C238.585 218.616 240.626 215.03 245.305 213.822C249.984 212.614 256.035 216.414 257.457 218.401C258.879 220.389 259.572 224.675 258.551 226.478C254.71 227.053 251.05 228.235 247.784 229.956C242.303 232.82 240.954 236.717 237.88 237.545C234.805 238.373 232.314 237.028 225.047 237.779C217.78 238.529 215.92 239.99 215.009 241.276C214.097 242.562 215.07 244.374 218.448 244.355C221.826 244.335 227.295 243.79 230.442 244.218C233.59 244.647 239.508 246.732 242.036 246.868C245.232 247.034 265.125 249.684 275.224 241.549C279.193 238.503 282.221 234.757 284.067 230.608C285.913 226.46 286.526 222.023 285.858 217.651C284.922 210.832 273.814 200.816 264.87 197.767C259.657 195.994 254.31 194.503 249.072 192.896C246.192 192.019 243.312 191.133 240.492 190.139C238.742 189.515 236.227 188.843 234.914 187.664C232.484 185.472 231.354 182.618 229.324 180.212C227.306 177.652 224.109 175.835 220.429 175.155Z" fill="#F0F0F0"/>
<path d="M223.503 178.409C225.616 179.712 227.98 180.729 230.503 181.42C230.503 181.42 234.55 175.448 232.703 174.21C231.414 173.597 227.246 174.181 223.503 178.409Z" fill="#FFA8A7"/>
<path d="M229.13 177.562C229.256 176.972 229.65 176.441 230.236 176.071C229.359 175.882 228.427 175.951 227.609 176.265C226.791 176.58 226.14 177.119 225.776 177.786C225.776 177.786 225.982 181.488 229.3 181.03C229.538 180.725 229.854 180.463 230.227 180.261C230.599 180.06 231.021 179.924 231.463 179.861C231.706 179.442 231.974 178.955 232.217 178.458C231.274 177.994 230.224 177.689 229.13 177.562Z" fill="#F28F8F"/>
<path d="M214.632 192.828C215.233 192.81 215.813 192.647 216.297 192.36C216.33 192.338 216.358 192.312 216.379 192.281C216.399 192.251 216.412 192.218 216.417 192.183C216.421 192.149 216.417 192.114 216.405 192.081C216.393 192.048 216.373 192.017 216.346 191.99C216.318 191.963 216.285 191.941 216.247 191.924C216.209 191.908 216.168 191.897 216.125 191.894C216.082 191.89 216.038 191.893 215.997 191.903C215.956 191.913 215.917 191.929 215.884 191.951C215.468 192.201 214.956 192.325 214.438 192.302C213.98 192.239 213.571 192.036 213.295 191.737V189.856C213.295 189.787 213.261 189.72 213.199 189.67C213.138 189.621 213.054 189.593 212.967 189.593C212.88 189.593 212.797 189.621 212.735 189.67C212.674 189.72 212.639 189.787 212.639 189.856V191.805C212.639 191.865 212.665 191.924 212.712 191.97C212.901 192.192 213.146 192.381 213.43 192.523C213.715 192.666 214.033 192.759 214.365 192.799L214.632 192.828Z" fill="#455A64"/>
<path d="M211.278 192.779H211.545C211.877 192.74 212.195 192.646 212.48 192.504C212.764 192.361 213.009 192.173 213.198 191.951C213.251 191.895 213.275 191.825 213.263 191.756C213.252 191.686 213.207 191.623 213.137 191.581C213.068 191.538 212.98 191.519 212.894 191.529C212.807 191.538 212.729 191.574 212.675 191.63C212.536 191.795 212.357 191.936 212.148 192.045C211.939 192.154 211.705 192.228 211.46 192.263C210.942 192.285 210.43 192.161 210.014 191.912C209.953 191.866 209.873 191.841 209.789 191.841C209.706 191.841 209.625 191.866 209.564 191.912C209.533 191.936 209.508 191.964 209.49 191.996C209.473 192.028 209.464 192.062 209.464 192.097C209.464 192.132 209.473 192.166 209.49 192.198C209.508 192.23 209.533 192.259 209.564 192.282C210.056 192.588 210.656 192.762 211.278 192.779Z" fill="#455A64"/>
<path d="M212.919 187.772C210.731 187.772 210.488 188.278 210.731 188.892C211.207 189.561 211.979 190.061 212.894 190.295C213.417 190.353 215.325 189.515 215.422 188.843C215.519 188.171 214.985 187.801 212.919 187.772Z" fill="#F28F8F"/>
<path d="M221.595 184.888C221.544 185.164 221.394 185.423 221.162 185.631C220.93 185.84 220.627 185.989 220.29 186.062C219.953 186.134 219.597 186.125 219.267 186.038C218.936 185.95 218.644 185.786 218.428 185.567C218.211 185.348 218.08 185.083 218.049 184.805C218.018 184.526 218.09 184.247 218.255 184.001C218.419 183.754 218.671 183.552 218.977 183.419C219.284 183.286 219.632 183.228 219.979 183.251C220.464 183.298 220.905 183.496 221.208 183.802C221.511 184.109 221.65 184.499 221.595 184.888Z" fill="#455A64"/>
<path d="M206.125 184.128C206.12 184.407 206.215 184.681 206.401 184.917C206.587 185.152 206.855 185.339 207.171 185.455C207.488 185.57 207.84 185.609 208.183 185.567C208.527 185.524 208.848 185.403 209.107 185.216C209.365 185.029 209.55 184.786 209.639 184.517C209.728 184.247 209.716 183.963 209.606 183.698C209.496 183.434 209.292 183.201 209.019 183.028C208.746 182.855 208.416 182.75 208.07 182.725C207.581 182.709 207.104 182.847 206.741 183.109C206.378 183.371 206.157 183.737 206.125 184.128Z" fill="#455A64"/>
<path d="M221.34 188.814C221.311 188.785 221.289 188.751 221.277 188.715C221.264 188.679 221.26 188.641 221.266 188.604C221.272 188.567 221.287 188.531 221.31 188.499C221.333 188.466 221.364 188.438 221.401 188.415C222.342 187.668 223.548 187.174 224.853 186.999C226.159 186.825 227.5 186.979 228.692 187.44C228.761 187.481 228.81 187.54 228.83 187.606C228.85 187.673 228.841 187.743 228.803 187.804C228.765 187.866 228.702 187.915 228.624 187.943C228.546 187.97 228.458 187.975 228.376 187.957C227.309 187.553 226.114 187.419 224.95 187.574C223.786 187.729 222.709 188.165 221.863 188.824C221.831 188.856 221.791 188.881 221.745 188.898C221.699 188.915 221.649 188.924 221.598 188.923C221.548 188.922 221.498 188.912 221.453 188.893C221.408 188.874 221.37 188.847 221.34 188.814Z" fill="#455A64"/>
<path d="M221.923 189.575C221.893 189.553 221.868 189.527 221.85 189.497C221.813 189.427 221.811 189.348 221.846 189.277C221.88 189.206 221.947 189.148 222.033 189.116C222.815 188.85 223.659 188.721 224.508 188.74C225.357 188.758 226.192 188.923 226.954 189.224C226.993 189.243 227.027 189.268 227.053 189.297C227.08 189.327 227.099 189.36 227.109 189.395C227.119 189.431 227.12 189.467 227.113 189.503C227.105 189.539 227.088 189.573 227.064 189.604C227.045 189.637 227.017 189.667 226.983 189.691C226.949 189.715 226.909 189.733 226.865 189.744C226.822 189.755 226.776 189.759 226.731 189.755C226.685 189.751 226.642 189.739 226.602 189.721C225.935 189.466 225.209 189.325 224.47 189.308C223.731 189.291 222.996 189.399 222.312 189.623C222.25 189.652 222.178 189.662 222.107 189.654C222.037 189.645 221.972 189.617 221.923 189.575Z" fill="#455A64"/>
<path d="M221.17 190.655C221.119 190.612 221.085 190.558 221.073 190.499C221.062 190.425 221.085 190.35 221.139 190.289C221.193 190.228 221.273 190.185 221.365 190.168C222.469 190.051 223.592 190.15 224.637 190.457C225.683 190.764 226.62 191.27 227.368 191.932C227.429 191.987 227.462 192.058 227.462 192.131C227.462 192.205 227.429 192.276 227.368 192.331C227.336 192.357 227.298 192.377 227.257 192.392C227.215 192.406 227.17 192.413 227.125 192.413C227.08 192.413 227.035 192.406 226.993 192.392C226.951 192.377 226.913 192.357 226.882 192.331C226.21 191.735 225.369 191.278 224.429 191C223.489 190.722 222.48 190.63 221.486 190.733C221.43 190.743 221.371 190.741 221.316 190.727C221.26 190.713 221.21 190.689 221.17 190.655Z" fill="#455A64"/>
<path d="M205.846 188.541C205.908 188.484 205.942 188.412 205.942 188.337C205.942 188.261 205.908 188.189 205.846 188.132C205.038 187.304 203.933 186.694 202.679 186.384C201.426 186.074 200.084 186.079 198.834 186.398C198.79 186.41 198.75 186.429 198.715 186.454C198.68 186.478 198.652 186.508 198.631 186.542C198.611 186.575 198.599 186.612 198.596 186.649C198.594 186.686 198.6 186.723 198.615 186.758C198.628 186.794 198.649 186.828 198.678 186.857C198.707 186.886 198.743 186.911 198.784 186.929C198.824 186.947 198.869 186.958 198.915 186.963C198.961 186.967 199.008 186.964 199.053 186.953C200.175 186.664 201.381 186.659 202.507 186.938C203.633 187.217 204.625 187.766 205.348 188.512C205.376 188.543 205.412 188.568 205.454 188.587C205.495 188.605 205.541 188.616 205.589 188.619C205.636 188.622 205.684 188.616 205.728 188.603C205.773 188.589 205.813 188.568 205.846 188.541Z" fill="#455A64"/>
<path d="M205.08 189.224L205.153 189.156C205.204 189.091 205.221 189.013 205.2 188.938C205.18 188.863 205.124 188.798 205.044 188.756C204.316 188.417 203.508 188.203 202.671 188.127C201.834 188.051 200.987 188.116 200.183 188.317C200.093 188.346 200.02 188.402 199.981 188.473C199.943 188.545 199.941 188.625 199.976 188.698C200.012 188.77 200.082 188.828 200.17 188.859C200.259 188.89 200.36 188.892 200.45 188.863C201.155 188.68 201.9 188.617 202.637 188.679C203.374 188.741 204.086 188.927 204.728 189.224C204.78 189.252 204.841 189.267 204.904 189.267C204.967 189.267 205.028 189.252 205.08 189.224Z" fill="#455A64"/>
<path d="M205.7 190.382C205.751 190.349 205.791 190.305 205.813 190.255C205.836 190.206 205.841 190.152 205.829 190.1C205.816 190.048 205.787 190 205.742 189.96C205.698 189.921 205.642 189.892 205.578 189.876C204.507 189.641 203.38 189.617 202.294 189.807C201.208 189.997 200.196 190.395 199.344 190.967C199.284 191.022 199.25 191.093 199.25 191.166C199.25 191.24 199.284 191.311 199.344 191.366C199.37 191.396 199.402 191.421 199.44 191.44C199.478 191.459 199.521 191.472 199.565 191.478C199.61 191.483 199.655 191.481 199.699 191.472C199.742 191.463 199.783 191.447 199.818 191.424C200.585 190.909 201.497 190.552 202.475 190.382C203.454 190.213 204.468 190.236 205.433 190.45C205.481 190.455 205.529 190.451 205.575 190.439C205.622 190.428 205.664 190.408 205.7 190.382Z" fill="#455A64"/>
<path d="M224.755 179.335C224.609 176.87 228.206 175.438 229.519 175.75C228.97 176.158 228.625 176.712 228.546 177.308C228.546 177.308 232.192 177.464 232.861 179.013C232.861 179.013 229.798 179.15 229.215 181.215C228.313 181.387 227.365 181.292 226.545 180.946C225.724 180.6 225.088 180.028 224.755 179.335Z" fill="#F0F0F0"/>
<path d="M338.94 184.294C335.44 171.336 332.511 162.101 329.777 153.372C324.563 136.693 323.117 131.442 304.257 128.88C304.257 128.88 299.857 133.205 300.489 143.435C301.048 152.583 303.77 155.992 303.77 155.992L314.914 188.2C308.68 193.773 292.444 205.873 288.398 207.967C282.929 210.802 276.683 212.186 270.74 214.3C266.803 215.703 263.145 217.369 259.329 218.957C259.118 219.034 258.925 219.139 258.758 219.268C258.611 219.417 258.521 219.596 258.5 219.785C258.478 219.973 258.525 220.163 258.636 220.33C258.857 220.665 259.201 220.937 259.621 221.11C260.635 221.555 261.763 221.811 262.919 221.856C264.074 221.902 265.228 221.736 266.292 221.373C268.115 220.895 269.634 219.999 271.846 219.892C272.283 219.892 272.745 219.941 272.612 220.379C272.477 220.685 272.28 220.972 272.028 221.227C270.347 222.512 268.323 223.475 266.11 224.042C264.016 224.678 261.825 225.084 259.596 225.25C257.799 225.328 256.016 225.55 254.273 225.913C253.696 226.032 253.16 226.256 252.706 226.565C250.445 228.26 254.419 229.166 255.331 230.18C255.805 230.715 256.619 231.641 257.166 232.128C257.748 232.508 258.422 232.787 259.147 232.946C260.069 233.332 260.962 233.761 261.82 234.232C264.018 235.111 266.492 235.45 268.929 235.207C270.983 235.007 273.014 234.682 275.006 234.232C279.281 233.502 283.267 231.939 286.611 229.683C287.968 228.665 289.22 227.56 290.354 226.38C291.363 225.406 292.347 224.363 293.417 223.457C295.204 222.008 297.091 220.638 299.067 219.356C301.972 217.71 318.803 209.848 335.318 198.81C342.646 193.958 340.483 190.022 338.94 184.294Z" fill="#B16668"/>
<path d="M279.478 338.134V270.133C279.65 267.679 280.539 265.292 282.071 263.164C283.603 261.035 285.737 259.225 288.3 257.877L378.873 215.985L385.8 183.037C386.392 180.562 387.599 178.208 389.349 176.115C391.098 174.021 393.354 172.231 395.983 170.849L403.165 167.449C408.026 165.199 412 167.04 412 171.531V276.748C411.827 279.202 410.937 281.59 409.403 283.719C407.868 285.848 405.732 287.658 403.165 289.004L288.3 342.167C283.452 344.466 279.478 342.625 279.478 338.134Z" fill="#263238"/>
<path d="M259.268 260.77V328.771C259.256 328.924 259.256 329.077 259.268 329.229C259.527 331.59 260.446 333.874 261.956 335.912C263.467 337.949 265.53 339.687 267.994 340.998H268.079L270.619 342.186C270.828 342.296 271.053 342.388 271.287 342.459C271.403 342.516 271.525 342.565 271.652 342.605C271.652 342.605 271.737 342.605 271.761 342.605L272.466 342.82C276.644 344.035 281.2 344.137 285.457 343.112C285.978 342.983 286.489 342.83 286.988 342.654C282.747 344.057 279.466 342.147 279.441 338.075V270.074C279.611 267.618 280.499 265.227 282.033 263.097C283.568 260.966 285.707 259.154 288.276 257.809L304.305 250.395L378.873 215.966L367.486 210.685C364.747 209.58 361.723 209.005 358.657 209.005C355.591 209.005 352.567 209.58 349.828 210.685L284.108 241.101L268.103 248.505C265.534 249.851 263.396 251.663 261.862 253.793C260.327 255.924 259.439 258.314 259.268 260.77Z" fill="#455A64"/>
<path d="M279.466 270.143V338.144C279.466 342.216 282.771 344.125 287.012 342.722C286.513 342.898 286.002 343.051 285.481 343.18C281.224 344.206 276.668 344.103 272.49 342.888L271.785 342.674C271.785 342.674 271.724 342.674 271.676 342.674C271.55 342.633 271.428 342.584 271.311 342.528C271.077 342.456 270.853 342.365 270.643 342.255L268.103 341.066H268.018C265.555 339.756 263.491 338.017 261.981 335.98C260.47 333.942 259.551 331.659 259.292 329.298C259.28 329.145 259.28 328.992 259.292 328.84V260.839C259.399 258.378 260.29 255.979 261.881 253.873L282.09 263.235C280.501 265.323 279.598 267.699 279.466 270.143Z" fill="#37474F"/>
</svg>
