<svg width="198" height="286" viewBox="0 0 198 286" fill="none" xmlns="http://www.w3.org/2000/svg">
<path d="M70.699 73.156L65.1929 87.8069L31.9767 102.458L33.477 108.759C33.477 108.759 69.7838 103.763 72.4843 100.845C75.1848 97.9267 84.1265 77.5895 84.1265 77.5895L70.699 73.156Z" fill="#E9B376"/>
<path opacity="0.3" d="M69.3486 76.7493L68.4784 79.0523L78.9654 83.2608L80.2331 86.3065L81.1108 84.4085L80.7057 79.4049L69.3486 76.7493Z" fill="black"/>
<path d="M39.4856 100.86C39.4856 100.86 38.2178 98.1217 35.8624 97.289C33.507 96.4563 31.8566 95.1735 30.0638 94.6784C28.271 94.1833 29.6662 96.2688 30.6339 97.229C31.6016 98.1892 32.6818 99.2845 31.8416 99.8996C31.0015 100.515 22.1423 101.422 21.0921 102.428C20.0419 103.433 21.5047 103.696 21.5047 103.696C21.5047 103.696 19.3593 103.988 19.2543 104.866C19.2543 105.098 19.5243 105.676 20.522 105.698C22.7724 105.751 27.4833 105.608 27.4833 105.608C27.2133 105.608 21.3997 106.201 20.5445 106.404C19.4193 106.666 19.0442 107.364 19.2018 108.009C19.4493 108.932 26.7032 108.444 26.9957 108.639C26.9957 108.639 22.8249 108.774 22.2698 109.869C21.7147 110.965 24.3477 111.025 26.6807 110.62C28.8111 110.26 33.0944 110.117 35.2323 109.539C37.8653 108.789 39.4706 107.761 39.8832 105.241C40.128 103.771 39.9911 102.262 39.4856 100.86Z" fill="#E9B376"/>
<path opacity="0.3" d="M21.7671 103.673C21.7468 103.667 21.7288 103.655 21.7161 103.638C21.7033 103.621 21.6964 103.6 21.6964 103.579C21.6964 103.558 21.7033 103.537 21.7161 103.52C21.7288 103.503 21.7468 103.491 21.7671 103.485C23.4925 103.298 25.2478 103.185 26.9731 103.155C26.9856 103.154 26.9981 103.156 27.0099 103.16C27.0217 103.164 27.0325 103.17 27.0417 103.179C27.0509 103.187 27.0582 103.198 27.0631 103.209C27.0681 103.221 27.0707 103.233 27.0706 103.245C27.0706 103.271 27.0604 103.296 27.0421 103.314C27.0238 103.333 26.999 103.343 26.9731 103.343C25.2553 103.343 23.5075 103.485 21.7896 103.673H21.7671Z" fill="black"/>
<path opacity="0.3" d="M28.5935 108.729C28.5761 108.729 28.5591 108.725 28.5444 108.715C28.5298 108.706 28.5182 108.693 28.5109 108.677C27.6857 106.554 27.498 104.236 27.9708 102.008C27.9738 101.996 27.9791 101.985 27.9863 101.975C27.9936 101.965 28.0027 101.957 28.0131 101.951C28.0236 101.944 28.0351 101.94 28.0472 101.939C28.0593 101.937 28.0715 101.937 28.0834 101.94C28.0952 101.943 28.1063 101.948 28.1161 101.956C28.1259 101.963 28.1342 101.972 28.1404 101.983C28.1467 101.993 28.1508 102.005 28.1526 102.017C28.1544 102.029 28.1538 102.041 28.1509 102.053C27.6869 104.241 27.872 106.517 28.6835 108.602C28.6934 108.626 28.6935 108.653 28.6836 108.676C28.6788 108.688 28.6716 108.699 28.6626 108.708C28.6535 108.717 28.6428 108.724 28.631 108.729H28.5935Z" fill="black"/>
<path opacity="0.3" d="M36.4398 103.77C35.5439 103.776 34.6715 103.484 33.9589 102.942C33.2463 102.399 32.7338 101.635 32.5015 100.77C32.4968 100.746 32.501 100.722 32.5135 100.701C32.526 100.68 32.5458 100.665 32.569 100.658C32.5929 100.65 32.6187 100.652 32.641 100.664C32.6633 100.675 32.6805 100.694 32.6891 100.718C32.9163 101.589 33.4412 102.353 34.1728 102.877C34.9045 103.402 35.7967 103.654 36.6948 103.59C36.7203 103.59 36.7449 103.599 36.7642 103.615C36.7836 103.632 36.7962 103.655 36.7998 103.68C36.8009 103.692 36.7993 103.705 36.7953 103.717C36.7912 103.729 36.7847 103.739 36.7763 103.749C36.7678 103.758 36.7575 103.765 36.7461 103.77C36.7347 103.775 36.7223 103.778 36.7098 103.778L36.4398 103.77Z" fill="black"/>
<path d="M46.7169 60.7932C46.7169 60.7932 53.0331 60.7932 55.0059 68.43C56.9788 76.0667 56.5812 105.023 57.5864 109.307C58.5916 113.59 67.0082 145.488 68.921 160.904C68.921 160.904 59.9944 161.654 59.1692 161.511C58.344 161.369 45.014 98.5944 45.014 98.5944L46.7169 60.7932Z" fill="#0095D9"/>
<g opacity="0.3">
<path d="M46.7169 60.7932C46.7169 60.7932 53.0331 60.7932 55.0059 68.43C56.9788 76.0667 56.5812 105.023 57.5864 109.307C58.5916 113.59 67.0082 145.488 68.921 160.904C68.921 160.904 59.9944 161.654 59.1692 161.511C58.344 161.369 45.014 98.5944 45.014 98.5944L46.7169 60.7932Z" fill="black"/>
</g>
<path d="M59.2743 74.6715C63.7227 83.6736 70.804 93.1933 70.804 93.1933C73.0544 92.8482 88.1323 86.6893 88.1323 86.6893L89.7901 93.1258C86.7046 96.1635 83.3586 98.9247 79.7907 101.378C70.699 107.379 67.3458 106.966 62.71 102.128C58.0741 97.2893 48.6223 79.4576 48.6223 79.4576L51.9229 63.2839L51.0978 62.3462C56.1012 64.5217 57.0989 70.343 59.2743 74.6715Z" fill="#0095D9"/>
<g opacity="0.3">
<path d="M59.2743 74.6715C63.7227 83.6736 70.804 93.1933 70.804 93.1933C73.0544 92.8482 88.1323 86.6893 88.1323 86.6893L89.7901 93.1258C86.7046 96.1635 83.3586 98.9247 79.7907 101.378C70.699 107.379 67.3458 106.966 62.71 102.128C58.0741 97.2893 48.6223 79.4576 48.6223 79.4576L51.9229 63.2839L51.0978 62.3462C56.1012 64.5217 57.0989 70.343 59.2743 74.6715Z" fill="black"/>
</g>
<path opacity="0.3" d="M56.7687 93.6807C56.7687 93.6807 57.5189 85.8939 56.7687 81.5654C56.0186 77.2369 55.2009 73.156 55.2009 73.156C55.2009 73.156 58.0665 79.705 58.389 84.4836C58.7116 89.2622 58.5091 96.4864 58.5091 96.4864L56.7687 93.6807Z" fill="black"/>
<path opacity="0.3" d="M79.6406 90.08C79.5806 90.08 80.8783 100.635 80.8783 100.635L83.0162 99.0521L81.6434 89.2998L79.6406 90.08Z" fill="black"/>
<path d="M6.74939 276.145L14.8359 276.933L19.2542 256.281L6.74939 255.111V276.145Z" fill="#E9B376"/>
<path d="M16.0136 273.64H13.1255C12.8022 273.645 12.4845 273.725 12.1979 273.875C11.9113 274.025 11.6638 274.24 11.4752 274.502C9.8099 276.753 8.56467 275.913 6.74933 273.752C5.59411 273.617 5.28655 274.945 5.19653 275.298L3.03612 283.152C2.95278 283.463 2.9949 283.795 3.15341 284.075C3.31192 284.356 3.57416 284.563 3.88378 284.652C4.00031 284.688 4.12181 284.706 4.24385 284.705H27.0932C30.7313 284.705 31.489 281.036 29.9887 280.699C23.2374 279.198 18.474 277.225 16.3886 275.26C16.0361 274.96 16.4261 274.712 16.0136 273.64Z" fill="#0095D9"/>
<path opacity="0.3" d="M16.0136 273.64H13.1255C12.8022 273.645 12.4845 273.725 12.1979 273.875C11.9113 274.025 11.6638 274.24 11.4752 274.502C9.8099 276.753 8.56467 275.913 6.74933 273.752C5.59411 273.617 5.28655 274.945 5.19653 275.298L3.03612 283.152C2.95278 283.463 2.9949 283.795 3.15341 284.075C3.31192 284.356 3.57416 284.563 3.88378 284.652C4.00031 284.688 4.12181 284.706 4.24385 284.705H27.0932C30.7313 284.705 31.489 281.036 29.9887 280.699C23.2374 279.198 18.474 277.225 16.3886 275.26C16.0361 274.96 16.4261 274.712 16.0136 273.64Z" fill="black"/>
<path d="M22.2773 275.875C22.427 275.767 22.5491 275.625 22.6338 275.461C22.7186 275.296 22.7634 275.115 22.7649 274.93C22.7796 274.833 22.7654 274.733 22.7241 274.644C22.6827 274.554 22.6161 274.479 22.5323 274.427C21.6247 273.782 18.0315 275.47 17.6114 275.665C17.5895 275.674 17.5697 275.687 17.5529 275.704C17.5362 275.721 17.5229 275.741 17.5139 275.762C17.4993 275.803 17.5014 275.848 17.5196 275.887C17.5379 275.927 17.5708 275.957 17.6114 275.972C18.4996 276.181 19.4072 276.297 20.3194 276.317C21.0026 276.383 21.6887 276.228 22.2773 275.875ZM22.2773 274.697C22.3139 274.719 22.3426 274.752 22.3588 274.791C22.3751 274.83 22.378 274.874 22.3673 274.915C22.3597 275.048 22.3244 275.178 22.2637 275.297C22.203 275.416 22.1182 275.521 22.0147 275.605C21.1896 276.212 19.2092 275.95 18.144 275.755C19.6743 275.095 21.8422 274.352 22.3073 274.712L22.2773 274.697Z" fill="#263238"/>
<path d="M17.7314 276.01C18.8191 275.553 21.092 273.76 20.9645 272.83C20.9645 272.634 20.807 272.394 20.3194 272.334C18.339 272.102 17.4838 275.658 17.4838 275.808C17.4758 275.839 17.4765 275.871 17.4857 275.901C17.495 275.932 17.5125 275.959 17.5363 275.98H17.6489L17.7314 276.01ZM20.2519 272.627C20.6194 272.627 20.6194 272.792 20.6194 272.837C20.7244 273.415 19.0741 274.893 17.8964 275.515C18.1365 274.69 18.8641 272.612 20.1468 272.612L20.2519 272.627Z" fill="#263238"/>
<path d="M14.9484 277.638C14.9166 277.648 14.8826 277.648 14.8508 277.638C14.8095 277.611 14.7801 277.57 14.7689 277.522C14.7577 277.475 14.7656 277.425 14.7908 277.383C15.077 276.935 15.4563 276.555 15.903 276.268C16.3496 275.98 16.853 275.793 17.3788 275.718C17.4275 275.711 17.4767 275.724 17.516 275.754C17.5553 275.783 17.5814 275.827 17.5889 275.875C17.5931 275.899 17.5923 275.924 17.5866 275.948C17.5809 275.972 17.5703 275.995 17.5556 276.014C17.5408 276.034 17.5222 276.05 17.5008 276.063C17.4794 276.075 17.4558 276.082 17.4313 276.085C16.9594 276.153 16.5077 276.322 16.1075 276.581C15.7073 276.84 15.3681 277.182 15.1134 277.585C15.0921 277.607 15.066 277.622 15.0373 277.632C15.0086 277.641 14.9781 277.643 14.9484 277.638Z" fill="#263238"/>
<path d="M16.6662 278.838C16.6346 278.849 16.6003 278.849 16.5687 278.838C16.5475 278.826 16.529 278.809 16.5144 278.79C16.4997 278.77 16.4893 278.747 16.4837 278.723C16.478 278.7 16.4774 278.675 16.4817 278.651C16.486 278.626 16.4952 278.603 16.5087 278.583C16.7933 278.134 17.1723 277.753 17.6192 277.465C18.0661 277.178 18.5703 276.991 19.0967 276.918C19.1453 276.912 19.1946 276.924 19.2339 276.954C19.2731 276.983 19.2993 277.027 19.3067 277.076C19.3132 277.126 19.2995 277.177 19.2686 277.218C19.2378 277.259 19.1922 277.286 19.1417 277.293C18.6698 277.36 18.2181 277.529 17.8179 277.788C17.4177 278.047 17.0785 278.39 16.8238 278.793C16.8023 278.811 16.7772 278.825 16.75 278.833C16.7228 278.841 16.6942 278.842 16.6662 278.838Z" fill="#263238"/>
<path d="M19.1191 280.046C19.087 280.053 19.0536 280.053 19.0216 280.046C19.0001 280.033 18.9815 280.016 18.9667 279.995C18.952 279.975 18.9416 279.952 18.936 279.927C18.9304 279.903 18.9298 279.877 18.9342 279.853C18.9386 279.828 18.9479 279.804 18.9616 279.783C19.2462 279.335 19.6251 278.953 20.0721 278.666C20.519 278.378 21.0231 278.191 21.5495 278.118C21.5982 278.112 21.6475 278.125 21.6867 278.154C21.726 278.184 21.7522 278.227 21.7596 278.276C21.7638 278.301 21.7628 278.326 21.7567 278.35C21.7505 278.375 21.7393 278.398 21.7237 278.417C21.7082 278.437 21.6886 278.454 21.6664 278.465C21.6441 278.477 21.6197 278.484 21.5946 278.486C21.1234 278.556 20.6727 278.726 20.2728 278.984C19.8729 279.243 19.5332 279.585 19.2766 279.986C19.2565 280.007 19.2319 280.023 19.2047 280.034C19.1774 280.044 19.1482 280.048 19.1191 280.046Z" fill="#263238"/>
<path d="M45.9519 275.515L54.0384 276.31L57.7891 255.583L46.297 254.33L45.9519 275.515Z" fill="#E9B376"/>
<path d="M55.2161 273.017H52.328C52.0052 273.021 51.6877 273.1 51.4011 273.248C51.1145 273.397 50.8667 273.611 50.6777 273.872C49.0124 276.123 47.7672 275.29 45.9518 273.122C44.8041 272.987 44.4891 274.307 44.399 274.66L42.2386 282.514C42.1553 282.826 42.1974 283.157 42.3559 283.438C42.5144 283.718 42.7767 283.925 43.0863 284.015C43.2032 284.049 43.3247 284.064 43.4464 284.06H66.3257C69.9639 284.06 70.7215 280.391 69.2212 280.054C62.4699 278.553 57.7065 276.58 55.6212 274.622C55.2386 274.337 55.6362 274.082 55.2161 273.017Z" fill="#0095D9"/>
<path d="M61.4797 275.252C61.629 275.144 61.7508 275.002 61.8355 274.838C61.9201 274.673 61.9653 274.492 61.9673 274.307C61.9816 274.209 61.9673 274.109 61.9261 274.018C61.8848 273.928 61.8184 273.851 61.7348 273.797C60.8271 273.16 57.2339 274.847 56.8138 275.042C56.782 275.052 56.7543 275.072 56.7346 275.099C56.715 275.126 56.7043 275.159 56.7043 275.192C56.7043 275.226 56.715 275.258 56.7346 275.285C56.7543 275.312 56.782 275.332 56.8138 275.342C57.7018 275.554 58.6094 275.672 59.5219 275.695C60.2048 275.757 60.8898 275.602 61.4797 275.252ZM61.4797 274.075C61.5158 274.095 61.5441 274.127 61.5604 274.165C61.5767 274.202 61.58 274.245 61.5697 274.285C61.5631 274.418 61.5282 274.549 61.4674 274.668C61.4067 274.787 61.3214 274.891 61.2172 274.975C60.392 275.59 58.4116 275.327 57.3464 275.125C58.8767 274.465 61.0071 273.722 61.5097 274.075H61.4797Z" fill="#263238"/>
<path d="M56.9337 275.38C58.0214 274.93 60.2943 273.13 60.1668 272.207C60.1668 272.004 60.0092 271.772 59.5217 271.704C57.5413 271.479 56.6936 275.035 56.6936 275.185C56.6823 275.214 56.6805 275.245 56.6886 275.275C56.6967 275.305 56.7143 275.331 56.7386 275.35C56.7564 275.358 56.7755 275.362 56.7949 275.362C56.8142 275.362 56.8334 275.358 56.8511 275.35L56.9337 275.38ZM59.4541 271.997C59.8217 272.034 59.8217 272.169 59.8217 272.214C59.9267 272.792 58.2764 274.27 57.0987 274.893C57.3387 274.06 58.0664 271.989 59.3491 271.989L59.4541 271.997Z" fill="#263238"/>
<path d="M54.7659 277.015C54.7339 277.023 54.7005 277.023 54.6684 277.015C54.6469 277.002 54.6283 276.985 54.6136 276.965C54.5989 276.944 54.5884 276.921 54.5828 276.897C54.5772 276.872 54.5766 276.847 54.581 276.822C54.5854 276.797 54.5947 276.774 54.6084 276.753C54.8922 276.305 55.27 275.924 55.7156 275.636C56.1611 275.349 56.6638 275.162 57.1889 275.088C57.2392 275.083 57.2894 275.097 57.3297 275.128C57.3699 275.158 57.3973 275.203 57.4064 275.253C57.4108 275.302 57.3962 275.351 57.3655 275.39C57.3349 275.429 57.2905 275.455 57.2414 275.463C56.7698 275.531 56.3185 275.7 55.9184 275.959C55.5184 276.218 55.179 276.56 54.9235 276.963C54.903 276.983 54.8782 276.998 54.8508 277.007C54.8235 277.016 54.7945 277.019 54.7659 277.015Z" fill="#263238"/>
<path d="M56.5587 278.365C56.5265 278.372 56.4933 278.372 56.4612 278.365C56.4193 278.338 56.3897 278.295 56.3786 278.246C56.3674 278.197 56.3755 278.146 56.4012 278.103C56.688 277.656 57.0676 277.276 57.5141 276.989C57.9606 276.702 58.4636 276.514 58.9891 276.438C59.0386 276.434 59.0878 276.448 59.1268 276.479C59.1659 276.509 59.1917 276.554 59.1992 276.603C59.2023 276.628 59.2005 276.653 59.1939 276.677C59.1873 276.7 59.176 276.723 59.1606 276.742C59.1452 276.762 59.1262 276.778 59.1044 276.79C59.0827 276.802 59.0588 276.81 59.0341 276.813C58.5622 276.88 58.1105 277.049 57.7103 277.308C57.3101 277.567 56.971 277.91 56.7162 278.313C56.6961 278.334 56.6713 278.349 56.6439 278.358C56.6164 278.368 56.5872 278.37 56.5587 278.365Z" fill="#263238"/>
<path d="M58.7941 279.498C58.7598 279.508 58.7234 279.508 58.6891 279.498C58.6685 279.485 58.6507 279.468 58.6368 279.448C58.6229 279.428 58.6132 279.406 58.6083 279.382C58.6034 279.358 58.6034 279.334 58.6082 279.31C58.6131 279.286 58.6228 279.263 58.6366 279.243C58.9204 278.795 59.2982 278.415 59.7438 278.127C60.1893 277.84 60.692 277.652 61.2171 277.578C61.2418 277.574 61.267 277.575 61.2914 277.58C61.3158 277.586 61.3388 277.596 61.3591 277.611C61.3793 277.626 61.3965 277.644 61.4095 277.666C61.4224 277.687 61.431 277.711 61.4346 277.736C61.439 277.785 61.4244 277.834 61.3937 277.873C61.3631 277.912 61.3187 277.938 61.2696 277.946C60.7984 278.015 60.3477 278.185 59.9478 278.444C59.548 278.703 59.2083 279.044 58.9517 279.446C58.9312 279.466 58.9063 279.481 58.879 279.49C58.8517 279.499 58.8227 279.502 58.7941 279.498Z" fill="#263238"/>
<path d="M58.9592 122.487C59.5443 124.22 66.078 179.545 66.003 191.503C65.943 201.165 58.7942 268.021 58.7942 268.021H43.0412C43.0412 268.021 45.0966 233.67 44.684 222.5C44.2714 211.33 46.9344 190.348 46.9344 190.348L30.0938 139.966L30.7239 123.065L58.9592 122.487Z" fill="#263238"/>
<path d="M8.64708 196.822C9.02215 195.209 9.60726 191.938 10.3349 187.617H10.2674C10.8 181.901 8.96965 152.314 10.77 135.42C12.1652 124.655 14.7307 118.917 17.5213 115.368L17.9113 114.866C18.3764 114.296 18.6615 113.98 18.6615 113.98C19.1866 114.108 19.7117 114.235 20.2293 114.348L20.8144 114.468C40.3706 118.564 56.0035 113.208 56.0035 113.208C57.8038 117.649 59.7092 128.174 61.0219 138.008C58.9741 140.259 51.0151 142.337 40.7156 144.265L37.7826 157.55C36.2373 165.802 34.2494 173.859 32.5316 181.136L30.7763 189.103C30.6637 189.62 30.5587 190.138 30.4612 190.648C29.5685 195.194 19.5916 268.344 19.5916 268.344L5.21893 268.013C5.21893 268.013 3.63614 218.652 8.64708 196.822Z" fill="#263238"/>
<path opacity="0.3" d="M55.2161 273.017H52.328C52.0052 273.021 51.6877 273.1 51.4011 273.248C51.1145 273.397 50.8667 273.611 50.6777 273.872C49.0124 276.123 47.7672 275.29 45.9518 273.122C44.8041 272.987 44.4891 274.307 44.399 274.66L42.2386 282.514C42.1553 282.826 42.1974 283.157 42.3559 283.438C42.5144 283.718 42.7767 283.925 43.0863 284.015C43.2032 284.049 43.3247 284.064 43.4464 284.06H66.3257C69.9639 284.06 70.7215 280.391 69.2212 280.054C62.4699 278.553 57.7065 276.58 55.6212 274.622C55.2386 274.337 55.6362 274.082 55.2161 273.017Z" fill="black"/>
<path d="M12.7205 83.996L10.6051 65.2416C13.8682 60.373 26.9732 57.7849 26.9732 57.7849L37.6102 58.37C37.6102 58.37 43.2362 59.6978 46.7394 60.8381C48.3784 63.1352 49.75 65.6118 50.8277 68.2198C50.8277 68.2198 55.9736 79.2249 55.171 86.9741C54.8334 90.2299 54.0983 102.638 55.006 108.227L59.8294 123.035C40.3932 138.173 16.4262 122.352 16.4262 122.352C17.2964 119.674 19.2167 113.755 19.6143 111.145C19.3292 107.806 18.3916 105.623 16.9813 99.7796C16.7113 98.6318 13.1931 85.0912 12.7205 83.996Z" fill="#0095D9"/>
<path d="M35.8024 100.455L39.7181 100.11L41.2784 105.639L37.3477 106.989L35.8024 100.455Z" fill="#E9B376"/>
<path d="M38.5628 99.8171C38.5628 99.8171 39.1479 97.1015 41.0833 95.8787C43.0187 94.6559 44.2489 93.1631 45.7492 92.3529C47.2495 91.5427 47.497 93.2306 46.8294 94.2883C46.1618 95.3461 44.3464 97.019 45.2241 97.394C46.1018 97.7691 54.2258 96.8089 55.396 97.4691C56.5662 98.1292 55.2835 98.6918 55.2835 98.6918C55.2835 98.6918 57.1138 98.4893 57.5339 99.277C57.954 100.065 56.8663 100.537 56.8663 100.537C56.8663 100.537 58.0965 100.44 58.0665 101.287C58.0365 102.135 50.7676 103.695 50.5201 103.928C50.5201 103.928 54.7434 102.428 55.4635 103.305C56.1837 104.183 53.8807 105.128 52.0579 105.931C50.0622 106.709 47.9114 107.007 45.7792 106.801C43.2512 106.576 39.7331 106.876 38.8479 104.693C38.3328 103.12 38.2346 101.44 38.5628 99.8171Z" fill="#E9B376"/>
<path d="M23.5299 84.4837C22.6748 74.5665 20.7244 58.9779 16.6061 60.8458C13.9731 62.0236 12.3153 62.8263 10.9576 63.989C10.0649 64.7392 9.91485 66.5621 9.31474 68.4901C7.64943 73.8763 10.605 112.195 10.605 112.195L1.1532 165.517L20.3418 168.031C20.3418 168.031 24.3926 94.4085 23.5299 84.4837Z" fill="#0095D9"/>
<path opacity="0.3" d="M23.5299 84.4837C22.6747 74.5665 20.7244 58.9779 16.6061 60.8458C13.9731 62.0236 12.3153 62.8263 10.9575 63.989C10.0649 64.7392 9.91484 66.5621 9.31473 68.4901C7.64942 73.8763 10.755 111.467 10.755 111.467L1.13818 165.6L20.3418 168.031C20.3418 168.031 24.3926 94.4085 23.5299 84.4837Z" fill="black"/>
<path opacity="0.3" d="M14.5732 104.806C14.5732 104.806 17.7688 86.1941 17.5738 77.5596L11.5201 100.815L14.5732 104.806Z" fill="black"/>
<path opacity="0.3" d="M9.46497 111.85C10.3246 112.921 11.4177 113.78 12.6606 114.363C15.2711 115.451 23.005 113.088 23.005 113.088L23.11 109.787L9.46497 111.85Z" fill="black"/>
<path d="M17.5589 77.5594C17.0788 77.5594 13.7107 99.2094 13.7107 99.2094L37.5351 98.6768L38.8704 108.272C38.8704 108.272 28.4434 110.807 16.9063 112.69C5.00902 114.625 0.55318 109.359 0.50067 101.287C0.44816 93.8832 3.50123 75.9016 3.50123 75.9016C5.04653 68.8199 8.0846 66.2093 11.8203 63.3062L17.5589 77.5594Z" fill="#0095D9"/>
<path opacity="0.3" d="M17.5589 77.5594C17.0788 77.5594 13.7107 99.2094 13.7107 99.2094L37.5351 98.6768L38.8704 108.272C38.8704 108.272 28.4434 110.807 16.9063 112.69C5.00902 114.625 0.55318 109.359 0.50067 101.287C0.44816 93.8832 3.50123 75.9016 3.50123 75.9016C5.04653 68.8199 8.0846 66.2093 11.8203 63.3062L17.5589 77.5594Z" fill="black"/>
<path d="M24.0401 21.4166C24.0401 21.4166 26.8757 17.1856 34.4071 16.6305C41.9385 16.0754 50.3776 18.2584 54.4584 28.5883L51.1653 29.4135C53.362 37.1894 54.3239 45.2621 54.0158 53.3365C54.0158 53.3365 30.9264 56.4272 15.9911 53.8541C15.9284 46.8413 16.4503 39.8354 17.5514 32.9093C19.4043 20.734 24.0401 21.4166 24.0401 21.4166Z" fill="#263238"/>
<path d="M24.6027 58.8352C24.6027 58.8352 27.9933 61.2357 32.3816 64.724C33.2983 65.4507 34.2919 66.0746 35.3447 66.5845C38.1877 67.9498 40.7532 68.6925 41.3833 67.3346C41.5266 67.0277 41.6348 66.7056 41.7059 66.3744C42.201 64.1239 41.8334 60.9582 39.9656 59.5854C37.8577 58.04 36.815 56.6822 37.1 54.4617C37.283 53.1472 37.6256 51.8599 38.1202 50.6283L35.7048 49.3005L26.9506 41.1311C28.1208 46.2998 28.916 55.5794 24.6027 58.8352Z" fill="#E9B376"/>
<path opacity="0.2" d="M37.0475 54.9119C34.6771 53.6291 32.0441 51.3486 32.2391 48.6105C32.3033 47.6069 32.4871 46.6147 32.7867 45.6548L37.7301 51.6937C37.3927 52.7402 37.164 53.8186 37.0475 54.9119Z" fill="black"/>
<path d="M24.9402 31.6114C26.0729 40.2309 26.3729 43.8918 31.0163 48.2503C38.0001 54.8143 48.2695 52.1137 49.6798 43.4642C50.9776 35.6849 48.9297 22.8944 40.273 19.5937C31.7664 16.3379 23.8074 22.992 24.9402 31.6114Z" fill="#E9B376"/>
<path d="M36.71 33.9895C36.7925 34.8972 37.3176 35.6324 37.8877 35.6249C38.4578 35.6174 38.8554 34.8747 38.7729 33.952C38.6904 33.0293 38.1728 32.3016 37.6027 32.3166C37.0326 32.3316 36.635 33.0743 36.71 33.9895Z" fill="#263238"/>
<path d="M45.5016 33.599C45.5766 34.484 46.1017 35.189 46.6718 35.1815C47.2419 35.174 47.632 34.4315 47.557 33.554C47.4819 32.6765 46.9568 31.964 46.3867 31.9715C45.8166 31.979 45.419 32.714 45.5016 33.599Z" fill="#263238"/>
<path d="M34.3321 30.906C34.3872 30.9096 34.4425 30.9014 34.4942 30.882C34.546 30.8626 34.593 30.8325 34.6322 30.7935C34.9918 30.4226 35.4372 30.1458 35.9291 29.9876C36.4209 29.8293 36.9442 29.7945 37.4527 29.886C37.505 29.9004 37.5597 29.9038 37.6134 29.8958C37.6671 29.8879 37.7185 29.8688 37.7644 29.8399C37.8103 29.811 37.8496 29.7728 37.8799 29.7278C37.9102 29.6828 37.9308 29.6319 37.9403 29.5785C37.9572 29.4659 37.9321 29.351 37.8699 29.2556C37.8077 29.1602 37.7126 29.091 37.6027 29.061C36.9617 28.9279 36.2974 28.9592 35.6718 29.152C35.0461 29.3447 34.4794 29.6927 34.0246 30.1635C33.947 30.2457 33.9038 30.3543 33.9038 30.4673C33.9038 30.5802 33.947 30.6889 34.0246 30.771C34.1063 30.8534 34.2162 30.9016 34.3321 30.906Z" fill="#263238"/>
<path d="M47.4896 29.1732C47.5334 29.1545 47.5727 29.1269 47.605 29.092C47.6373 29.0571 47.6619 29.0157 47.6771 28.9707C47.7085 28.8666 47.7024 28.7549 47.6599 28.6549C47.6174 28.5549 47.5412 28.4729 47.4446 28.4232C46.9149 28.1084 46.3132 27.9349 45.6973 27.9191C45.0813 27.9034 44.4715 28.0459 43.9264 28.3332C43.8474 28.4014 43.796 28.4962 43.782 28.5996C43.7681 28.7031 43.7925 28.8081 43.8506 28.8948C43.9087 28.9816 43.9966 29.044 44.0976 29.0704C44.1987 29.0968 44.3059 29.0854 44.399 29.0382C44.8343 28.8204 45.3175 28.7158 45.804 28.7342C46.2904 28.7525 46.7644 28.8932 47.182 29.1432C47.2766 29.1934 47.3871 29.2042 47.4896 29.1732Z" fill="#263238"/>
<path d="M42.4486 33.2917C43.3012 35.1077 44.3368 36.8321 45.5392 38.4379C45.6023 38.5201 45.6457 38.6157 45.6659 38.7174C45.6861 38.819 45.6827 38.924 45.6559 39.024C45.629 39.1241 45.5795 39.2167 45.5112 39.2946C45.4428 39.3725 45.3574 39.4336 45.2616 39.4732C44.5181 39.7284 43.7183 39.7725 42.9512 39.6007L42.4486 33.2917Z" fill="#D58745"/>
<path d="M37.28 32.3615L39.2454 31.814C39.2454 31.814 38.2177 33.3365 37.28 32.3615Z" fill="#263238"/>
<path d="M46.0868 32.0163L48.0522 31.4688C48.0522 31.4688 47.032 32.9913 46.0868 32.0163Z" fill="#263238"/>
<path d="M30.1687 36.4126C30.1687 36.4126 32.2391 30.1636 31.0539 25.16C31.0539 25.16 47.0019 17.9058 49.7624 33.8545C49.7624 33.8545 47.6245 16.0979 33.8744 17.4707C20.1243 18.8435 19.1416 39.7733 26.9581 44.8745C26.9581 44.9195 28.3684 40.8161 30.1687 36.4126Z" fill="#263238"/>
<path d="M22.5923 38.7607C23.5705 40.3282 25.1293 41.4448 26.9281 41.8664C29.2386 42.354 30.2813 38.6257 29.4036 36.3601C28.9979 35.3411 28.2408 34.501 27.2694 33.9919C26.298 33.4828 25.1764 33.3382 24.1076 33.5845C21.9397 34.1096 21.3546 36.7802 22.5923 38.7607Z" fill="#E9B376"/>
<path opacity="0.2" d="M27.4233 38.2947C27.3772 38.295 27.3326 38.2784 27.298 38.2479C27.2634 38.2175 27.2413 38.1754 27.2357 38.1297C27.1506 37.3534 26.7624 36.6422 26.1556 36.1506C25.5487 35.659 24.7723 35.4269 23.9951 35.5047C23.9449 35.5071 23.8957 35.4908 23.8568 35.4589C23.818 35.427 23.7925 35.3819 23.7851 35.3322C23.783 35.3075 23.7859 35.2827 23.7934 35.2592C23.801 35.2357 23.8132 35.2139 23.8292 35.195C23.8452 35.1762 23.8648 35.1608 23.8869 35.1495C23.9089 35.1383 23.933 35.1316 23.9576 35.1297C24.3946 35.0862 24.8359 35.1294 25.2562 35.2567C25.6765 35.384 26.0675 35.593 26.4069 35.8717C26.7462 36.1504 27.0273 36.4933 27.2339 36.8808C27.4404 37.2682 27.5685 37.6926 27.6108 38.1297C27.615 38.1783 27.6002 38.2266 27.5693 38.2644C27.5385 38.3022 27.4942 38.3265 27.4458 38.3322L27.4233 38.2947Z" fill="black"/>
<path d="M40.1607 42.511C39.5712 42.4963 38.9978 42.3153 38.5067 41.9888C38.0156 41.6624 37.6268 41.2038 37.3852 40.666C37.3752 40.6433 37.3699 40.6189 37.3694 40.5942C37.3689 40.5695 37.3734 40.5449 37.3824 40.5219C37.3915 40.4989 37.405 40.4779 37.4222 40.4602C37.4394 40.4424 37.46 40.4282 37.4827 40.4185C37.5296 40.4009 37.5814 40.4019 37.6275 40.4215C37.6735 40.441 37.7103 40.4776 37.7302 40.5235C37.9955 41.1283 38.4733 41.615 39.0732 41.8914C39.6732 42.1678 40.3536 42.2148 40.9859 42.0235C41.0095 42.0168 41.0343 42.015 41.0587 42.0182C41.083 42.0214 41.1065 42.0296 41.1276 42.0423C41.1487 42.0549 41.1669 42.0718 41.1813 42.0918C41.1956 42.1117 41.2057 42.1344 41.2109 42.1585C41.2223 42.2062 41.2145 42.2565 41.1893 42.2985C41.1641 42.3406 41.1233 42.3711 41.0759 42.3835C40.7772 42.4635 40.4698 42.5063 40.1607 42.511Z" fill="#263238"/>
<path d="M84.5315 88.9695C84.5315 88.9695 84.1789 85.9688 85.7542 84.0334C87.3295 82.0979 88.0647 80.1325 89.3324 78.7822C90.6002 77.4319 90.5026 79.9299 90.1801 81.2502C89.8575 82.5706 89.5124 84.0784 90.5401 84.1609C91.5678 84.2434 99.6243 80.4101 101.042 80.6876C102.46 80.9652 101.357 81.9929 101.357 81.9929C101.357 81.9929 103.338 81.1152 103.893 81.8054C104.043 81.9854 104.088 82.6381 103.248 83.1782C101.357 84.3935 97.2464 86.7415 97.2464 86.7415C97.4789 86.599 102.745 84.0634 103.585 83.7858C104.68 83.4258 105.378 83.7858 105.565 84.4535C105.836 85.3687 99.4218 88.737 99.2493 89.067C99.2493 89.067 102.88 87.0041 103.923 87.6492C104.965 88.2944 102.752 89.7197 100.562 90.6049C98.5516 91.4076 94.8234 93.5231 92.708 94.1532C90.0901 94.9034 88.1622 94.8509 86.4894 92.9154C85.5083 91.7904 84.834 90.4313 84.5315 88.9695Z" fill="#E9B376"/>
<path opacity="0.3" d="M96.4737 84.5732C96.4574 84.5726 96.4414 84.5682 96.4271 84.5604C96.4128 84.5526 96.4005 84.5416 96.3912 84.5282C96.3801 84.5061 96.3779 84.4807 96.3848 84.457C96.3918 84.4334 96.4074 84.4132 96.4287 84.4007C97.9289 83.5232 99.4667 82.6982 101.035 81.9632C101.045 81.9582 101.057 81.9553 101.069 81.9549C101.081 81.9545 101.093 81.9564 101.104 81.9606C101.115 81.9647 101.125 81.9711 101.134 81.9793C101.143 81.9875 101.15 81.9973 101.155 82.0082C101.161 82.0187 101.165 82.0306 101.166 82.0428C101.167 82.0551 101.165 82.0674 101.161 82.0789C101.156 82.0904 101.15 82.1008 101.141 82.1093C101.132 82.1178 101.121 82.1243 101.11 82.1282C99.5568 82.8782 98.0115 83.6882 96.5187 84.5657L96.4737 84.5732Z" fill="black"/>
<path opacity="0.3" d="M97.8766 90.0049C97.8544 90.0035 97.8334 89.9945 97.817 89.9795C97.8007 89.9645 97.7899 89.9443 97.7866 89.9224C97.3774 87.717 96.3348 85.6785 94.786 84.056C94.7776 84.0477 94.7709 84.0377 94.7664 84.0268C94.7618 84.0159 94.7595 84.0041 94.7595 83.9923C94.7595 83.9804 94.7618 83.9687 94.7664 83.9578C94.7709 83.9468 94.7776 83.9369 94.786 83.9285C94.8041 83.9111 94.8283 83.9014 94.8535 83.9014C94.8787 83.9014 94.9029 83.9111 94.921 83.9285C96.4783 85.5834 97.5208 87.6555 97.9216 89.8924C97.9237 89.9042 97.9235 89.9164 97.9208 89.9281C97.9182 89.9399 97.9132 89.9509 97.9063 89.9607C97.8993 89.9705 97.8904 89.9788 97.8801 89.9851C97.8699 89.9914 97.8585 89.9956 97.8466 89.9974L97.8766 90.0049Z" fill="black"/>
<path opacity="0.3" d="M88.3648 89.9973C88.3432 89.9998 88.3214 89.9945 88.3035 89.9822C88.2856 89.97 88.2727 89.9516 88.2672 89.9306C88.2617 89.9096 88.264 89.8873 88.2737 89.8679C88.2833 89.8484 88.2997 89.8331 88.3198 89.8248C89.112 89.4083 89.741 88.737 90.1051 87.9193C90.449 87.0879 90.4966 86.1636 90.2401 85.3012C90.2332 85.2763 90.2364 85.2497 90.2491 85.2272C90.2617 85.2048 90.2828 85.1882 90.3076 85.1812C90.319 85.1777 90.3309 85.1765 90.3427 85.1777C90.3544 85.1788 90.3659 85.1823 90.3764 85.1878C90.3868 85.1934 90.3961 85.201 90.4036 85.2102C90.4111 85.2193 90.4167 85.2299 90.4202 85.2412C90.6946 86.1461 90.6438 87.1185 90.2766 87.9898C89.9094 88.8612 89.249 89.5767 88.4098 90.0123L88.3648 89.9973Z" fill="black"/>
<path d="M107.809 5.40032C109.691 4.38008 103.15 10.2314 103.863 16.0003C104.575 21.7691 105.941 35.5573 105.941 35.5573L119.143 32.0465L107.809 5.40032Z" fill="#263238"/>
<path d="M185.298 82.0908L165.449 95.2113C164.847 94.6095 164.295 93.9597 163.799 93.2684C161.136 89.8251 157.295 83.6287 156.058 81.5957L146.051 96.5992C148.976 99.6524 160.903 107.747 162.914 108.077C168.127 108.94 188.989 86.3593 188.989 86.3593L185.298 82.0908Z" fill="#E9B376"/>
<path d="M111.461 35.5273C106.961 37.4628 99.8418 50.0282 99.8418 50.0282L101.687 52.9839L105.018 54.5442C105.018 54.5442 110.419 45.7672 113.982 44.1918C117.545 42.6165 111.461 35.5273 111.461 35.5273Z" fill="#0095D9"/>
<path opacity="0.3" d="M111.461 35.5273C106.961 37.4628 99.8418 50.0282 99.8418 50.0282L101.687 52.9839L105.018 54.5442C105.018 54.5442 110.419 45.7672 113.982 44.1918C117.545 42.6165 111.461 35.5273 111.461 35.5273Z" fill="white"/>
<path d="M111.461 35.5273C118.649 31.6297 126.998 30.4449 134.986 32.1891C137.349 33.3443 139.119 35.2798 141.775 49.443C142.652 54.1541 147.416 54.2366 149.449 58.7527C150.028 59.5436 150.27 60.5324 150.121 61.5017C149.972 62.471 149.444 63.3413 148.653 63.9214C148.4 64.1099 148.122 64.2638 147.828 64.379C140.754 67.1996 127.462 71.7907 119.856 69.7427C119.863 69.7502 111.949 50.8684 111.461 35.5273Z" fill="#0095D9"/>
<path opacity="0.3" d="M111.461 35.5273C118.649 31.6297 126.998 30.4449 134.986 32.1891C137.349 33.3443 139.119 35.2798 141.775 49.443C142.652 54.1541 147.416 54.2366 149.449 58.7527C150.028 59.5436 150.27 60.5324 150.121 61.5017C149.972 62.471 149.444 63.3413 148.653 63.9214C148.4 64.1099 148.122 64.2638 147.828 64.379C140.754 67.1996 127.462 71.7907 119.856 69.7427C119.863 69.7502 111.949 50.8684 111.461 35.5273Z" fill="white"/>
<path d="M148.489 105.174C155.915 124.573 161.466 137.206 161.466 137.206L156.688 139.682C156.688 139.682 145.721 128.001 135.759 107.642C133.359 102.754 131.214 97.7466 129.33 92.6382L141.775 82.1357C143.511 89.9524 145.754 97.6479 148.489 105.174Z" fill="#E9B376"/>
<path opacity="0.2" d="M129.33 92.668L138.279 87.9194C139.494 93.9583 144.963 92.8556 147.101 101.258C144.288 102.098 136.929 104.131 133.921 103.778C132.137 100.185 130.603 96.4724 129.33 92.668Z" fill="black"/>
<path d="M153.935 136.636L160.243 134.58C160.345 134.541 160.458 134.543 160.558 134.587C160.657 134.631 160.736 134.712 160.776 134.813L162.711 139.712C162.795 139.972 162.772 140.255 162.648 140.499C162.525 140.744 162.31 140.929 162.051 141.017C159.838 141.7 158.743 141.887 155.968 142.795C153.521 143.697 151.014 144.426 148.466 144.978C146.013 145.368 145.706 142.93 146.711 142.532C149.081 141.624 151.864 138.999 153.042 137.236C153.263 136.94 153.577 136.728 153.935 136.636Z" fill="#263238"/>
<path d="M151.069 138.316C150.946 138.25 150.843 138.152 150.773 138.031C150.703 137.911 150.668 137.773 150.671 137.633C150.661 137.547 150.671 137.459 150.703 137.378C150.734 137.297 150.785 137.225 150.852 137.168C151.452 136.673 153.402 137.228 153.627 137.303C153.651 137.316 153.671 137.333 153.688 137.353C153.705 137.374 153.717 137.398 153.725 137.423C153.728 137.45 153.723 137.477 153.709 137.5C153.695 137.523 153.674 137.541 153.65 137.551C153.199 137.835 152.719 138.069 152.217 138.248C151.856 138.413 151.447 138.437 151.069 138.316ZM151.069 137.401C151.034 137.428 151.007 137.464 150.991 137.505C150.976 137.546 150.971 137.59 150.979 137.633C150.979 137.72 151 137.806 151.043 137.882C151.085 137.958 151.145 138.022 151.219 138.068C151.572 138.241 152.322 138.031 153.259 137.536C152.509 137.326 151.384 137.161 151.054 137.431L151.069 137.401Z" fill="#0095D9"/>
<path d="M153.552 137.596C152.884 137.446 151.662 136.538 151.594 135.886C151.579 135.769 151.606 135.65 151.669 135.55C151.732 135.45 151.827 135.375 151.939 135.338C152.037 135.294 152.143 135.271 152.25 135.271C152.358 135.271 152.464 135.294 152.562 135.338C153.312 135.706 153.702 137.386 153.724 137.431C153.725 137.477 153.709 137.522 153.679 137.558C153.67 137.563 153.66 137.566 153.649 137.566C153.639 137.566 153.629 137.563 153.619 137.558C153.603 137.579 153.578 137.592 153.552 137.596ZM152.052 135.586C152.021 135.59 151.992 135.601 151.966 135.617C151.94 135.633 151.918 135.655 151.901 135.68C151.884 135.706 151.873 135.735 151.868 135.765C151.863 135.795 151.864 135.826 151.872 135.856C152.176 136.499 152.712 137.005 153.372 137.273C153.229 136.741 152.869 135.833 152.419 135.623C152.37 135.599 152.316 135.587 152.262 135.587C152.207 135.587 152.153 135.599 152.104 135.623L152.052 135.586Z" fill="#0095D9"/>
<path d="M187.308 88.092L183.018 83.0433C182.941 82.9637 182.898 82.8575 182.898 82.747C182.898 82.6365 182.941 82.5303 183.018 82.4507L186.813 78.7973C187.024 78.6215 187.294 78.5348 187.568 78.5558C187.841 78.5769 188.095 78.7039 188.276 78.9099C189.776 80.6953 190.384 81.6255 192.229 83.8385C193.995 85.7481 195.622 87.7812 197.098 89.9224C198.381 92.0529 196.25 93.2532 195.515 92.473C193.775 90.6201 190.264 89.0522 188.201 88.6321C187.854 88.5499 187.542 88.361 187.308 88.092Z" fill="#263238"/>
<path d="M189.934 90.0793C189.919 90.2173 189.867 90.3486 189.782 90.4585C189.697 90.5684 189.583 90.6526 189.454 90.7018C189.379 90.746 189.293 90.7693 189.206 90.7693C189.119 90.7693 189.034 90.746 188.959 90.7018C188.253 90.3343 188.058 88.3168 188.036 88.0843C188.037 88.0594 188.043 88.0349 188.055 88.0128C188.067 87.9907 188.083 87.9716 188.103 87.9568C188.126 87.942 188.152 87.9341 188.178 87.9341C188.205 87.9341 188.231 87.942 188.253 87.9568C188.688 88.2653 189.086 88.6226 189.439 89.0218C189.588 89.1561 189.708 89.3188 189.793 89.5004C189.878 89.6821 189.926 89.8789 189.934 90.0793ZM189.109 90.4543C189.145 90.4762 189.186 90.4877 189.229 90.4877C189.271 90.4877 189.312 90.4762 189.349 90.4543C189.431 90.4233 189.504 90.3707 189.559 90.3022C189.615 90.2336 189.651 90.1515 189.664 90.0643C189.664 89.6743 189.214 89.0593 188.366 88.3918C188.478 89.1943 188.741 90.2593 189.116 90.4618L189.109 90.4543Z" fill="#0095D9"/>
<path d="M188.328 88.0545C188.441 88.7595 188.073 90.1995 187.496 90.5145C187.391 90.569 187.271 90.5875 187.154 90.5672C187.038 90.5468 186.931 90.4888 186.851 90.402C186.771 90.3308 186.709 90.2425 186.669 90.1437C186.629 90.045 186.611 89.9384 186.618 89.832C186.678 88.9995 188.081 87.9945 188.118 87.9645C188.139 87.9533 188.162 87.9475 188.186 87.9475C188.21 87.9475 188.233 87.9533 188.253 87.9645C188.257 87.9713 188.26 87.9791 188.26 87.987C188.26 87.9949 188.257 88.0027 188.253 88.0095C188.282 88.0181 188.308 88.0336 188.328 88.0545ZM187.061 90.1695C187.096 90.2196 187.148 90.255 187.208 90.2689C187.267 90.2827 187.33 90.274 187.383 90.2445C187.842 89.7076 188.093 89.0233 188.088 88.317C187.653 88.662 186.941 89.3295 186.911 89.817C186.903 89.8729 186.907 89.9298 186.922 89.984C186.938 90.0383 186.965 90.0887 187.001 90.132L187.061 90.1695Z" fill="#0095D9"/>
<path d="M127.792 32.5043C127.792 32.5043 123.839 37.0578 119.818 37.598C116.682 38.0106 116.817 35.2949 116.817 35.2949C117.126 34.8327 117.364 34.327 117.523 33.7946C118.618 30.2763 115.025 27.7257 115.025 27.7257L118.243 26.0528L125.279 22.377C123.336 29.1285 127.792 32.5043 127.792 32.5043Z" fill="#E9B376"/>
<path opacity="0.2" d="M124.664 25.2576C124.664 25.2576 122.549 32.5868 117.568 33.7795C118.655 30.2612 115.07 27.7106 115.07 27.7106L118.288 26.0377L124.664 25.2576Z" fill="black"/>
<path d="M129.435 13.4423C130.268 19.8788 128.122 27.6431 123.059 29.6761C113.742 33.4269 109.594 32.3092 107.058 25.3551C104.748 19.1061 104.95 8.46869 112.564 4.94287C120.178 1.41706 128.265 4.50027 129.435 13.4423Z" fill="#E9B376"/>
<path d="M115.302 18.2283C115.437 19.0458 115.107 19.7808 114.597 19.8633C114.087 19.9458 113.524 19.3533 113.389 18.5358C113.254 17.7183 113.585 17.0358 114.095 16.9158C114.605 16.7958 115.167 17.4033 115.302 18.2283Z" fill="#263238"/>
<path d="M108.739 18.971C108.866 19.721 108.559 20.471 108.033 20.5385C107.508 20.606 107.013 20.0435 106.886 19.271C106.758 18.4985 107.073 17.771 107.591 17.711C108.108 17.651 108.649 18.1985 108.739 18.971Z" fill="#263238"/>
<path d="M112.287 14.5223C112.22 14.485 112.168 14.4271 112.137 14.3573C112.119 14.3121 112.11 14.2638 112.112 14.2152C112.113 14.1666 112.124 14.1188 112.145 14.0746C112.165 14.0305 112.194 13.9909 112.23 13.9583C112.266 13.9257 112.308 13.9007 112.354 13.8848C112.903 13.6672 113.496 13.5863 114.083 13.649C114.67 13.7117 115.232 13.9162 115.722 14.2448C115.761 14.2743 115.793 14.311 115.818 14.353C115.842 14.395 115.858 14.4414 115.864 14.4895C115.87 14.5376 115.867 14.5865 115.854 14.6333C115.842 14.6802 115.82 14.724 115.79 14.7623C115.729 14.8382 115.642 14.8882 115.546 14.9021C115.45 14.916 115.352 14.8929 115.272 14.8373C114.877 14.5838 114.426 14.4301 113.958 14.3896C113.49 14.3491 113.02 14.423 112.587 14.6048C112.48 14.6176 112.372 14.5879 112.287 14.5223Z" fill="#263238"/>
<path d="M106.031 15.9022C105.953 15.9019 105.877 15.8784 105.813 15.8347C105.744 15.7647 105.706 15.6704 105.706 15.5722C105.706 15.4741 105.744 15.3798 105.813 15.3097C106.189 14.8551 106.671 14.4992 107.216 14.2731C107.761 14.047 108.353 13.9574 108.941 14.0122C109.038 14.0253 109.125 14.0761 109.184 14.1534C109.243 14.2307 109.269 14.3283 109.256 14.4247C109.238 14.5215 109.184 14.6078 109.104 14.6662C109.025 14.7247 108.926 14.7509 108.829 14.7397C108.361 14.7076 107.892 14.789 107.462 14.9771C107.032 15.1651 106.655 15.4542 106.361 15.8197C106.315 15.8571 106.262 15.8838 106.205 15.8981C106.148 15.9123 106.088 15.9138 106.031 15.9022Z" fill="#263238"/>
<path d="M110.171 19.7136L111.574 23.0219C110.749 23.3758 109.838 23.4751 108.956 23.307C109.576 22.1929 109.988 20.9752 110.171 19.7136Z" fill="#D58745"/>
<path d="M123.059 18.7536C123.059 18.7536 124.011 14.5301 126.269 15.3778C128.527 16.2255 129.337 22.8796 126.329 23.4122C123.321 23.9448 122.091 21.1542 123.059 18.7536Z" fill="#E9B376"/>
<path d="M111.942 25.8276C112.683 26.4998 113.375 27.2243 114.012 27.9956L114.47 27.733C116.518 26.4952 117.065 25.2499 117.043 24.2447C116.995 23.4635 116.686 22.721 116.165 22.1367C115.46 23.4345 113.637 24.7248 112.647 25.37C112.422 25.538 112.187 25.6909 111.942 25.8276Z" fill="#263238"/>
<path d="M112.609 25.4L113.239 26.0301C115.167 24.8674 116.368 23.7796 116.623 22.8419C116.495 22.5847 116.33 22.3472 116.135 22.1367C115.46 23.4645 113.637 24.7548 112.609 25.4Z" fill="white"/>
<path d="M114.47 27.7329C116.517 26.4951 117.065 25.2499 117.043 24.2446C116.275 24.7264 115.597 25.3381 115.04 26.0525C114.678 26.539 114.479 27.1269 114.47 27.7329Z" fill="#C15854"/>
<path d="M122.361 47.5676C122.361 47.5676 126.254 42.7665 128.587 46.2623C131.483 50.5908 122.294 57.3349 122.294 57.3349C122.294 57.3349 115.677 51.9261 117.433 47.8227C119.653 42.6465 122.361 47.5676 122.361 47.5676Z" fill="white"/>
<path d="M118.13 66.9148C115.962 72.3536 117.02 90.8453 121.318 103.096C121.318 103.096 127.004 104.859 142.93 100.35C156.042 96.6442 163.896 91.513 163.896 91.513C159.253 81.9033 151.317 59.1955 149.426 58.5054L118.13 66.9148Z" fill="#0095D9"/>
<path opacity="0.2" d="M163.896 91.4827C163.896 91.4827 162.734 92.2329 160.573 93.3807C159.546 93.9208 158.323 94.551 156.823 95.2261C155.517 95.8262 154.04 96.4714 152.397 97.109C151.277 97.5691 150.079 98.0217 148.804 98.4668C146.996 99.1045 145.053 99.7346 142.93 100.327C142.36 100.492 141.812 100.642 141.272 100.785C140.267 101.055 139.299 101.303 138.377 101.49C136.126 102.023 134.146 102.428 132.375 102.698C130.965 102.93 129.765 103.088 128.67 103.185C127.335 103.329 125.992 103.394 124.649 103.38C124.148 103.395 123.647 103.374 123.149 103.32C122.508 103.292 121.873 103.199 121.251 103.043C116.96 90.7626 115.902 72.2858 118.07 66.8696L149.366 58.4226C151.317 59.1728 159.253 81.918 163.896 91.4827Z" fill="black"/>
<path opacity="0.2" d="M120.801 84.4087L124.687 103.411C124.186 103.425 123.684 103.405 123.186 103.351L120.801 84.4087Z" fill="black"/>
<path opacity="0.2" d="M128.707 103.215L125.894 74.5513L132.383 102.705C131.033 102.923 129.803 103.118 128.707 103.215Z" fill="black"/>
<path opacity="0.2" d="M138.384 101.543L133.013 72.616L141.265 100.815C140.274 101.055 139.307 101.303 138.384 101.543Z" fill="black"/>
<path opacity="0.2" d="M148.811 98.4669L141.775 69.7803L152.434 97.1091C151.287 97.5667 150.116 98.0243 148.811 98.4669Z" fill="black"/>
<path opacity="0.2" d="M160.573 93.3808C159.546 93.9209 158.323 94.551 156.823 95.2262L148.481 67.9724L160.573 93.3808Z" fill="black"/>
<path opacity="0.2" d="M165.449 95.2113C165.574 96.496 165.574 97.7899 165.449 99.0747C166.457 97.7132 166.927 96.0277 166.769 94.3411L165.449 95.2113Z" fill="black"/>
<path opacity="0.2" d="M111.281 46.2699L111.672 40.4561L112.474 45.1146L111.281 46.2699Z" fill="black"/>
<path d="M139.614 25.9851C139.127 24.9274 133.418 5.85796 126.907 2.45218C123.381 0.276675 118.46 0.066625 113.735 1.13187C106.871 2.63222 105.175 7.99595 109.234 10.1339C109.301 10.464 117.028 12.0394 119.841 16.4879C122.841 21.244 120.336 23.4195 122.091 26.9153C123.846 30.4111 124.619 30.9813 124.619 30.9813L137.371 27.493C137.371 27.493 140.132 27.1554 139.614 25.9851Z" fill="#263238"/>
<path d="M81.6135 257.128L74.7047 276.348L68.261 274.33L70.2789 254.098L81.6135 257.128Z" fill="#E9B376"/>
<path d="M75.7324 282.012C75.5824 283.414 75.4773 284.382 75.4773 284.382H69.6487C69.0739 284.066 68.4359 283.881 67.7809 283.842C67.0908 283.932 64.6903 284.397 64.6903 284.397H49.2074C49.3135 283.807 49.464 283.225 49.6575 282.657C49.8442 282.097 50.096 281.56 50.4076 281.059C50.7727 280.396 51.3045 279.839 51.9505 279.445C52.5964 279.05 53.3342 278.831 54.0908 278.808C56.2587 278.666 63.0925 274.097 63.0925 274.097C63.8151 273.82 64.4437 273.342 64.9047 272.721C65.3657 272.099 65.64 271.359 65.6955 270.586C65.7405 269.604 67.1958 268.396 67.8934 268.291C69.3037 268.081 70.0988 268.981 70.3014 270.391L70.5489 272.034L73.812 271.524C73.812 271.524 77.1352 269.836 76.9776 271.464" fill="#263238"/>
<g opacity="0.2">
<path d="M49.2074 284.464H64.6903C64.6903 284.464 67.0908 283.999 67.7809 283.909C68.4359 283.949 69.0739 284.133 69.6487 284.449H75.4773C75.4773 284.449 75.5824 283.482 75.7324 282.079L49.6575 282.769C49.4662 283.322 49.3157 283.889 49.2074 284.464Z" fill="white"/>
</g>
<path d="M59.6568 275.875C59.6946 275.847 59.7407 275.831 59.7881 275.831C59.8355 275.831 59.8816 275.847 59.9193 275.875C60.3171 276.143 60.6378 276.51 60.8495 276.94C60.962 277.18 60.617 277.405 60.497 277.165C60.3151 276.786 60.0355 276.463 59.6868 276.228C59.6632 276.208 59.6442 276.183 59.6311 276.156C59.6181 276.128 59.6113 276.097 59.6113 276.066C59.6113 276.036 59.6181 276.005 59.6311 275.977C59.6442 275.95 59.6632 275.925 59.6868 275.905L59.6568 275.875Z" fill="#0095D9"/>
<path d="M60.8871 275.148C60.9249 275.119 60.971 275.104 61.0184 275.104C61.0657 275.104 61.1118 275.119 61.1496 275.148C61.5474 275.415 61.8681 275.782 62.0798 276.213C62.1923 276.445 61.8473 276.678 61.7272 276.438C61.5476 276.057 61.2675 275.733 60.9171 275.5C60.8897 275.483 60.8664 275.461 60.8491 275.434C60.8319 275.407 60.821 275.376 60.8174 275.344C60.8138 275.312 60.8175 275.28 60.8283 275.25C60.839 275.22 60.8566 275.192 60.8796 275.17L60.8871 275.148Z" fill="#0095D9"/>
<path d="M62.1548 274.465C62.1926 274.436 62.2387 274.421 62.2861 274.421C62.3335 274.421 62.3796 274.436 62.4174 274.465C62.817 274.731 63.1382 275.098 63.3475 275.53C63.4601 275.77 63.115 276.002 63.0025 275.762C62.8179 275.381 62.5358 275.055 62.1848 274.817C62.1587 274.801 62.1366 274.778 62.1202 274.752C62.1038 274.726 62.0934 274.696 62.0898 274.665C62.0862 274.634 62.0895 274.603 62.0994 274.574C62.1094 274.544 62.1257 274.517 62.1473 274.495L62.1548 274.465Z" fill="#0095D9"/>
<path d="M126.164 254.998L129.21 275.8L135.999 276.078L138.002 255.973L126.164 254.998Z" fill="#E9B376"/>
<path d="M141.865 285.35L126.682 285.5C126.682 285.5 126.344 284.87 126.682 283.167C126.732 282.907 126.807 282.614 126.907 282.289C126.907 282.289 126.907 282.289 126.907 282.244C127.049 281.772 127.207 281.194 127.372 280.564C128.04 278.021 128.827 274.69 128.827 274.69C128.827 274.69 131.303 269.251 134.273 270.572C136.876 271.734 136.299 275.133 136.299 275.133C136.604 276.601 137.397 277.923 138.549 278.883C139.779 279.956 140.995 280.789 141.595 282.132C141.706 282.394 141.793 282.665 141.857 282.942C141.861 282.977 141.861 283.012 141.857 283.047C142.001 283.808 142.004 284.588 141.865 285.35Z" fill="#263238"/>
<g opacity="0.2">
<path d="M126.712 283.167C126.352 284.869 126.712 285.499 126.712 285.499L141.895 285.349C142.053 284.581 142.065 283.79 141.932 283.017L126.712 283.167Z" fill="white"/>
</g>
<path d="M135.729 275.988C135.33 275.674 134.828 275.52 134.322 275.556C133.816 275.592 133.341 275.815 132.991 276.183C132.781 276.393 132.466 276.078 132.668 275.875C133.103 275.425 133.69 275.154 134.315 275.115C134.94 275.076 135.557 275.272 136.044 275.665C136.276 275.845 135.954 276.16 135.729 275.988Z" fill="#0095D9"/>
<path d="M136.171 277.405C135.773 277.09 135.271 276.935 134.764 276.971C134.258 277.007 133.783 277.232 133.433 277.6C133.223 277.803 132.908 277.488 133.111 277.285C133.545 276.835 134.134 276.564 134.759 276.526C135.384 276.489 136.001 276.687 136.486 277.083C136.719 277.255 136.396 277.578 136.171 277.405Z" fill="#0095D9"/>
<path d="M136.614 278.703C136.216 278.388 135.714 278.233 135.207 278.269C134.7 278.305 134.225 278.53 133.876 278.898C133.855 278.919 133.83 278.936 133.803 278.948C133.776 278.96 133.747 278.966 133.717 278.966C133.657 278.967 133.6 278.944 133.557 278.902C133.514 278.86 133.49 278.803 133.489 278.743C133.488 278.684 133.511 278.626 133.553 278.583C133.989 278.134 134.577 277.864 135.202 277.827C135.826 277.789 136.443 277.987 136.929 278.381C137.161 278.561 136.839 278.876 136.614 278.703Z" fill="#0095D9"/>
<path d="M141.28 123.41L109.481 123.988L89.5201 123.583C89.5201 123.583 76.1 184.137 75.0198 195.524C73.9396 206.912 64.3153 266.926 64.3153 266.926L79.8657 270.212C79.8657 270.212 96.879 205.982 98.0867 199.808C99.1444 194.437 111.064 159.921 114.11 151.144C114.44 152.929 114.785 154.722 115.13 156.508C116 164.565 118.791 190.266 119.991 199.808C119.991 199.808 122.931 254.435 125.879 270.279L140.477 270.159C142.187 247.609 142.645 168.458 142.645 168.458C143.553 151.227 141.28 123.41 141.28 123.41Z" fill="#263238"/>
<g opacity="0.5">
<path d="M97.7941 132.532C96.8835 135.569 95.239 138.335 93.0056 140.586C90.7723 142.836 88.019 144.502 84.9891 145.435C84.6666 145.533 84.8091 146.05 85.1392 145.945C88.2566 144.987 91.0896 143.274 93.3873 140.96C95.6849 138.645 97.3763 135.799 98.3117 132.675C98.3222 132.609 98.3081 132.542 98.2721 132.486C98.2362 132.43 98.1808 132.389 98.1167 132.372C98.0526 132.354 97.9842 132.36 97.9247 132.39C97.8651 132.42 97.8186 132.47 97.7941 132.532Z" fill="black"/>
<path d="M114.447 132.367C114.142 137.708 113.837 143.047 113.532 148.383C113.532 148.728 112.984 148.736 112.999 148.383C113.159 145.643 113.314 142.892 113.465 140.131C112.159 141.159 110.606 139.944 110.164 138.594C109.414 136.396 109.684 133.777 110.209 131.572C110.234 131.512 110.28 131.463 110.338 131.434C110.397 131.405 110.463 131.398 110.526 131.414C110.59 131.431 110.644 131.469 110.681 131.523C110.718 131.577 110.734 131.642 110.726 131.707C110.35 133.252 110.218 134.847 110.336 136.433C110.347 137.283 110.528 138.122 110.869 138.901C111.297 139.726 112.369 140.401 113.217 139.651C113.254 139.618 113.3 139.596 113.349 139.589C113.398 139.581 113.449 139.587 113.495 139.606C113.637 137.191 113.78 134.76 113.915 132.345C113.93 132.03 114.462 132.03 114.447 132.367Z" fill="black"/>
<path d="M130.14 133.125C130.152 136.531 131.451 139.806 133.775 142.294C136.099 144.783 139.278 146.302 142.675 146.546C143.013 146.546 143.005 146.043 142.675 146.021C139.414 145.785 136.363 144.324 134.136 141.93C131.909 139.536 130.672 136.387 130.673 133.118C130.673 133.048 130.645 132.981 130.596 132.932C130.547 132.883 130.48 132.855 130.41 132.855C130.341 132.855 130.274 132.883 130.225 132.932C130.175 132.981 130.148 133.048 130.148 133.118L130.14 133.125Z" fill="black"/>
</g>
<path d="M77.4952 49.7732C71.209 53.464 66.5056 75.8192 66.5056 75.8192L84.1039 81.5655L90.2101 68.7601L77.4952 49.7732Z" fill="#0095D9"/>
<path opacity="0.2" d="M81.6809 68.0775L80.6757 80.5303L76.2573 79.03C78.0427 74.2589 77.1575 56.6523 77.1575 56.6523C77.1575 56.6523 80.0605 64.9192 81.6809 68.0775Z" fill="black"/>
<path d="M80.9759 48.1601C85.4767 46.8698 100.435 41.6561 119.863 41.2585L128.812 60.3129L138.467 107.304C138.467 107.304 140.365 112.69 141.955 122.96C124.177 134.798 99.8344 134.543 85.6943 129.569C85.1392 123.508 86.0844 124.685 84.7641 113.005C82.4387 92.4353 78.0128 68.8274 77.2627 49.9906C77.3527 49.548 80.5258 48.3027 80.9759 48.1601Z" fill="#0095D9"/>
<path d="M108.056 41.6862C104.568 35.8274 99.2567 31.1838 99.3242 22.4968L88.5297 38.7006C89.0455 39.2514 89.5218 39.838 89.9549 40.456C90.7711 41.5554 91.288 42.8478 91.4552 44.2068C91.5602 45.3321 89.5574 47.7852 89.5574 47.7852C89.5574 47.7852 94.6583 50.5158 103.262 47.6201C108.386 45.9097 108.056 41.6862 108.056 41.6862Z" fill="#E9B376"/>
<path opacity="0.2" d="M97.3364 30.2085C100.217 36.6675 94.5308 42.0387 91.4703 44.1842C91.2968 42.8383 90.7801 41.5595 89.97 40.4709L97.3364 30.2085Z" fill="black"/>
<path d="M98.9868 18.2508C99.5869 26.8778 100.097 31.7539 96.3312 36.6601C90.6752 44.0643 79.8281 41.5962 76.6626 33.2918C73.812 25.7901 73.3169 12.9546 81.2759 8.53609C83.0395 7.55592 85.0228 7.03887 87.0404 7.03325C89.058 7.02763 91.0441 7.53363 92.8131 8.50396C94.5821 9.47429 96.0762 10.8773 97.1559 12.5818C98.2355 14.2863 98.8654 16.2368 98.9868 18.2508Z" fill="#E9B376"/>
<path d="M96.4137 6.00053C92.7305 1.12441 85.1016 4.74774 82.116 7.59089C81.6659 8.01099 89.1298 10.5916 88.6872 10.5166L90.9377 12.6471C91.2527 12.5345 91.6878 15.5127 92.1079 18.1008C92.4604 20.4705 93.4539 22.6988 94.9809 24.5448C96.4662 26.3669 98.1354 28.0311 99.9619 29.511C102.76 27.658 102.25 22.4293 102.79 19.2111C103.608 14.4025 104.05 5.35538 96.4137 6.00053Z" fill="#263238"/>
<path d="M103.307 24.9425C103.114 25.9991 102.713 27.007 102.129 27.9082C101.544 28.8095 100.788 29.5862 99.9018 30.1937C97.5088 31.7991 96.1886 29.1285 96.0835 26.3979C95.9785 23.9448 96.3011 20.8916 99.0841 20.3965C101.867 19.9014 103.757 22.3169 103.307 24.9425Z" fill="#E9B376"/>
<path d="M89.3025 22.0314C89.4225 22.9089 89.0474 23.6739 88.4698 23.7489C87.8922 23.8239 87.3371 23.1639 87.2246 22.2864C87.1121 21.4089 87.4796 20.6439 88.0572 20.5764C88.6348 20.5089 89.1899 21.1539 89.3025 22.0314Z" fill="#263238"/>
<path d="M79.4006 23.5165C79.5131 24.394 79.1456 25.159 78.568 25.2265C77.9903 25.294 77.4352 24.6415 77.3227 23.7715C77.2102 22.9015 77.5778 22.129 78.1554 22.054C78.733 21.979 79.2881 22.654 79.4006 23.5165Z" fill="#263238"/>
<path d="M81.2233 22.7744C81.2233 22.7744 79.0179 27.493 78.3578 29.3834C79.723 30.3212 81.7559 29.541 81.7559 29.541L81.2233 22.7744Z" fill="#D58745"/>
<path d="M88.6572 17.9129C88.5939 17.9513 88.5213 17.9716 88.4472 17.9716C88.3731 17.9716 88.3005 17.9513 88.2372 17.9129C87.7933 17.6363 87.2912 17.4665 86.7705 17.417C86.2497 17.3676 85.7246 17.4398 85.2366 17.6279C85.1879 17.6523 85.1348 17.6668 85.0805 17.6705C85.0261 17.6743 84.9716 17.6673 84.92 17.6498C84.8684 17.6324 84.8207 17.6049 84.7798 17.569C84.7388 17.533 84.7054 17.4894 84.6815 17.4404C84.6573 17.3923 84.6429 17.3398 84.6392 17.286C84.6356 17.2322 84.6427 17.1783 84.6602 17.1273C84.6776 17.0763 84.7051 17.0293 84.741 16.9891C84.7768 16.9488 84.8204 16.9161 84.869 16.8929C85.4743 16.6436 86.1302 16.5422 86.7825 16.597C87.4348 16.6518 88.0646 16.8612 88.6197 17.2079C88.6672 17.2344 88.7088 17.2701 88.7422 17.3129C88.7756 17.3558 88.8 17.4049 88.814 17.4574C88.828 17.5099 88.8313 17.5646 88.8237 17.6184C88.8161 17.6722 88.7977 17.7239 88.7698 17.7704C88.744 17.8261 88.7054 17.875 88.6572 17.9129Z" fill="#263238"/>
<path opacity="0.2" d="M97.4715 26.0974C97.4217 26.0974 97.374 26.0777 97.3388 26.0425C97.3037 26.0073 97.2839 25.9596 97.2839 25.9099C97.2665 25.1238 97.458 24.3471 97.839 23.6593C98.1414 23.0607 98.6426 22.5859 99.2568 22.3165C99.5795 22.1797 99.9358 22.1429 100.28 22.2112C100.623 22.2794 100.939 22.4494 101.185 22.6991C101.219 22.7342 101.238 22.7813 101.238 22.8304C101.238 22.8795 101.219 22.9266 101.185 22.9617C101.167 22.9798 101.146 22.9943 101.123 23.0041C101.1 23.014 101.075 23.0191 101.05 23.0191C101.024 23.0191 100.999 23.014 100.976 23.0041C100.953 22.9943 100.932 22.9798 100.915 22.9617C100.72 22.7727 100.474 22.6449 100.207 22.5942C99.9405 22.5436 99.6649 22.5722 99.4143 22.6766C98.8828 22.9187 98.4491 23.3339 98.1841 23.8544C97.8401 24.484 97.6668 25.1926 97.6815 25.9099C97.6815 25.9603 97.662 26.0088 97.627 26.0452C97.5921 26.0816 97.5444 26.103 97.494 26.1049L97.4715 26.0974Z" fill="black"/>
<path d="M74.2095 20.4034C74.1296 20.396 74.0537 20.3647 73.992 20.3134C73.9051 20.2453 73.8485 20.1457 73.8345 20.0363C73.8204 19.9268 73.8501 19.8162 73.9169 19.7284C74.3085 19.2052 74.8204 18.7841 75.4094 18.5008C75.9983 18.2175 76.6468 18.0803 77.3001 18.1009C77.3543 18.1053 77.407 18.1204 77.4554 18.1452C77.5038 18.17 77.5467 18.2041 77.5819 18.2456C77.6171 18.287 77.6438 18.335 77.6604 18.3867C77.677 18.4385 77.6833 18.493 77.6789 18.5471C77.6745 18.6013 77.6594 18.6541 77.6346 18.7024C77.6097 18.7508 77.5756 18.7938 77.5342 18.8289C77.4927 18.8641 77.4448 18.8908 77.393 18.9074C77.3413 18.924 77.2867 18.9303 77.2326 18.9259C76.7142 18.9092 76.1998 19.021 75.7351 19.2513C75.2705 19.4816 74.8701 19.8233 74.5696 20.2459C74.5265 20.299 74.4714 20.341 74.4087 20.3684C74.346 20.3959 74.2777 20.4078 74.2095 20.4034Z" fill="#263238"/>
<path d="M96.4138 6.00052C94.7553 3.92648 92.5641 2.34227 90.0748 1.41732C87.5855 0.492371 84.8916 0.261474 82.2812 0.74931C74.8473 2.03961 70.699 7.17829 70.2789 12.302C70.0873 14.0223 70.3297 15.7632 70.984 17.3656C71.067 17.5646 71.2088 17.7335 71.3904 17.8496C71.5721 17.9657 71.7848 18.0236 72.0003 18.0154C72.2157 18.0073 72.4235 17.9335 72.5958 17.8039C72.7681 17.6744 72.8967 17.4953 72.9644 17.2906C73.062 17.0341 73.1748 16.7836 73.302 16.5404C73.3264 16.6018 73.3539 16.6619 73.3845 16.7205C73.491 16.921 73.6585 17.0826 73.8627 17.1819C74.0669 17.2812 74.2974 17.3131 74.5209 17.2731C74.7444 17.233 74.9495 17.1231 75.1065 16.9591C75.2636 16.7951 75.3645 16.5855 75.3949 16.3604C75.42 16.031 75.4752 15.7045 75.5599 15.3852C75.6636 15.5658 75.8183 15.7118 76.0047 15.8048C76.191 15.8979 76.4007 15.9338 76.6073 15.9082C76.814 15.8825 77.0085 15.7965 77.1665 15.6607C77.3245 15.525 77.4388 15.3456 77.4953 15.1451C77.8308 14.1243 78.3772 13.1854 79.0989 12.3893C79.8207 11.5932 80.7017 10.9578 81.6849 10.5242C82.6681 10.0905 83.7314 9.86847 84.806 9.87233C85.8805 9.8762 86.9422 10.1059 87.9222 10.5466L90.9828 12.617C94.726 10.7416 96.4138 6.00052 96.4138 6.00052Z" fill="#263238"/>
<path d="M85.6042 32.0765C86.6442 32.5909 87.6468 33.1774 88.6048 33.8319C88.7398 33.6818 88.8899 33.5393 89.0249 33.3818C90.9227 31.3338 91.1328 29.7584 90.7802 28.6332C90.5941 28.0845 90.2835 27.5863 89.8726 27.1778C89.651 26.9467 89.3986 26.7472 89.1224 26.5852C88.7623 28.2731 87.1495 30.3361 86.2344 31.3713C85.8068 31.8064 85.6042 32.0765 85.6042 32.0765Z" fill="#263238"/>
<path d="M86.1893 31.3713L87.097 31.8589C88.8748 29.931 89.88 28.3406 89.85 27.1778C89.6289 26.9462 89.3764 26.7467 89.0999 26.5852C88.7248 28.2881 87.1045 30.3136 86.1893 31.3713Z" fill="white"/>
<path d="M89.0024 33.3819C90.9077 31.3339 91.1178 29.7586 90.7577 28.6333C90.0501 29.423 89.4888 30.3324 89.0999 31.3189C88.8542 31.9798 88.8201 32.7008 89.0024 33.3819Z" fill="#C15854"/>
<path d="M88.2297 46.945L91.0278 42.429L97.5315 47.1251L104.898 36.7427L110.606 41.9564L103.158 53.479L94.7035 52.7814L88.2297 46.945Z" fill="#0095D9"/>
<path d="M160.191 58.1526C157.003 54.4017 135.684 48.2503 131.175 46.6074L124.687 60.058L130.305 61.3708L152.404 67.0722L157.423 74.0262C158.733 72.5026 159.867 70.8368 160.806 69.0601C162.524 65.9469 161.691 59.908 160.191 58.1526Z" fill="#E9B376"/>
<path opacity="0.2" d="M142.517 49.8555L139.074 63.6437L131.775 61.9033L134.311 47.4099C134.311 47.4099 138.114 48.6402 142.517 49.8555Z" fill="black"/>
<path d="M114.012 43.6592C112.714 47.9427 113.329 55.662 119.871 59.1203C124.522 61.5884 135.361 65.0467 135.361 65.0467L143.23 47.5526C143.23 47.5526 116.172 36.5251 114.012 43.6592Z" fill="#0095D9"/>
<path opacity="0.3" d="M129.36 63.0062L122.496 59.7505L130.178 66.9597L129.36 63.0062Z" fill="black"/>
<g opacity="0.2">
<path d="M115.55 120.402C119.601 119.487 122.946 115.211 124.687 111.445C126.141 108.034 127.413 104.548 128.497 101.002L121.356 110.215C119.973 112.166 118.345 113.931 116.51 115.466C113.877 117.476 110.621 118.466 107.411 119.269C103.252 120.3 99.0297 121.052 94.771 121.52C101.711 122.3 108.733 121.922 115.55 120.402Z" fill="black"/>
</g>
<path d="M105.581 50.9807C105.581 50.9807 104.358 48.9478 102.775 48.4827C101.192 48.0175 99.9545 47.1399 98.7693 46.8848C97.5841 46.6297 97.9667 48.0626 98.7168 48.7377C99.467 49.4129 101.117 50.2381 100.69 50.8082C100.262 51.3783 94.9286 52.7586 94.426 53.5988C93.9234 54.439 94.8761 54.5516 94.8761 54.5516C94.8761 54.5516 93.6834 54.8816 93.6608 55.6318C93.6383 56.382 94.471 56.472 94.471 56.472C94.471 56.472 93.6834 56.7271 93.9834 57.4172C94.2835 58.1074 99.2344 57.4172 99.4895 57.5298C99.4895 57.5298 96.3989 57.4547 96.2339 58.3474C96.0688 59.2401 97.7866 59.3902 99.1744 59.5552C100.628 59.6541 102.077 59.3087 103.33 58.565C104.83 57.7098 107.081 57.0046 106.953 55.0092C106.771 53.5878 106.304 52.2177 105.581 50.9807Z" fill="#E9B376"/>
<path d="M129.698 33.7869C126.314 36.7876 121.108 45.7897 118.783 46.3598C116.458 46.9299 105.858 51.5285 105.858 51.5285L106.338 57.0798C106.338 57.0798 120.298 55.9095 123.659 54.0791C127.02 52.2487 135.414 45.3921 137.086 42.2189C140.267 36.1575 132.706 30.8612 129.698 33.7869Z" fill="#0095D9"/>
<g opacity="0.3">
<path d="M129.698 33.7869C126.314 36.7876 121.108 45.7897 118.783 46.3598C116.458 46.9299 105.858 51.5285 105.858 51.5285L106.338 57.0798C106.338 57.0798 120.298 55.9095 123.659 54.0791C127.02 52.2487 135.414 45.3921 137.086 42.2189C140.267 36.1575 132.706 30.8612 129.698 33.7869Z" fill="white"/>
</g>
</svg>
