<svg width="30" height="30" viewBox="0 0 30 30" fill="none" xmlns="http://www.w3.org/2000/svg">
<path d="M14.9999 25.8C21.1302 25.8 26.0999 20.8303 26.0999 14.7C26.0999 8.56962 21.1302 3.59998 14.9999 3.59998C8.86955 3.59998 3.8999 8.56962 3.8999 14.7C3.8999 20.8303 8.86955 25.8 14.9999 25.8Z" stroke="black" stroke-width="1.8" stroke-linecap="round" stroke-linejoin="round"/>
<path d="M16.1171 9.78008C16.1107 10.0708 15.99 10.3473 15.7811 10.5495C15.572 10.7517 15.2917 10.8633 15.001 10.86C14.789 10.853 14.584 10.7837 14.4112 10.6608C14.2382 10.5379 14.1055 10.3669 14.0293 10.169C13.953 9.97115 13.9367 9.75521 13.9824 9.54812C14.028 9.34105 14.1336 9.15206 14.286 9.0046C14.4384 8.85714 14.6308 8.75779 14.8392 8.71896C15.0476 8.68012 15.263 8.70349 15.4583 8.7862C15.6535 8.86889 15.8201 9.00722 15.9372 9.18397C16.0544 9.36071 16.117 9.56804 16.1171 9.78008ZM14.1491 19.8361V13.3801C14.1458 13.2667 14.1655 13.1538 14.207 13.0483C14.2486 12.9429 14.311 12.8469 14.3906 12.7662C14.4702 12.6855 14.5654 12.6216 14.6702 12.5787C14.7751 12.5357 14.8877 12.5143 15.001 12.516C15.1128 12.5159 15.2236 12.5385 15.3264 12.5824C15.4292 12.6262 15.5222 12.6904 15.5996 12.7711C15.677 12.8519 15.7372 12.9474 15.7766 13.0521C15.8161 13.1567 15.8339 13.2683 15.829 13.3801V19.8361C15.829 19.9464 15.8072 20.0556 15.7651 20.1575C15.7229 20.2594 15.661 20.352 15.583 20.43C15.505 20.508 15.4124 20.5698 15.3106 20.6121C15.2086 20.6543 15.0994 20.676 14.9891 20.676C14.8788 20.676 14.7695 20.6543 14.6676 20.6121C14.5657 20.5698 14.4731 20.508 14.3951 20.43C14.3171 20.352 14.2552 20.2594 14.213 20.1575C14.1708 20.0556 14.1491 19.9464 14.1491 19.8361Z" fill="black"/>
</svg>
