<svg width="48" height="48" viewBox="0 0 48 48" fill="none" xmlns="http://www.w3.org/2000/svg">
<circle cx="24" cy="24" r="24" fill="#0095D9"/>
<circle cx="24" cy="24" r="21" fill="white"/>
<path d="M29.3233 30.2137C28.2481 29.82 26.6802 28.6704 26.6802 27.9547C26.6802 27.4805 26.6802 26.8882 26.6802 26.0763C27.3015 25.3993 27.774 24.0249 28.0548 22.4669C28.7098 22.2379 29.0841 21.8714 29.5517 20.268C30.0487 18.56 28.8032 18.618 28.8032 18.618C29.8107 15.3521 28.4845 12.2828 26.2632 12.5081C24.731 9.88314 19.5991 13.1077 17.9912 12.883C17.9912 13.7832 18.374 14.4582 18.374 14.4582C17.815 15.4975 18.0306 17.5699 18.1876 18.618C18.0968 18.6165 16.9704 18.628 17.4482 20.268C17.9159 21.8714 18.2901 22.2379 18.9451 22.4669C19.2254 24.0249 19.6979 25.3993 20.3198 26.0763C20.3198 26.8882 20.3198 27.4805 20.3198 27.9547C20.3198 28.6704 18.6542 29.876 17.6768 30.2137C15.6572 30.9101 10.6945 32.9129 11.0148 36.6645C11.0916 37.5648 16.1467 38.499 23.5 38.499C30.8528 38.499 35.9084 37.5648 35.9852 36.6645C36.3055 32.9093 31.3301 30.9488 29.3233 30.2137Z" fill="black"/>
</svg>
