<svg width="21" height="25" viewBox="0 0 21 25" fill="none" xmlns="http://www.w3.org/2000/svg">
<path d="M1.5 21.4444V5.08889C1.5 3.65765 1.5 2.94202 1.74524 2.39536C1.96095 1.91449 2.30515 1.52354 2.72852 1.27854C3.20982 1 3.83989 1 5.1 1H15.9C17.1601 1 17.7902 1 18.2715 1.27854C18.6948 1.52354 19.0391 1.91449 19.2547 2.39536C19.5 2.94202 19.5 3.65765 19.5 5.08889V18.8889H3.75C2.50736 18.8889 1.5 20.033 1.5 21.4444ZM1.5 21.4444C1.5 22.8559 2.50736 24 3.75 24H19.5M7.125 6.11111H13.875M7.125 11.2222H13.875M18.375 18.8889V24" stroke="#2C6884" stroke-width="2" stroke-linecap="round" stroke-linejoin="round"/>
</svg>
