<svg width="25" height="23" viewBox="0 0 25 23" fill="none" xmlns="http://www.w3.org/2000/svg">
<path d="M3.83995 4.33202C4.95713 4.33202 5.86222 3.36188 5.86222 2.16624C5.86222 0.969352 4.95713 0 3.83995 0C2.72241 0 1.81738 0.969352 1.81738 2.16624C1.81733 3.36188 2.72241 4.33202 3.83995 4.33202Z" fill="#2C6884"/>
<path d="M12.4857 10.0739V10.0772C12.4906 10.0772 12.4952 10.0755 12.5001 10.0755C12.505 10.0755 12.5095 10.0772 12.5144 10.0772V10.0739C13.2743 10.0573 13.8856 9.39534 13.8856 8.57822C13.8856 7.75989 13.2743 7.0983 12.5144 7.08172V7.07843C12.5095 7.07843 12.5049 7.08005 12.5001 7.08005C12.4952 7.08005 12.4906 7.07843 12.4857 7.07843V7.08172C11.7258 7.0983 11.1145 7.75989 11.1145 8.57822C11.1145 9.39534 11.7258 10.0573 12.4857 10.0739Z" fill="#2C6884"/>
<path d="M21.1602 4.33202C22.2777 4.33202 23.1828 3.36188 23.1828 2.16624C23.1828 0.969352 22.2777 0 21.1602 0C20.043 0 19.1379 0.969352 19.1379 2.16624C19.138 3.36188 20.0431 4.33202 21.1602 4.33202Z" fill="#2C6884"/>
<path d="M22.954 5.35806H21.181H20.2823C19.2517 5.35806 18.3081 5.97677 17.8393 6.95946L16.2038 12.0827C16.1475 12.2002 16.0428 12.2835 15.921 12.3066C15.7993 12.3298 15.6745 12.2905 15.5834 12.2002L14.566 11.2568C14.2617 10.9551 13.8625 10.7875 13.4478 10.7875H12.5H11.5523C11.1375 10.7875 10.7384 10.9551 10.434 11.2568L9.41667 12.2002C9.32556 12.2905 9.2008 12.3298 9.07907 12.3066C8.95739 12.2835 8.85265 12.2002 8.79631 12.0827L7.16081 6.95946C6.69205 5.97677 5.7484 5.35806 4.71783 5.35806H3.8191H2.046C1.06612 5.35806 0 6.49989 0 7.54983V14.83C0 15.3547 0.396973 15.7802 0.886916 15.7802C1.12808 15.7802 0.886916 15.7802 1.50616 15.7802L1.84336 21.989C1.84336 22.5473 2.26641 23 2.7877 23C3.00772 23 3.41339 23 3.81905 23C4.22472 23 4.63038 23 4.8504 23C5.37169 23 5.79474 22.5473 5.79474 21.989L6.13195 15.7802L6.1278 11.3473C6.1278 11.2773 6.17242 11.217 6.23629 11.2C6.30021 11.1837 6.36559 11.2161 6.39547 11.2785L7.69293 14.6987C7.84948 15.0259 8.13981 15.2559 8.4778 15.3202C8.81579 15.3846 9.16247 15.2761 9.41462 15.0267L10.6561 14.0472C10.6977 14.0064 10.7578 13.9958 10.8092 14.0189C10.8611 14.0436 10.8944 14.0983 10.8944 14.1582L10.8989 18.0023L11.1322 22.3003C11.1322 22.6866 11.4252 23 11.7862 23C11.9382 23 12.2191 23 12.5 23C12.7809 23 13.0618 23 13.2137 23C13.5748 23 13.8678 22.6866 13.8678 22.3003L14.1011 18.0023L14.1056 14.1582C14.1056 14.0982 14.1388 14.0436 14.1907 14.0189C14.2421 13.9958 14.3022 14.0064 14.3438 14.0472L15.5853 15.0267C15.8375 15.2761 16.1842 15.3846 16.5222 15.3202C16.8601 15.2559 17.1505 15.0259 17.307 14.6987L18.6045 11.2785C18.6343 11.2162 18.6997 11.1837 18.7636 11.2C18.8275 11.217 18.8721 11.2773 18.8721 11.3473L18.868 15.7802L19.2052 21.989C19.2052 22.5473 19.6282 23 20.1496 23C20.3696 23 20.7752 23 21.1809 23C21.5866 23 21.9922 23 22.2122 23C22.7335 23 23.1566 22.5473 23.1566 21.989L23.4938 15.7802C24.1131 15.7802 23.8719 15.7802 24.1131 15.7802C24.603 15.7802 25 15.3547 25 14.83V7.54983C25 6.49989 23.9339 5.35806 22.954 5.35806Z" fill="#2C6884"/>
</svg>
