<svg width="53" height="53" viewBox="0 0 53 53" fill="none" xmlns="http://www.w3.org/2000/svg">
<rect x="1.5" y="1.5" width="50" height="50" rx="4" stroke="#EBEBEB" stroke-width="2"/>
<path d="M16.5 24.2778H36.5M20.9444 16.5V18.7222M32.0556 16.5V18.7222M20.0556 36.5H32.9444C34.189 36.5 34.8113 36.5 35.2867 36.2578C35.7048 36.0448 36.0448 35.7048 36.2578 35.2867C36.5 34.8113 36.5 34.189 36.5 32.9444V22.2778C36.5 21.0332 36.5 20.4109 36.2578 19.9356C36.0448 19.5174 35.7048 19.1775 35.2867 18.9644C34.8113 18.7222 34.189 18.7222 32.9444 18.7222H20.0556C18.811 18.7222 18.1887 18.7222 17.7134 18.9644C17.2952 19.1775 16.9553 19.5174 16.7422 19.9356C16.5 20.4109 16.5 21.0332 16.5 22.2778V32.9444C16.5 34.189 16.5 34.8113 16.7422 35.2867C16.9553 35.7048 17.2952 36.0448 17.7134 36.2578C18.1887 36.5 18.811 36.5 20.0556 36.5Z" stroke="white" stroke-width="2" stroke-linecap="round" stroke-linejoin="round"/>
</svg>
