<svg width="27" height="27" viewBox="0 0 27 27" fill="none" xmlns="http://www.w3.org/2000/svg">
<path d="M4.30812 6.43699C4.16559 6.43659 4.02454 6.4081 3.89303 6.35314C3.76153 6.29818 3.64215 6.21784 3.54172 6.1167C3.44129 6.01556 3.36178 5.89562 3.30775 5.76373C3.25372 5.63184 3.22621 5.4906 3.22682 5.34807V2.08689C3.22614 1.79939 3.33967 1.52339 3.54244 1.31957C3.74521 1.11576 4.02062 1.00081 4.30812 1C4.59562 1.00081 4.87103 1.11576 5.0738 1.31957C5.27657 1.52339 5.39009 1.79939 5.38942 2.08689V5.34807C5.39002 5.4906 5.36252 5.63184 5.30848 5.76373C5.25445 5.89562 5.17495 6.01556 5.07452 6.1167C4.97409 6.21784 4.85471 6.29818 4.7232 6.35314C4.5917 6.4081 4.45064 6.43659 4.30812 6.43699Z" stroke="#2C6884" stroke-linecap="round" stroke-linejoin="round"/>
<path d="M21.6102 2.08688H5.38965V5.34755H21.6102V2.08688Z" stroke="#2C6884" stroke-linecap="round" stroke-linejoin="round"/>
<path d="M21.6102 5.34808H5.38965V21.6525H21.6102V5.34808Z" stroke="#2C6884" stroke-linecap="round" stroke-linejoin="round"/>
<path d="M2.23679 2.47763H3.22713V4.9573H2.23679C2.07437 4.9573 1.91354 4.92531 1.76349 4.86316C1.61344 4.80101 1.47709 4.7099 1.36225 4.59506C1.1303 4.36312 1 4.04853 1 3.72052V3.71391C1.00013 3.38598 1.1305 3.07153 1.36243 2.8397C1.59435 2.60786 1.90886 2.47763 2.23679 2.47763Z" stroke="#2C6884" stroke-linecap="round" stroke-linejoin="round"/>
<path d="M22.6917 6.43699C22.9792 6.43618 23.2546 6.32124 23.4573 6.11742C23.6601 5.9136 23.7736 5.6376 23.773 5.3501V2.08689C23.7736 1.79939 23.6601 1.52339 23.4573 1.31957C23.2546 1.11576 22.9792 1.00081 22.6917 1C22.4042 1.00081 22.1288 1.11576 21.926 1.31957C21.7232 1.52339 21.6097 1.79939 21.6104 2.08689V5.34807C21.6098 5.4906 21.6373 5.63184 21.6913 5.76373C21.7453 5.89562 21.8248 6.01556 21.9253 6.1167C22.0257 6.21784 22.1451 6.29818 22.2766 6.35314C22.4081 6.4081 22.5491 6.43659 22.6917 6.43699Z" stroke="#2C6884" stroke-linecap="round" stroke-linejoin="round"/>
<path d="M24.7632 4.95732H23.7729V2.47764L24.7632 2.47764C25.0912 2.47764 25.4058 2.60795 25.6378 2.83989C25.8697 3.07183 26 3.38641 26 3.71443V3.72104C26 4.04905 25.8697 4.36363 25.6378 4.59558C25.4058 4.82752 25.0912 4.95782 24.7632 4.95782V4.95732Z" stroke="#2C6884" stroke-linecap="round" stroke-linejoin="round"/>
<path d="M4.30812 20.563C4.02062 20.5638 3.74521 20.6787 3.54244 20.8826C3.33967 21.0864 3.22614 21.3624 3.22682 21.6499V24.9111C3.22621 25.0536 3.25372 25.1948 3.30775 25.3267C3.36178 25.4586 3.44129 25.5786 3.54172 25.6797C3.64215 25.7808 3.76153 25.8612 3.89303 25.9161C4.02454 25.9711 4.16559 25.9996 4.30812 26C4.59562 25.9992 4.87103 25.8842 5.0738 25.6804C5.27657 25.4766 5.39009 25.2006 5.38942 24.9131V21.6519C5.39002 21.5094 5.36252 21.3681 5.30848 21.2362C5.25445 21.1044 5.17495 20.9844 5.07452 20.8833C4.97409 20.7821 4.85471 20.7018 4.7232 20.6468C4.5917 20.5919 4.45064 20.5634 4.30812 20.563Z" stroke="#2C6884" stroke-linecap="round" stroke-linejoin="round"/>
<path d="M21.6102 21.6519H5.38965V24.9126H21.6102V21.6519Z" stroke="#2C6884" stroke-linecap="round" stroke-linejoin="round"/>
<path d="M2.23679 22.0427H3.22713V24.5224H2.23679C2.07437 24.5224 1.91354 24.4904 1.76349 24.4283C1.61344 24.3661 1.47709 24.275 1.36225 24.1602C1.2474 24.0453 1.1563 23.909 1.09414 23.7589C1.03199 23.6089 1 23.448 1 23.2856V23.279C1.00013 22.9511 1.1305 22.6366 1.36243 22.4048C1.59435 22.173 1.90886 22.0427 2.23679 22.0427Z" stroke="#2C6884" stroke-linecap="round" stroke-linejoin="round"/>
<path d="M22.6917 20.563C22.9792 20.5638 23.2546 20.6787 23.4573 20.8826C23.6601 21.0864 23.7736 21.3624 23.773 21.6499V24.9111C23.7736 25.0536 23.7461 25.1948 23.692 25.3267C23.638 25.4586 23.5585 25.5786 23.4581 25.6797C23.3576 25.7808 23.2383 25.8612 23.1067 25.9161C22.9752 25.9711 22.8342 25.9996 22.6917 26C22.4042 25.9992 22.1288 25.8842 21.926 25.6804C21.7232 25.4766 21.6097 25.2006 21.6104 24.9131V21.6519C21.6098 21.5094 21.6373 21.3681 21.6913 21.2362C21.7453 21.1044 21.8248 20.9844 21.9253 20.8833C22.0257 20.7821 22.1451 20.7018 22.2766 20.6468C22.4081 20.5919 22.5491 20.5634 22.6917 20.563Z" stroke="#2C6884" stroke-linecap="round" stroke-linejoin="round"/>
<path d="M24.7632 24.5224H23.7729V22.0427H24.7632C25.0912 22.0427 25.4058 22.173 25.6378 22.405C25.8697 22.6369 26 22.9515 26 23.2795V23.2861C26 23.6141 25.8697 23.9287 25.6378 24.1606C25.4058 24.3926 25.0912 24.5229 24.7632 24.5229V24.5224Z" stroke="#2C6884" stroke-linecap="round" stroke-linejoin="round"/>
<path d="M7.77881 7.61127H13.4998" stroke="#2C6884" stroke-linecap="round" stroke-linejoin="round"/>
<path d="M7.77881 9.96698H19.3566" stroke="#2C6884" stroke-linecap="round" stroke-linejoin="round"/>
<path d="M7.77881 12.3221H19.3566" stroke="#2C6884" stroke-linecap="round" stroke-linejoin="round"/>
<path d="M7.77881 14.6779H19.3566" stroke="#2C6884" stroke-linecap="round" stroke-linejoin="round"/>
<path d="M7.77881 17.033H19.3566" stroke="#2C6884" stroke-linecap="round" stroke-linejoin="round"/>
<path d="M13.5 19.3887H19.3567" stroke="#2C6884" stroke-linecap="round" stroke-linejoin="round"/>
</svg>
