<svg width="25" height="23" viewBox="0 0 25 23" fill="none" xmlns="http://www.w3.org/2000/svg">
<path d="M16.8987 8.7386H7.88608V7.64628H16.8987V8.7386ZM11.4123 20.7542L12.611 21.8465H2.81646C1.26403 21.8465 0 20.1316 0 18.0234C0 15.9152 1.26403 14.2002 2.81646 14.2002H4.50633V4.09622C4.50633 1.83729 5.77036 0 7.32279 0H21.9684C23.5208 0 24.7285 1.71495 24.7285 3.82314C24.7285 5.93133 23.5208 7.64628 21.9684 7.64628H20.2785V15.4433L19.1519 16.5127V4.09622C19.1421 3.05354 19.3893 2.02367 19.8729 1.09233H7.32279C6.52517 1.09233 5.63291 2.3769 5.63291 4.09622V14.2002H17.5409L16.741 15.1025C16.077 15.9369 15.7343 16.97 15.7722 18.0234C15.7724 18.2762 15.7901 18.5287 15.8251 18.7793L14.6625 17.7186C14.6903 16.8776 14.8983 16.0514 15.2731 15.2926H2.81646C1.91632 15.2926 1.12658 16.5684 1.12658 18.0234C1.12658 19.4783 1.91632 20.7542 2.81646 20.7542H11.4123ZM20.2785 6.55395H21.9684C22.8685 6.55395 23.7146 5.27812 23.7146 3.82314C23.7146 2.36816 22.8685 1.09233 21.9684 1.09233H21.2057C20.5755 1.97277 20.2508 3.02487 20.2785 4.09622V6.55395ZM7.88608 12.0156H16.8987V10.9233H7.88608V12.0156ZM16.8987 4.3693H7.88608V5.46163H16.8987V4.3693ZM24.2114 14.0025L16.3276 21.486L13.1371 18.5772L12.3654 19.3724L16.3422 23L25 14.7835L24.2114 14.0025Z" fill="#2C6884"/>
</svg>
