<svg width="53" height="53" viewBox="0 0 53 53" fill="none" xmlns="http://www.w3.org/2000/svg">
<rect x="1.5" y="1.5" width="50" height="50" rx="4" stroke="#EBEBEB" stroke-width="2"/>
<path d="M24.7546 27.2343C25.5502 27.2343 26.3279 26.9976 26.9893 26.5541C27.6508 26.1107 28.1664 25.4804 28.4708 24.7429C28.7753 24.0055 28.8549 23.194 28.6997 22.4111C28.5445 21.6282 28.1614 20.9091 27.5989 20.3447C27.0363 19.7803 26.3196 19.3959 25.5393 19.2402C24.7591 19.0845 23.9503 19.1644 23.2153 19.4699C22.4803 19.7753 21.8521 20.2926 21.4101 20.9563C20.9681 21.62 20.7322 22.4003 20.7322 23.1985C20.7339 24.2683 21.1583 25.2938 21.9123 26.0503C22.6662 26.8068 23.6883 27.2325 24.7546 27.2343ZM24.7546 20.4901C25.2872 20.4901 25.8078 20.6486 26.2506 20.9454C26.6934 21.2423 27.0385 21.6642 27.2423 22.1579C27.4461 22.6516 27.4995 23.1948 27.3956 23.7189C27.2917 24.2429 27.0352 24.7243 26.6586 25.1022C26.282 25.48 25.8023 25.7373 25.2799 25.8415C24.7576 25.9458 24.2162 25.8923 23.7241 25.6878C23.2321 25.4833 22.8116 25.137 22.5157 24.6928C22.2198 24.2485 22.0619 23.7261 22.0619 23.1918C22.0637 22.4758 22.3479 21.7897 22.8525 21.2834C23.3571 20.7771 24.041 20.4919 24.7546 20.4901ZM32.959 35.3593C32.8972 35.2968 32.8237 35.2471 32.7426 35.2133C32.6616 35.1794 32.5747 35.162 32.487 35.162C32.3992 35.162 32.3123 35.1794 32.2313 35.2133C32.1502 35.2471 32.0767 35.2968 32.0149 35.3593C31.9544 35.4227 31.9069 35.4975 31.8753 35.5794C31.8412 35.6596 31.8231 35.7457 31.8221 35.8329C31.8221 36.0098 31.8921 36.1795 32.0168 36.3046C32.1415 36.4297 32.3106 36.5 32.487 36.5C32.6633 36.5 32.8324 36.4297 32.9571 36.3046C33.0818 36.1795 33.1518 36.0098 33.1518 35.8329C33.1508 35.7457 33.1327 35.6596 33.0986 35.5794C33.067 35.4975 33.0195 35.4227 32.959 35.3593ZM29.8275 35.1658H27.1681C26.9917 35.1658 26.8226 35.2361 26.6979 35.3612C26.5732 35.4863 26.5032 35.656 26.5032 35.8329C26.5032 36.0098 26.5732 36.1795 26.6979 36.3046C26.8226 36.4297 26.9917 36.5 27.1681 36.5H29.8275C30.0038 36.5 30.1729 36.4297 30.2976 36.3046C30.4223 36.1795 30.4924 36.0098 30.4924 35.8329C30.4924 35.656 30.4223 35.4863 30.2976 35.3612C30.1729 35.2361 30.0038 35.1658 29.8275 35.1658Z" fill="white"/>
<path d="M32.02 33.7836H32.0667C32.1022 33.7623 32.1357 33.7377 32.1667 33.7102L32.2467 33.6434C32.2776 33.6064 32.3044 33.5661 32.3267 33.5233C32.3772 33.4578 32.4074 33.3789 32.4133 33.2964C32.4169 33.2564 32.4169 33.2162 32.4133 33.1762C32.4178 33.1318 32.4178 33.0871 32.4133 33.0427C32.416 33.0094 32.416 32.9759 32.4133 32.9426C31.8283 31.3811 30.7832 30.0343 29.4165 29.0808C28.0497 28.1273 26.4259 27.612 24.76 27.6032C22.5831 27.6256 20.5012 28.4986 18.9581 30.0359C17.415 31.5733 16.5329 33.6534 16.5 35.8326C16.5 36.0096 16.5702 36.1793 16.6953 36.3045C16.8203 36.4297 16.9899 36.5 17.1667 36.5H24.5C24.6768 36.5 24.8464 36.4297 24.9714 36.3045C25.0964 36.1793 25.1667 36.0096 25.1667 35.8326C25.1667 35.6556 25.0964 35.4858 24.9714 35.3606C24.8464 35.2355 24.6768 35.1652 24.5 35.1652H17.8867C18.0662 33.4624 18.864 31.8849 20.1286 30.7321C21.3932 29.5792 23.0365 28.9314 24.7467 28.9114C26.1456 28.9194 27.5091 29.3534 28.6558 30.1557C29.8025 30.9581 30.6783 32.0907 31.1667 33.4032V33.4565C31.2347 33.5888 31.345 33.6945 31.48 33.7569H31.5133C31.5889 33.7904 31.6707 33.8076 31.7533 33.8076C31.836 33.8076 31.9177 33.7904 31.9933 33.7569L32.02 33.7836ZM27.62 18.4128C27.8626 18.1949 28.1488 18.0313 28.4595 17.9329C28.7703 17.8345 29.0984 17.8035 29.422 17.842C29.7457 17.8805 30.0574 17.9876 30.3364 18.1562C30.6154 18.3248 30.8554 18.551 31.0402 18.8197C31.2251 19.0884 31.3506 19.3935 31.4084 19.7146C31.4662 20.0358 31.4549 20.3655 31.3754 20.6819C31.2959 20.9984 31.15 21.2942 30.9473 21.5497C30.7446 21.8052 30.4898 22.0145 30.2 22.1637C30.1216 22.2032 30.0518 22.2577 29.9945 22.3241C29.9372 22.3906 29.8935 22.4677 29.866 22.5511C29.8384 22.6344 29.8275 22.7224 29.8339 22.81C29.8404 22.8975 29.8639 22.983 29.9033 23.0614C29.9427 23.1399 29.9972 23.2098 30.0636 23.2671C30.1299 23.3245 30.207 23.3683 30.2902 23.3958C30.3735 23.4234 30.4614 23.4343 30.5488 23.4279C30.6363 23.4215 30.7216 23.3979 30.8 23.3584C31.2583 23.1221 31.6609 22.7906 31.9811 22.3862C32.3014 21.9817 32.5318 21.5136 32.657 21.013C32.7823 20.5124 32.7995 19.9908 32.7075 19.483C32.6156 18.9752 32.4165 18.4928 32.1237 18.0681C31.8308 17.6434 31.4509 17.2861 31.0092 17.02C30.5675 16.7538 30.0743 16.585 29.5623 16.5248C29.0503 16.4646 28.5314 16.5143 28.0401 16.6707C27.5489 16.8271 27.0965 17.0865 26.7133 17.4317C26.649 17.4913 26.597 17.563 26.5603 17.6427C26.5237 17.7224 26.503 17.8086 26.4996 17.8963C26.4962 17.984 26.5101 18.0715 26.5405 18.1538C26.5709 18.2361 26.6171 18.3117 26.6767 18.3761C26.7362 18.4405 26.8078 18.4926 26.8874 18.5293C26.9671 18.566 27.0531 18.5866 27.1407 18.59C27.2283 18.5935 27.3157 18.5796 27.398 18.5491C27.4802 18.5187 27.5557 18.4724 27.62 18.4128ZM29.9 23.9324C29.7232 23.9147 29.5466 23.968 29.4091 24.0807C29.2715 24.1933 29.1843 24.3561 29.1667 24.5331C29.149 24.7101 29.2023 24.8869 29.3148 25.0246C29.4273 25.1623 29.5899 25.2495 29.7667 25.2673C31.124 25.432 32.387 26.0475 33.3539 27.0154C34.3207 27.9833 34.9355 29.2477 35.1 30.6066H33.1667C32.9899 30.6066 32.8203 30.677 32.6953 30.8021C32.5702 30.9273 32.5 31.0971 32.5 31.2741C32.5 31.4511 32.5702 31.6208 32.6953 31.746C32.8203 31.8712 32.9899 31.9415 33.1667 31.9415H35.8333C36.0101 31.9415 36.1797 31.8712 36.3047 31.746C36.4298 31.6208 36.5 31.4511 36.5 31.2741C36.4756 29.4574 35.7929 27.7114 34.5788 26.3609C33.3648 25.0104 31.7021 24.1474 29.9 23.9324Z" fill="white"/>
</svg>
