<svg width="25" height="25" viewBox="0 0 25 25" fill="none" xmlns="http://www.w3.org/2000/svg">
<path d="M12.4999 0C7.89746 0 4.1665 3.73096 4.1665 8.33337C4.1665 11.3506 5.78838 14.0717 8.33315 15.5419V17.7084V21.875C8.33315 22.4503 8.79951 22.9167 9.3748 22.9167V23.9583C9.3748 24.5336 9.84116 25 10.4165 25H14.5831C15.1584 25 15.6248 24.5336 15.6248 23.9583V22.9167C16.2 22.9167 16.6664 22.4503 16.6664 21.875V17.7084V15.5419C19.2112 14.0717 20.8331 11.3505 20.8331 8.33337C20.8332 3.73096 17.1022 0 12.4999 0ZM14.5832 20.8334C14.0079 20.8334 13.5416 21.2997 13.5416 21.875V22.9167H11.4582V21.875C11.4582 21.2997 10.9918 20.8334 10.4166 20.8334V18.75H14.5832V20.8334ZM15.1774 13.9729C14.8144 14.1455 14.5832 14.5116 14.5832 14.9136V16.6667H10.4165V14.9136C10.4165 14.5116 10.1853 14.1455 9.82227 13.9729C7.65679 12.9428 6.24985 10.7667 6.24985 8.33337C6.24985 4.88155 9.04805 2.08335 12.4999 2.08335C15.9517 2.08335 18.7499 4.88155 18.7499 8.33337C18.7499 10.7667 17.3429 12.9428 15.1774 13.9729Z" fill="#2C6884"/>
<path d="M12.5001 4.16666C10.1988 4.16666 8.3335 6.03199 8.3335 8.33332C8.3335 8.90861 8.79985 9.37497 9.37515 9.37497C9.95044 9.37497 10.4168 8.90861 10.4168 8.33332C10.4168 7.18258 11.3494 6.25001 12.5001 6.25001C13.0754 6.25001 13.5418 5.78365 13.5418 5.20836C13.5418 4.63306 13.0754 4.16666 12.5001 4.16666Z" fill="#2C6884"/>
<path d="M23.9583 7.29166H22.9167C22.3414 7.29166 21.875 7.75802 21.875 8.33331C21.875 8.9086 22.3414 9.37496 22.9167 9.37496H23.9583C24.5336 9.37496 25 8.9086 25 8.33331C25 7.75806 24.5336 7.29166 23.9583 7.29166Z" fill="#2C6884"/>
<path d="M3.125 8.33337C3.125 7.75808 2.65864 7.29172 2.08335 7.29172H1.04165C0.466357 7.29167 0 7.75808 0 8.33337C0 8.90866 0.466357 9.37502 1.04165 9.37502H2.0833C2.65864 9.37502 3.125 8.90866 3.125 8.33337Z" fill="#2C6884"/>
<path d="M21.8991 3.72216L22.7834 3.17216C23.272 2.86835 23.4217 2.22601 23.1179 1.73749C22.8141 1.24896 22.1717 1.0992 21.6832 1.40306L20.7988 1.95301C20.3103 2.25682 20.1605 2.89916 20.4644 3.38768C20.7682 3.87626 21.4105 4.02597 21.8991 3.72216Z" fill="#2C6884"/>
<path d="M3.10019 12.9441L2.21582 13.4941C1.72729 13.7979 1.57754 14.4403 1.88139 14.9288C2.1852 15.4173 2.82754 15.5671 3.31606 15.2632L4.20044 14.7132C4.68896 14.4094 4.83872 13.7671 4.53486 13.2785C4.231 12.79 3.58872 12.6403 3.10019 12.9441Z" fill="#2C6884"/>
<path d="M22.8374 13.3827L21.9468 12.8431C21.4548 12.545 20.8142 12.7023 20.5161 13.1943C20.218 13.6863 20.3753 14.3269 20.8673 14.625L21.7579 15.1646C22.25 15.4627 22.8905 15.3054 23.1886 14.8134C23.4867 14.3214 23.3294 13.6808 22.8374 13.3827Z" fill="#2C6884"/>
<path d="M2.16223 3.28342L3.05285 3.82302C3.54489 4.12111 4.18542 3.96389 4.48352 3.47184C4.78161 2.9798 4.62439 2.33927 4.13234 2.04118L3.24172 1.50158C2.74968 1.20348 2.10915 1.36071 1.81106 1.85275C1.51296 2.34479 1.67019 2.98532 2.16223 3.28342Z" fill="#2C6884"/>
</svg>
