<svg width="25" height="30" viewBox="0 0 25 30" fill="none" xmlns="http://www.w3.org/2000/svg">
<path d="M24.2158 13.6161H19.1591V11.8835C19.1591 9.77783 17.6055 7.95558 15.3624 7.10271C16.6103 6.39131 17.4258 5.22913 17.4258 3.91753C17.4258 1.7574 15.2161 0 12.5 0C9.78377 0 7.57406 1.7574 7.57406 3.91753C7.57406 5.22913 8.38957 6.39138 9.6376 7.10278C7.39454 7.95565 5.84111 9.77783 5.84111 11.8835V13.6161H0.784141C0.351048 13.6161 0 13.8953 0 14.2397V17.0199C0 17.3644 0.351048 17.6435 0.784141 17.6435H1.60955L3.41184 29.4515C3.45963 29.7646 3.79376 30 4.19029 30H20.8101C21.2066 30 21.5408 29.7646 21.5886 29.4515L23.3909 17.6435H24.2159C24.649 17.6435 25 17.3644 25 17.0199V14.2397C24.9999 13.8953 24.6489 13.6161 24.2158 13.6161ZM9.14243 3.91753C9.14243 2.44516 10.6486 1.24726 12.5 1.24726C14.3513 1.24726 15.8575 2.44516 15.8575 3.91753C15.8575 5.38884 14.3535 6.58595 12.504 6.58772L12.5001 6.58766L12.4961 6.58772C10.6465 6.58608 9.14243 5.38891 9.14243 3.91753ZM7.40956 11.8835C7.40956 9.65219 9.69108 7.83676 12.4962 7.83499L12.5 7.83505L12.5041 7.83499C15.3093 7.8367 17.5909 9.65212 17.5909 11.8835V13.6161H16.3918V12.0774C16.3918 11.912 16.3092 11.7534 16.1621 11.6364L15.7318 11.2941C15.7625 11.1986 15.7806 11.0991 15.7806 10.9961C15.7806 10.3314 15.1007 9.79064 14.2649 9.79064C13.429 9.79064 12.7491 10.3314 12.7491 10.9961C12.7491 11.6609 13.429 12.2017 14.2649 12.2017C14.3849 12.2017 14.5011 12.1893 14.6131 12.1683L14.8236 12.3357V13.6161H10.1772V12.3357L10.391 12.1656C10.5071 12.1883 10.6277 12.2017 10.7525 12.2017C11.5883 12.2017 12.2683 11.6609 12.2683 10.9962C12.2683 10.3315 11.5883 9.7907 10.7525 9.7907C9.91667 9.7907 9.23677 10.3315 9.23677 10.9962C9.23677 11.0954 9.25361 11.1914 9.28217 11.2837L8.8386 11.6365C8.69159 11.7534 8.60897 11.912 8.60897 12.0774V13.6161H7.40981L7.40956 11.8835ZM1.56828 14.8634H23.4316V16.3963H1.56828V14.8634ZM20.1153 28.7527H4.88504L3.18931 17.6436H21.811L20.1153 28.7527Z" fill="#2C6884"/>
</svg>
