<svg width="31" height="30" viewBox="0 0 31 30" fill="none" xmlns="http://www.w3.org/2000/svg">
<path d="M8.0175 10.0142C8.16034 8.88159 9.62846 7.34227 10.7936 7.51307L10.7917 7.5112C11.9256 7.72724 12.8232 9.68394 13.3294 10.5638C13.688 11.2021 13.4551 11.8489 13.1206 12.1218C12.6694 12.4865 11.9637 12.9896 12.1118 13.4948C12.375 14.3929 15.5 17.526 17.037 18.4167C17.6187 18.7539 18.0406 17.8647 18.4009 17.4091C18.6626 17.0587 19.3082 16.8493 19.9435 17.1952C20.8922 17.7491 21.786 18.3929 22.6125 19.1177C23.0252 19.4636 23.1221 19.9748 22.8361 20.5151C22.3324 21.4667 20.8754 22.7215 19.8177 22.4665C17.9705 22.0212 10.5 19.1177 8.10041 10.7058C7.96546 10.3079 7.99944 10.1575 8.0175 10.0142Z" fill="#0F0F0F"/>
<path fill-rule="evenodd" clip-rule="evenodd" d="M15.5 28.9899C13.8315 28.9899 12.9083 28.8169 11.4091 28.3311L8.53786 29.7184C6.72448 30.5945 4.59091 29.3203 4.59091 27.3611V24.3779C1.65439 21.7319 0.5 18.681 0.5 14.495C0.5 6.48962 7.21573 0 15.5 0C23.7842 0 30.5 6.48962 30.5 14.495C30.5 22.5003 23.7842 28.9899 15.5 28.9899ZM7.31818 23.2319L6.45084 22.4503C4.16937 20.3947 3.22727 18.0964 3.22727 14.495C3.22727 7.94514 8.72196 2.63545 15.5 2.63545C22.2781 2.63545 27.7727 7.94514 27.7727 14.495C27.7727 21.0448 22.2781 26.3545 15.5 26.3545C14.1559 26.3545 13.5255 26.2372 12.2763 25.8324L11.2025 25.4844L7.31818 27.3611V23.2319Z" fill="#0F0F0F"/>
</svg>
