<svg width="25" height="18" viewBox="0 0 25 18" fill="none" xmlns="http://www.w3.org/2000/svg">
<path d="M21.3382 17.8586H3.53281C2.59619 17.8575 1.69824 17.4851 1.03595 16.8229C0.373659 16.1608 0.00109997 15.2632 0 14.3268V3.67317C0.00109997 2.73681 0.373659 1.83912 1.03595 1.17702C1.69824 0.514911 2.59619 0.142457 3.53281 0.141357H21.3382C22.2748 0.142457 23.1728 0.514911 23.8351 1.17702C24.4973 1.83912 24.8699 2.73681 24.871 3.67317V14.3268C24.8699 15.2632 24.4973 16.1608 23.8351 16.8229C23.1728 17.4851 22.2748 17.8575 21.3382 17.8586ZM3.53281 1.38788C2.92654 1.38788 2.34511 1.62865 1.91641 2.05723C1.48771 2.4858 1.24688 3.06708 1.24688 3.67317V14.3268C1.24688 14.9329 1.48771 15.5142 1.91641 15.9427C2.34511 16.3713 2.92654 16.6121 3.53281 16.6121H21.3382C21.9445 16.6121 22.5259 16.3713 22.9546 15.9427C23.3833 15.5142 23.6241 14.9329 23.6241 14.3268V3.67317C23.6241 3.06708 23.3833 2.4858 22.9546 2.05723C22.5259 1.62865 21.9445 1.38788 21.3382 1.38788H3.53281Z" fill="#0095D9"/>
<path d="M12.4354 11.526C11.6663 11.5272 10.9178 11.2778 10.3033 10.8155L0.598423 3.47766C0.529854 3.42955 0.471686 3.36811 0.427395 3.29703C0.383104 3.22594 0.353597 3.14667 0.340636 3.06393C0.327676 2.98119 0.331528 2.89668 0.351962 2.81547C0.372397 2.73425 0.408994 2.65798 0.45957 2.59122C0.510145 2.52446 0.57366 2.46857 0.646322 2.42689C0.718984 2.38522 0.799302 2.35861 0.88248 2.34865C0.965658 2.3387 1.04999 2.34561 1.13044 2.36897C1.21088 2.39232 1.2858 2.43165 1.3507 2.48459L11.0555 9.83077C11.4541 10.1282 11.9381 10.2889 12.4354 10.2889C12.9328 10.2889 13.4168 10.1282 13.8153 9.83077L23.5201 2.48459C23.585 2.43165 23.66 2.39232 23.7404 2.36897C23.8209 2.34561 23.9052 2.3387 23.9884 2.34865C24.0715 2.35861 24.1519 2.38522 24.2245 2.42689C24.2972 2.46857 24.3607 2.52446 24.4113 2.59122C24.4619 2.65798 24.4984 2.73425 24.5189 2.81547C24.5393 2.89668 24.5432 2.98119 24.5302 3.06393C24.5173 3.14667 24.4877 3.22594 24.4435 3.29703C24.3992 3.36811 24.341 3.42955 24.2724 3.47766L14.5676 10.8155C13.953 11.2778 13.2045 11.5272 12.4354 11.526Z" fill="#0095D9"/>
<path d="M0.868617 16.1218C0.742172 16.122 0.61866 16.0837 0.514469 16.0121C0.410279 15.9405 0.330335 15.8389 0.285247 15.7208C0.240158 15.6027 0.232056 15.4736 0.262015 15.3508C0.291975 15.228 0.358579 15.1172 0.452992 15.0331L8.10049 8.21466C8.22395 8.10446 8.38614 8.0478 8.55138 8.05715C8.71663 8.0665 8.87139 8.14109 8.98162 8.26452C9.09185 8.38794 9.14852 8.55008 9.13917 8.71528C9.12981 8.88048 9.0552 9.03519 8.93174 9.14539L1.28424 15.9639C1.17067 16.0672 1.02215 16.1236 0.868617 16.1218ZM24.0023 16.1218C23.8488 16.1236 23.7003 16.0672 23.5867 15.9639L15.9392 9.14539C15.8157 9.03519 15.7411 8.88048 15.7318 8.71528C15.7224 8.55008 15.7791 8.38794 15.8893 8.26452C15.9995 8.14109 16.1543 8.0665 16.3195 8.05715C16.4848 8.0478 16.647 8.10446 16.7704 8.21466L24.4138 15.0331C24.5082 15.1172 24.5748 15.228 24.6047 15.3508C24.6347 15.4736 24.6266 15.6027 24.5815 15.7208C24.5364 15.8389 24.4565 15.9405 24.3523 16.0121C24.2481 16.0837 24.1246 16.122 23.9981 16.1218H24.0023Z" fill="#0095D9"/>
</svg>
