<svg width="29" height="28" viewBox="0 0 29 28" fill="none" xmlns="http://www.w3.org/2000/svg">
<g clip-path="url(#clip0_79_123)">
<path d="M21.43 20.93C19.4357 22.4501 17.0073 23.2923 14.5 23.3333C6.33335 23.3333 1.66669 14 1.66669 14C3.11789 11.2955 5.13068 8.93267 7.57002 7.06996M12.05 4.94663C12.8531 4.75865 13.6753 4.66469 14.5 4.66663C22.6667 4.66663 27.3334 14 27.3334 14C26.6252 15.3248 25.7806 16.5722 24.8134 17.7216M16.9734 16.4733C16.6529 16.8172 16.2665 17.093 15.8372 17.2843C15.4079 17.4756 14.9444 17.5784 14.4745 17.5867C14.0045 17.595 13.5377 17.5086 13.1019 17.3325C12.6661 17.1565 12.2702 16.8945 11.9378 16.5621C11.6055 16.2298 11.3435 15.8339 11.1674 15.3981C10.9914 14.9623 10.905 14.4955 10.9133 14.0255C10.9216 13.5556 11.0244 13.0921 11.2157 12.6628C11.407 12.2335 11.6828 11.847 12.0267 11.5266M1.66669 1.16663L27.3334 26.8333" stroke="#0092D3" stroke-width="2" stroke-linecap="round" stroke-linejoin="round"/>
</g>
<defs>
<clipPath id="clip0_79_123">
<rect width="28" height="28" fill="white" transform="translate(0.5)"/>
</clipPath>
</defs>
</svg>
