<svg width="26" height="20" viewBox="0 0 26 20" fill="none" xmlns="http://www.w3.org/2000/svg">
<path d="M9.49998 1.20285C10.5634 0.864586 11.7288 0.666626 13 0.666626C17.8789 0.666626 21.1993 3.58278 23.1793 6.15501C24.1708 7.44324 24.6666 8.08733 24.6666 9.99996C24.6666 11.9126 24.1708 12.5567 23.1793 13.8449C21.1993 16.4171 17.8789 19.3333 13 19.3333C8.12111 19.3333 4.8006 16.4171 2.82068 13.8449C1.8291 12.5567 1.33331 11.9126 1.33331 9.99996C1.33331 8.08733 1.8291 7.44324 2.82068 6.15501C3.38212 5.42562 4.05133 4.66858 4.83331 3.95822" stroke="#0092D3" stroke-linecap="round"/>
<path d="M16.5 10C16.5 11.933 14.933 13.5 13 13.5C11.0669 13.5 9.5 11.933 9.5 10C9.5 8.06695 11.0669 6.5 13 6.5C14.933 6.5 16.5 8.06695 16.5 10Z" stroke="#0092D3"/>
</svg>
