<svg width="28" height="30" viewBox="0 0 28 30" fill="none" xmlns="http://www.w3.org/2000/svg">
<path d="M13.9999 12.6911C18.594 12.6911 22.3315 9.84454 22.3315 6.34555C22.3315 2.84656 18.5939 0 13.9999 0C9.40586 0 5.66821 2.84656 5.66821 6.34555C5.66821 9.84454 9.40573 12.6911 13.9999 12.6911ZM13.9999 1.51515C17.4971 1.51515 20.3422 3.68202 20.3422 6.34555C20.3422 9.00908 17.4971 11.176 13.9999 11.176C10.5027 11.176 7.65759 9.00908 7.65759 6.34555C7.65759 3.68202 10.5027 1.51515 13.9999 1.51515Z" fill="#0095D9"/>
<path d="M27.9154 27.1947L25.1832 18.5625C24.8589 17.538 23.6661 16.8224 22.2821 16.8224C20.5467 16.8224 7.26891 16.8224 5.71772 16.8224C4.33391 16.8224 3.14095 17.538 2.81668 18.5625L0.0844603 27.1947C-0.367792 28.6238 1.05316 30 2.98551 30H25.0145C26.9444 30 28.3685 28.6258 27.9154 27.1947ZM15.7443 18.3376L16.9801 24.9957L14 27.9887L11.02 24.9957L12.2558 18.3376H15.7443ZM2.01854 27.5498L4.75075 18.9176C4.85884 18.5761 5.25645 18.3376 5.71786 18.3376H10.2465L8.99211 25.096C8.95498 25.296 9.02421 25.4989 9.18442 25.6597L11.9974 28.4849H2.98551C2.34227 28.4849 1.86761 28.0267 2.01854 27.5498ZM25.0145 28.4849H16.0027L18.8155 25.6598C18.9758 25.4989 19.045 25.296 19.0078 25.0961L17.7535 18.3377H22.2821C22.7434 18.3377 23.1411 18.5762 23.2492 18.9178L25.9814 27.5499C26.1322 28.0263 25.6583 28.4849 25.0145 28.4849Z" fill="#0095D9"/>
</svg>
