<svg width="30" height="24" viewBox="0 0 30 24" fill="none" xmlns="http://www.w3.org/2000/svg">
<path d="M27.5641 0.799988H2.4359C1.64287 0.799988 1 1.44286 1 2.23589V21.7641C1 22.5571 1.64287 23.2 2.4359 23.2H27.5641C28.3571 23.2 29 22.5571 29 21.7641V2.23589C29 1.44286 28.3571 0.799988 27.5641 0.799988Z" stroke="#0095D9" stroke-width="1.25" stroke-linecap="round" stroke-linejoin="round"/>
<path d="M25.4103 3.67175H4.58977C4.19326 3.67175 3.87183 3.99319 3.87183 4.3897V19.6102C3.87183 20.0067 4.19326 20.3282 4.58977 20.3282H25.4103C25.8068 20.3282 26.1282 20.0067 26.1282 19.6102V4.3897C26.1282 3.99319 25.8068 3.67175 25.4103 3.67175Z" stroke="#0095D9" stroke-width="1.25" stroke-linecap="round" stroke-linejoin="round"/>
<path d="M23.8307 18.7559H19.0779V20.3282H23.8307V18.7559Z" stroke="#0095D9" stroke-width="1.25" stroke-linecap="round" stroke-linejoin="round"/>
<path d="M16.3209 8.41019C16.1476 8.23653 15.9417 8.09876 15.715 8.00475C15.4883 7.91075 15.2453 7.86237 14.9999 7.86237C14.7545 7.86237 14.5115 7.91075 14.2849 8.00475C14.0582 8.09876 13.8523 8.23653 13.6789 8.41019C13.4621 8.62808 13.3022 8.89596 13.2133 9.19022C13.1245 9.48448 13.1093 9.79608 13.1693 10.0976C13.2293 10.399 13.3625 10.6811 13.5572 10.919C13.7519 11.1568 14.0022 11.3431 14.2859 11.4614C14.5696 11.5797 14.878 11.6264 15.1841 11.5974C15.4901 11.5684 15.7842 11.4646 16.0406 11.295C16.297 11.1255 16.5078 10.8955 16.6544 10.6253C16.8009 10.3551 16.8787 10.053 16.8809 9.74558C16.8819 9.49551 16.8314 9.24791 16.7326 9.01818C16.6338 8.78845 16.4888 8.5815 16.3066 8.41019H16.3209Z" stroke="#0095D9" stroke-width="1.25" stroke-linecap="round" stroke-linejoin="round"/>
<path d="M13.564 13.0984H16.4358C17.007 13.0984 17.5549 13.3254 17.9588 13.7293C18.3627 14.1332 18.5896 14.6811 18.5896 15.2523V16.121H11.4102V15.2523C11.4102 14.6811 11.6371 14.1332 12.041 13.7293C12.4449 13.3254 12.9928 13.0984 13.564 13.0984Z" stroke="#0095D9" stroke-width="1.25" stroke-linecap="round" stroke-linejoin="round"/>
<path d="M10.276 10.1836C10.1425 10.049 9.98371 9.94218 9.80873 9.86928C9.63375 9.79638 9.44607 9.75885 9.25652 9.75885C9.06696 9.75885 8.87928 9.79638 8.7043 9.86928C8.52933 9.94218 8.37051 10.049 8.23703 10.1836C8.07164 10.3504 7.9497 10.5552 7.8819 10.7802C7.81411 11.0051 7.80253 11.2432 7.84818 11.4736C7.89383 11.704 7.99531 11.9197 8.14374 12.1018C8.29216 12.2839 8.48299 12.4268 8.69949 12.5179C8.91599 12.6091 9.15154 12.6457 9.3855 12.6247C9.61947 12.6036 9.84468 12.5254 10.0414 12.3971C10.2381 12.2687 10.4004 12.094 10.5139 11.8884C10.6274 11.6827 10.6887 11.4523 10.6924 11.2174C10.6926 11.0262 10.6546 10.8369 10.5806 10.6606C10.5066 10.4843 10.3982 10.3246 10.2616 10.1908L10.276 10.1836Z" stroke="#0095D9" stroke-width="1.25" stroke-linecap="round" stroke-linejoin="round"/>
<path d="M11.6544 14.2544C11.5204 14.1078 11.3573 13.9907 11.1757 13.9104C10.994 13.83 10.7977 13.7883 10.5991 13.7877H7.91392C7.5331 13.7877 7.16787 13.939 6.89859 14.2083C6.62931 14.4776 6.47803 14.8428 6.47803 15.2236V16.1211H11.4103" stroke="#0095D9" stroke-width="1.25" stroke-linecap="round" stroke-linejoin="round"/>
<path d="M21.7631 10.1836C21.6296 10.049 21.4708 9.94218 21.2958 9.86928C21.1208 9.79638 20.9331 9.75885 20.7436 9.75885C20.554 9.75885 20.3663 9.79638 20.1914 9.86928C20.0164 9.94218 19.8576 10.049 19.7241 10.1836C19.5587 10.3504 19.4368 10.5552 19.369 10.7802C19.3012 11.0051 19.2896 11.2432 19.3352 11.4736C19.3809 11.704 19.4824 11.9197 19.6308 12.1018C19.7792 12.2839 19.97 12.4268 20.1865 12.5179C20.403 12.6091 20.6386 12.6457 20.8726 12.6247C21.1065 12.6036 21.3317 12.5254 21.5285 12.3971C21.7252 12.2687 21.8874 12.094 22.0009 11.8884C22.1144 11.6827 22.1757 11.4523 22.1795 11.2174C22.1796 11.0262 22.1416 10.8369 22.0676 10.6606C21.9937 10.4843 21.8852 10.3246 21.7487 10.1908L21.7631 10.1836Z" stroke="#0095D9" stroke-width="1.25" stroke-linecap="round" stroke-linejoin="round"/>
<path d="M18.5898 16.1211H23.5149V15.2236C23.5149 14.8428 23.3637 14.4776 23.0944 14.2083C22.8251 13.939 22.4599 13.7877 22.079 13.7877H19.4011C19.2025 13.7883 19.0061 13.83 18.8245 13.9104C18.6428 13.9907 18.4798 14.1078 18.3457 14.2544" stroke="#0095D9" stroke-width="1.25" stroke-linecap="round" stroke-linejoin="round"/>
</svg>
