<svg width="25" height="24" viewBox="0 0 25 24" fill="none" xmlns="http://www.w3.org/2000/svg">
<path d="M17.5072 6.0558C17.5072 6.27965 17.4882 6.50349 17.4533 6.72479C17.4692 6.63576 17.485 6.54419 17.4977 6.45516C17.4217 6.89776 17.276 7.32764 17.0638 7.73971C17.1049 7.65832 17.1493 7.57692 17.1905 7.49552C16.9783 7.89742 16.7059 8.27389 16.3733 8.61983L16.5729 8.41379C16.2435 8.75464 15.8603 9.06242 15.4359 9.32697L15.6924 9.16671C15.2617 9.43126 14.793 9.65256 14.2925 9.82298C14.3939 9.78991 14.4952 9.7543 14.5966 9.72124C14.0835 9.89166 13.5483 10.0087 12.9972 10.0697C13.108 10.057 13.2221 10.0443 13.3329 10.0341C12.7787 10.0926 12.2213 10.0926 11.667 10.0341C11.7779 10.0468 11.8919 10.0595 12.0027 10.0697C11.4516 10.0087 10.9164 9.89166 10.4033 9.72124C10.5047 9.7543 10.606 9.78991 10.7074 9.82298C10.207 9.65256 9.73824 9.4338 9.30751 9.16671L9.56404 9.32697C9.13965 9.06242 8.75643 8.75464 8.42705 8.41379L8.62658 8.61983C8.2972 8.27389 8.02166 7.89742 7.80946 7.49552C7.85063 7.57692 7.89497 7.65832 7.93614 7.73971C7.72395 7.32764 7.57826 6.89776 7.50225 6.45516C7.51809 6.54419 7.53392 6.63576 7.54659 6.72479C7.47375 6.27965 7.47375 5.83196 7.54659 5.38682C7.53075 5.47585 7.51492 5.56742 7.50225 5.65645C7.57826 5.21385 7.72395 4.78397 7.93614 4.37189C7.89497 4.45329 7.85063 4.53469 7.80946 4.61609C8.02166 4.21418 8.29403 3.83772 8.62658 3.49178L8.42705 3.69782C8.75643 3.35697 9.13965 3.04918 9.56404 2.78464L9.30751 2.94489C9.73824 2.68035 10.207 2.45905 10.7074 2.28862C10.606 2.32169 10.5047 2.3573 10.4033 2.39037C10.9164 2.21995 11.4516 2.10294 12.0027 2.04189C11.8919 2.05461 11.7779 2.06732 11.667 2.0775C12.2213 2.019 12.7787 2.019 13.3329 2.0775C13.2221 2.06478 13.108 2.05206 12.9972 2.04189C13.5483 2.10294 14.0835 2.21995 14.5966 2.39037C14.4952 2.3573 14.3939 2.32169 14.2925 2.28862C14.793 2.45905 15.2617 2.67781 15.6924 2.94489L15.4359 2.78464C15.8603 3.04918 16.2435 3.35697 16.5729 3.69782L16.3733 3.49178C16.7027 3.83772 16.9783 4.21418 17.1905 4.61609C17.1493 4.53469 17.1049 4.45329 17.0638 4.37189C17.276 4.78397 17.4217 5.21385 17.4977 5.65645C17.4818 5.56742 17.466 5.47585 17.4533 5.38682C17.4882 5.60812 17.504 5.83196 17.5072 6.0558C17.5103 6.58743 18.0868 7.09871 18.774 7.07327C19.4581 7.04784 20.044 6.62559 20.0409 6.0558C20.0345 4.83738 19.5785 3.59098 18.6853 2.59895C18.4446 2.33187 18.1881 2.06987 17.9031 1.83331C17.6149 1.5942 17.2981 1.38816 16.9688 1.18721C16.3702 0.820925 15.7019 0.551296 14.9925 0.342715C12.1326 -0.499241 8.68358 0.251143 6.74848 2.14364C6.48244 2.40309 6.22907 2.67272 6.0137 2.9627C5.79834 3.25013 5.63048 3.55537 5.47529 3.8657C5.18392 4.44057 5.03507 5.05105 4.97489 5.66917C4.85771 6.87995 5.25043 8.14416 6.03587 9.18198C6.79282 10.1842 7.93615 11.0439 9.27267 11.5298C9.66539 11.6722 10.0676 11.8045 10.4857 11.8986C10.9006 11.9902 11.3218 12.0411 11.7494 12.0818C12.5285 12.1555 13.3234 12.1047 14.093 11.98C17.0163 11.5018 19.4645 9.47959 19.9174 7.10634C19.9839 6.7604 20.0345 6.41446 20.0345 6.06343C20.0377 5.53181 19.4486 5.02053 18.7677 5.04597C18.0836 5.06377 17.5072 5.48602 17.5072 6.0558ZM21.7099 21.9614H5.45946C4.74052 21.9614 4.02159 21.9665 3.30265 21.9614C3.22347 21.9614 3.1443 21.9563 3.06828 21.9487C3.17913 21.9614 3.29315 21.9741 3.404 21.9843C3.27731 21.969 3.15696 21.941 3.03978 21.9029C3.14113 21.936 3.24248 21.9716 3.34382 22.0046C3.21714 21.9614 3.09996 21.9054 2.98911 21.8367L3.24564 21.997C3.15063 21.9334 3.06195 21.8647 2.98594 21.7884L3.18547 21.9945C3.09996 21.9054 3.03345 21.8113 2.97644 21.7096C3.01761 21.791 3.06195 21.8724 3.10312 21.9538C3.05562 21.8596 3.02395 21.7604 3.00178 21.6612C3.01761 21.7503 3.03345 21.8418 3.04611 21.9309C2.99544 21.6231 3.03028 21.2975 3.03028 20.9872V19.8985C3.03028 19.6263 3.04928 19.3567 3.09362 19.087C3.07779 19.1761 3.06195 19.2676 3.04928 19.3567C3.13796 18.8352 3.30899 18.3239 3.56552 17.8381C3.52435 17.9195 3.48001 18.0009 3.43884 18.0823C3.68587 17.6193 4.00258 17.1844 4.38581 16.785L4.18628 16.9911C4.5695 16.5968 5.00973 16.2407 5.5038 15.9329L5.24726 16.0931C5.7445 15.7854 6.28608 15.531 6.86249 15.3326C6.76114 15.3656 6.6598 15.4013 6.55845 15.4343C7.16337 15.2308 7.79679 15.0909 8.44922 15.0197C8.33837 15.0324 8.22435 15.0451 8.1135 15.0553C8.58224 15.007 9.0478 15.0044 9.5197 15.0044H15.3155C15.8381 15.0044 16.3575 15.0019 16.8801 15.0553C16.7692 15.0426 16.6552 15.0299 16.5444 15.0197C17.1936 15.0909 17.8302 15.2283 18.4351 15.4343C18.3338 15.4013 18.2324 15.3656 18.1311 15.3326C18.7075 15.531 19.2491 15.7854 19.7463 16.0931L19.4898 15.9329C19.9807 16.2407 20.4241 16.5942 20.8073 16.9911L20.6078 16.785C20.991 17.1844 21.3077 17.6193 21.5548 18.0823C21.5136 18.0009 21.4692 17.9195 21.4281 17.8381C21.6814 18.3239 21.8556 18.8327 21.9443 19.3567C21.9285 19.2676 21.9126 19.1761 21.9 19.087C21.9601 19.4711 21.9633 19.8527 21.9633 20.2393V21.4984C21.9633 21.6434 21.9696 21.7884 21.9475 21.9309C21.9633 21.8418 21.9791 21.7503 21.9918 21.6612C21.9728 21.763 21.938 21.8596 21.8905 21.9538C21.9316 21.8724 21.976 21.791 22.0171 21.7096C21.9633 21.8113 21.8936 21.9054 21.8081 21.9945L22.0076 21.7884C21.9285 21.8647 21.843 21.9359 21.7479 21.997L22.0045 21.8367C21.8936 21.9054 21.7764 21.9588 21.6498 22.0046C21.7511 21.9716 21.8525 21.936 21.9538 21.9029C21.8366 21.941 21.7131 21.9665 21.5896 21.9843C21.7004 21.9716 21.8145 21.9588 21.9253 21.9487C21.8556 21.9563 21.7828 21.9588 21.7099 21.9614C21.3837 21.9639 21.048 22.0733 20.8136 22.259C20.5951 22.4345 20.4273 22.7245 20.4431 22.9789C20.4748 23.5232 21.0005 24.004 21.7099 23.9963C22.9419 23.9811 24.0251 23.335 24.3862 22.3862C24.5287 22.0097 24.497 21.6053 24.497 21.2186C24.497 20.3334 24.5318 19.4559 24.3418 18.5783C24.0631 17.2937 23.2587 16.0855 22.1565 15.1367C21.0543 14.1879 19.5721 13.491 18.0044 13.1806C17.1049 13.0026 16.1992 12.9746 15.2807 12.9746H9.66222C8.72159 12.9746 7.78729 13.0102 6.87199 13.2061C5.31694 13.5367 3.85373 14.2413 2.77374 15.1978C1.68425 16.1618 0.895642 17.3726 0.639105 18.6648C0.468081 19.5322 0.502919 20.4021 0.502919 21.2771C0.502919 21.679 0.474415 22.0987 0.654941 22.4828C0.889308 22.9763 1.26303 23.3655 1.81094 23.658C2.2385 23.8844 2.78008 23.9938 3.28682 23.9989C3.53385 24.0014 3.78089 23.9989 4.02792 23.9989H21.7131C22.375 23.9989 23.0116 23.5308 22.98 22.9814C22.9483 22.4269 22.4225 21.9614 21.7099 21.9614Z" fill="#0092D3"/>
</svg>
