<svg width="29" height="28" viewBox="0 0 29 28" fill="none" xmlns="http://www.w3.org/2000/svg">
<path d="M17.6019 19.2537L19.3752 17.4796C19.6481 17.2033 19.9731 16.9838 20.3312 16.8341C20.6894 16.6845 21.0737 16.6075 21.4618 16.6075C21.85 16.6075 22.2343 16.6845 22.5926 16.8341C22.9507 16.9838 23.2756 17.2033 23.5484 17.4796L25.6283 19.5605C25.9044 19.8334 26.1237 20.1582 26.2733 20.5166C26.4229 20.8748 26.5 21.2595 26.5 21.6478C26.5 22.0362 26.4229 22.4207 26.2733 22.7791C26.1237 23.1374 25.9044 23.4622 25.6283 23.7351L24.6817 24.6954C24.0294 25.3543 23.1859 25.7905 22.2712 25.9413C21.3566 26.0922 20.4177 25.9504 19.5885 25.5359C12.4532 21.8613 6.6414 16.0517 2.96254 8.91659C2.5478 8.08618 2.40698 7.14558 2.56031 6.23006C2.71363 5.31453 3.15322 4.47113 3.81587 3.8213L4.76245 2.86099C5.317 2.30957 6.06714 2 6.84903 2C7.63092 2 8.38107 2.30957 8.93562 2.86099L11.0289 4.95517C11.5801 5.50996 11.8895 6.26031 11.8895 7.04253C11.8895 7.82473 11.5801 8.57509 11.0289 9.12988L9.2556 10.904C10.4281 12.4906 11.716 13.9883 13.1088 15.3854C14.4935 16.7731 15.9823 18.053 17.5619 19.2137L17.6019 19.2537Z" stroke="#0092D3" stroke-width="3.75" stroke-linecap="round" stroke-linejoin="round"/>
</svg>
