<svg width="24" height="24" viewBox="0 0 24 24" fill="none" xmlns="http://www.w3.org/2000/svg">
<path d="M6.66602 18.594V23.5005C6.66602 23.7766 6.96484 24 7.33304 24C7.70118 24 8 23.7766 8 23.5005V18.594H6.66602Z" fill="#0095D9"/>
<path d="M19.1787 4.32348L18.2363 3.61592L22.8027 0.191162L23.7451 0.897921L19.1787 4.32348Z" fill="#0095D9"/>
<path d="M7.33302 8.00024C3.28318 8.00024 0 10.4626 0 13.5C0 16.5381 3.28318 19.0005 7.33302 19.0005C11.3828 19.0005 14.666 16.5381 14.666 13.5C14.666 10.4626 11.3828 8.00024 7.33302 8.00024ZM11.5762 16.6824C10.4424 17.532 8.93551 18 7.33302 18C5.73046 18 4.22359 17.532 3.0908 16.6824C1.95701 15.832 1.33299 14.7027 1.33299 13.5C1.33299 12.2981 1.95701 11.168 3.0908 10.3183C4.22365 9.46875 5.73046 8.99998 7.33302 8.99998C8.93558 8.99998 10.4424 9.46875 11.5762 10.3183C12.709 11.168 13.333 12.2981 13.333 13.5C13.333 14.7026 12.709 15.832 11.5762 16.6824Z" fill="#0095D9"/>
<path d="M9.33201 22.5H5.33399C4.96579 22.5 4.66797 22.2766 4.66797 22.0005C4.66797 21.7244 4.96585 21.5002 5.33399 21.5002H9.33201C9.70021 21.5002 9.99904 21.7243 9.99904 22.0005C9.99904 22.2766 9.70021 22.5 9.33201 22.5Z" fill="#0095D9"/>
<path d="M24.0002 0.500221C24.0002 0.224117 23.7014 0.000750026 23.3332 0.000750026V0H20.6877V0.00145318C20.6809 0.00070315 20.674 0 20.6662 0C20.298 0.000750026 20.0002 0.224117 20.0002 0.500221C20.0002 0.776371 20.2981 1.00049 20.6662 1.00049C20.674 1.00049 20.6808 0.999738 20.6877 0.999738V1.00049H22.6663V2.48437H22.6673C22.6673 2.49023 22.6663 2.49534 22.6663 2.50049C22.6663 2.77664 22.965 3.00001 23.3332 3.00001C23.7014 3.00001 24.0002 2.7766 24.0002 2.50049C24.0002 2.49538 23.9992 2.49023 23.9992 2.48437H24.0002V0.500221Z" fill="#0095D9"/>
<path d="M19.0908 3.6825C17.6581 2.60805 15.7821 2.07117 13.9052 2.07117C12.0283 2.07117 10.1512 2.60805 8.71963 3.6825C5.85534 5.82997 5.85534 9.31263 8.71963 11.4601C9.99799 12.4196 11.6317 12.9498 13.3036 13.0524C13.2577 12.6979 13.1552 12.3522 13.0028 12.0212C11.7422 11.8791 10.58 11.4418 9.66204 10.7533C8.52919 9.90369 7.90523 8.77359 7.90523 7.57167C7.90523 6.36905 8.52925 5.23965 9.66204 4.38931C10.7958 3.53967 12.3027 3.07166 13.9052 3.07166C15.5078 3.07166 17.0146 3.53967 18.1474 4.38931C19.2812 5.23965 19.9052 6.36901 19.9052 7.57167C19.9052 8.77359 19.2812 9.90369 18.1474 10.7533C17.1347 11.5136 15.8222 11.9677 14.4101 12.0556C14.5253 12.3742 14.6044 12.7045 14.6415 13.0436C16.2655 12.9213 17.8457 12.394 19.0908 11.4601C21.9541 9.31267 21.9541 5.82997 19.0908 3.6825Z" fill="#0095D9"/>
</svg>
