<svg width="25" height="24" viewBox="0 0 25 24" fill="none" xmlns="http://www.w3.org/2000/svg">
<path d="M6.55 5.99998C7.04431 5.98999 7.52456 5.83367 7.93003 5.55076C8.3355 5.26785 8.64798 4.87108 8.82797 4.41059C9.00796 3.9501 9.04736 3.44659 8.94121 2.96371C8.83505 2.48083 8.5881 2.04027 8.23158 1.69773C7.87506 1.35519 7.42497 1.12605 6.93823 1.03929C6.4515 0.952523 5.94996 1.01203 5.49704 1.21028C5.04412 1.40854 4.66015 1.73663 4.39368 2.15309C4.12722 2.56955 3.99021 3.05567 4 3.54998C4.0065 3.8783 4.07762 4.20213 4.2093 4.50296C4.34099 4.80379 4.53064 5.07574 4.76745 5.30325C5.00425 5.53077 5.28356 5.7094 5.58941 5.82895C5.89527 5.94849 6.22168 6.00661 6.55 5.99998Z" fill="#0095D9"/>
<path d="M4.14994 14.9C3.79493 14.5203 3.59744 14.0198 3.59744 13.5C3.59744 12.9802 3.79493 12.4797 4.14994 12.1L7.39994 8.9C7.66703 8.61078 7.99212 8.38114 8.35397 8.22606C8.71582 8.07098 9.1063 7.99395 9.49994 8C10.0499 8 9.59994 7 8.49994 7H4.49994C3.70429 7 2.94123 7.31607 2.37862 7.87868C1.81601 8.44129 1.49994 9.20435 1.49994 10V16.5C1.49994 16.8978 1.65797 17.2794 1.93928 17.5607C2.22058 17.842 2.60211 18 2.99994 18H3.49994V21.5C3.49994 21.8978 3.65797 22.2794 3.93928 22.5607C4.22058 22.842 4.60211 23 4.99994 23H7.99994C8.39776 23 8.77929 22.842 9.0606 22.5607C9.3419 22.2794 9.49994 21.8978 9.49994 21.5V19C9.1063 19.006 8.71582 18.929 8.35397 18.7739C7.99212 18.6189 7.66703 18.3892 7.39994 18.1L4.14994 14.9Z" fill="#0095D9"/>
<path d="M20.5 7H16.5C15.4 7 14.95 8 15.5 8C15.8936 7.99395 16.2841 8.07098 16.646 8.22606C17.0078 8.38114 17.3329 8.61078 17.6 8.9L20.85 12.1C21.205 12.4797 21.4025 12.9802 21.4025 13.5C21.4025 14.0198 21.205 14.5203 20.85 14.9L17.6 18.1C17.3329 18.3892 17.0078 18.6189 16.646 18.7739C16.2841 18.929 15.8936 19.006 15.5 19V21.5C15.5 21.8978 15.658 22.2794 15.9393 22.5607C16.2206 22.842 16.6022 23 17 23H20C20.3978 23 20.7794 22.842 21.0607 22.5607C21.342 22.2794 21.5 21.8978 21.5 21.5V18H22C22.3978 18 22.7794 17.842 23.0607 17.5607C23.342 17.2794 23.5 16.8978 23.5 16.5V10C23.5 9.20435 23.1839 8.44129 22.6213 7.87868C22.0587 7.31607 21.2956 7 20.5 7Z" fill="#0095D9"/>
<path d="M18.55 5.99998C19.0443 5.98999 19.5246 5.83367 19.93 5.55076C20.3355 5.26785 20.648 4.87108 20.828 4.41059C21.008 3.9501 21.0474 3.44659 20.9412 2.96371C20.835 2.48083 20.5881 2.04027 20.2316 1.69773C19.8751 1.35519 19.425 1.12605 18.9382 1.03929C18.4515 0.952523 17.95 1.01203 17.497 1.21028C17.0441 1.40854 16.6601 1.73663 16.3937 2.15309C16.1272 2.56955 15.9902 3.05567 16 3.54998C16.0065 3.8783 16.0776 4.20213 16.2093 4.50296C16.341 4.80379 16.5306 5.07574 16.7674 5.30325C17.0042 5.53077 17.2836 5.7094 17.5894 5.82895C17.8953 5.94849 18.2217 6.00661 18.55 5.99998Z" fill="#0095D9"/>
<path d="M16.2 16.7L19.4 13.5L16.2 10.3C16.111 10.2031 16.0029 10.1256 15.8824 10.0726C15.7619 10.0197 15.6317 9.99231 15.5 9.99231C15.3684 9.99231 15.2382 10.0197 15.1177 10.0726C14.9972 10.1256 14.889 10.2031 14.8 10.3C14.703 10.389 14.6256 10.4972 14.5726 10.6177C14.5197 10.7382 14.4923 10.8684 14.4923 11C14.4923 11.1317 14.5197 11.2619 14.5726 11.3824C14.6256 11.5029 14.703 11.6111 14.8 11.7L15.6 12.5H9.40004L10.2 11.7C10.297 11.6111 10.3745 11.5029 10.4274 11.3824C10.4804 11.2619 10.5078 11.1317 10.5078 11C10.5078 10.8684 10.4804 10.7382 10.4274 10.6177C10.3745 10.4972 10.297 10.389 10.2 10.3C10.111 10.2031 10.0029 10.1256 9.88237 10.0726C9.76186 10.0197 9.63167 9.99231 9.50004 9.99231C9.3684 9.99231 9.23821 10.0197 9.11771 10.0726C8.99721 10.1256 8.88903 10.2031 8.80004 10.3L5.60004 13.5L8.80004 16.7C8.88903 16.797 8.99721 16.8745 9.11771 16.9275C9.23821 16.9804 9.3684 17.0078 9.50004 17.0078C9.63167 17.0078 9.76186 16.9804 9.88237 16.9275C10.0029 16.8745 10.111 16.797 10.2 16.7C10.297 16.6111 10.3745 16.5029 10.4274 16.3824C10.4804 16.2619 10.5078 16.1317 10.5078 16C10.5078 15.8684 10.4804 15.7382 10.4274 15.6177C10.3745 15.4972 10.297 15.389 10.2 15.3L9.40004 14.5H15.6L14.8 15.3C14.703 15.389 14.6256 15.4972 14.5726 15.6177C14.5197 15.7382 14.4923 15.8684 14.4923 16C14.4923 16.1317 14.5197 16.2619 14.5726 16.3824C14.6256 16.5029 14.703 16.6111 14.8 16.7C14.889 16.797 14.9972 16.8745 15.1177 16.9275C15.2382 16.9804 15.3684 17.0078 15.5 17.0078C15.6317 17.0078 15.7619 16.9804 15.8824 16.9275C16.0029 16.8745 16.111 16.797 16.2 16.7Z" fill="#0095D9"/>
</svg>
