<svg width="25" height="24" viewBox="0 0 25 24" fill="none" xmlns="http://www.w3.org/2000/svg">
<path d="M12.5 13.2C12.0433 13.1957 11.596 13.3035 11.2182 13.5088C10.8404 13.714 10.5502 14.007 10.3868 14.3482C10.2234 14.6893 10.1946 15.0624 10.3042 15.4171C10.4139 15.7718 10.6567 16.0911 11 16.332V18C11 18.3183 11.158 18.6235 11.4393 18.8485C11.7206 19.0736 12.1022 19.2 12.5 19.2C12.8978 19.2 13.2794 19.0736 13.5607 18.8485C13.842 18.6235 14 18.3183 14 18V16.332C14.3433 16.0911 14.5861 15.7718 14.6958 15.4171C14.8054 15.0624 14.7766 14.6893 14.6132 14.3482C14.4498 14.007 14.1596 13.714 13.7818 13.5088C13.404 13.3035 12.9567 13.1957 12.5 13.2ZM20 8.4V6C20 4.4087 19.2098 2.88258 17.8033 1.75736C16.3968 0.632141 14.4891 0 12.5 0C10.5109 0 8.60322 0.632141 7.1967 1.75736C5.79018 2.88258 5 4.4087 5 6V8.4C3.80653 8.4 2.66193 8.77928 1.81802 9.45442C0.974106 10.1295 0.5 11.0452 0.5 12V20.4C0.5 21.3548 0.974106 22.2705 1.81802 22.9456C2.66193 23.6207 3.80653 24 5 24H20C21.1935 24 22.3381 23.6207 23.182 22.9456C24.0259 22.2705 24.5 21.3548 24.5 20.4V12C24.5 11.0452 24.0259 10.1295 23.182 9.45442C22.3381 8.77928 21.1935 8.4 20 8.4ZM8 6C8 5.04522 8.47411 4.12955 9.31802 3.45442C10.1619 2.77928 11.3065 2.4 12.5 2.4C13.6935 2.4 14.8381 2.77928 15.682 3.45442C16.5259 4.12955 17 5.04522 17 6V8.4H8V6ZM21.5 20.4C21.5 20.7183 21.342 21.0235 21.0607 21.2485C20.7794 21.4736 20.3978 21.6 20 21.6H5C4.60218 21.6 4.22064 21.4736 3.93934 21.2485C3.65804 21.0235 3.5 20.7183 3.5 20.4V12C3.5 11.6817 3.65804 11.3765 3.93934 11.1515C4.22064 10.9264 4.60218 10.8 5 10.8H20C20.3978 10.8 20.7794 10.9264 21.0607 11.1515C21.342 11.3765 21.5 11.6817 21.5 12V20.4Z" fill="#0092D3"/>
</svg>
