<svg width="24" height="24" viewBox="0 0 24 24" fill="none" xmlns="http://www.w3.org/2000/svg">
<path d="M17.0072 6.0558C17.0072 6.27965 16.9882 6.50349 16.9533 6.72479C16.9692 6.63576 16.985 6.54419 16.9977 6.45516C16.9217 6.89776 16.776 7.32764 16.5638 7.73971C16.6049 7.65832 16.6493 7.57692 16.6905 7.49552C16.4783 7.89742 16.2059 8.27389 15.8733 8.61983L16.0729 8.41379C15.7435 8.75464 15.3603 9.06242 14.9359 9.32697L15.1924 9.16671C14.7617 9.43126 14.293 9.65256 13.7925 9.82298C13.8939 9.78991 13.9952 9.7543 14.0966 9.72124C13.5835 9.89166 13.0483 10.0087 12.4972 10.0697C12.608 10.057 12.7221 10.0443 12.8329 10.0341C12.2787 10.0926 11.7213 10.0926 11.167 10.0341C11.2779 10.0468 11.3919 10.0595 11.5027 10.0697C10.9516 10.0087 10.4164 9.89166 9.90333 9.72124C10.0047 9.7543 10.106 9.78991 10.2074 9.82298C9.70697 9.65256 9.23823 9.4338 8.80751 9.16671L9.06404 9.32697C8.63965 9.06242 8.25643 8.75464 7.92705 8.41379L8.12658 8.61983C7.7972 8.27389 7.52166 7.89742 7.30946 7.49552C7.35063 7.57692 7.39497 7.65832 7.43614 7.73971C7.22395 7.32764 7.07826 6.89776 7.00225 6.45516C7.01809 6.54419 7.03392 6.63576 7.04659 6.72479C6.97374 6.27965 6.97374 5.83196 7.04659 5.38682C7.03075 5.47585 7.01492 5.56742 7.00225 5.65645C7.07826 5.21385 7.22395 4.78397 7.43614 4.37189C7.39497 4.45329 7.35063 4.53469 7.30946 4.61609C7.52166 4.21418 7.79403 3.83772 8.12658 3.49178L7.92705 3.69782C8.25643 3.35697 8.63965 3.04918 9.06404 2.78464L8.80751 2.94489C9.23823 2.68035 9.70697 2.45905 10.2074 2.28862C10.106 2.32169 10.0047 2.3573 9.90333 2.39037C10.4164 2.21995 10.9516 2.10294 11.5027 2.04189C11.3919 2.05461 11.2779 2.06732 11.167 2.0775C11.7213 2.019 12.2787 2.019 12.8329 2.0775C12.7221 2.06478 12.608 2.05206 12.4972 2.04189C13.0483 2.10294 13.5835 2.21995 14.0966 2.39037C13.9952 2.3573 13.8939 2.32169 13.7925 2.28862C14.293 2.45905 14.7617 2.67781 15.1924 2.94489L14.9359 2.78464C15.3603 3.04918 15.7435 3.35697 16.0729 3.69782L15.8733 3.49178C16.2027 3.83772 16.4783 4.21418 16.6905 4.61609C16.6493 4.53469 16.6049 4.45329 16.5638 4.37189C16.776 4.78397 16.9217 5.21385 16.9977 5.65645C16.9818 5.56742 16.966 5.47585 16.9533 5.38682C16.9882 5.60812 17.004 5.83196 17.0072 6.0558C17.0103 6.58743 17.5868 7.09871 18.274 7.07327C18.9581 7.04784 19.544 6.62559 19.5409 6.0558C19.5345 4.83738 19.0785 3.59098 18.1853 2.59895C17.9446 2.33187 17.6881 2.06987 17.4031 1.83331C17.1149 1.5942 16.7981 1.38816 16.4688 1.18721C15.8702 0.820925 15.2019 0.551296 14.4925 0.342715C11.6326 -0.499241 8.18358 0.251143 6.24847 2.14364C5.98244 2.40309 5.72907 2.67272 5.5137 2.9627C5.29834 3.25013 5.13048 3.55537 4.97529 3.8657C4.68392 4.44057 4.53506 5.05105 4.47489 5.66917C4.35771 6.87995 4.75043 8.14416 5.53587 9.18198C6.29281 10.1842 7.43614 11.0439 8.77267 11.5298C9.16539 11.6722 9.56761 11.8045 9.98567 11.8986C10.4006 11.9902 10.8218 12.0411 11.2494 12.0818C12.0285 12.1555 12.8234 12.1047 13.593 11.98C16.5163 11.5018 18.9645 9.47959 19.4173 7.10634C19.4839 6.7604 19.5345 6.41446 19.5345 6.06343C19.5377 5.53181 18.9486 5.02053 18.2677 5.04597C17.5836 5.06377 17.0072 5.48602 17.0072 6.0558ZM21.2099 21.9614H4.95946C4.24052 21.9614 3.52159 21.9665 2.80265 21.9614C2.72347 21.9614 2.64429 21.9563 2.56828 21.9487C2.67913 21.9614 2.79315 21.9741 2.904 21.9843C2.77731 21.969 2.65696 21.941 2.53978 21.9029C2.64113 21.936 2.74248 21.9716 2.84382 22.0046C2.71714 21.9614 2.59996 21.9054 2.48911 21.8367L2.74564 21.997C2.65063 21.9334 2.56195 21.8647 2.48594 21.7884L2.68547 21.9945C2.59996 21.9054 2.53345 21.8113 2.47644 21.7096C2.51761 21.791 2.56195 21.8724 2.60312 21.9538C2.55562 21.8596 2.52394 21.7604 2.50178 21.6612C2.51761 21.7503 2.53345 21.8418 2.54611 21.9309C2.49544 21.6231 2.53028 21.2975 2.53028 20.9872V19.8985C2.53028 19.6263 2.54928 19.3567 2.59362 19.087C2.57779 19.1761 2.56195 19.2676 2.54928 19.3567C2.63796 18.8352 2.80898 18.3239 3.06552 17.8381C3.02435 17.9195 2.98001 18.0009 2.93884 18.0823C3.18587 17.6193 3.50258 17.1844 3.88581 16.785L3.68628 16.9911C4.0695 16.5968 4.50973 16.2407 5.0038 15.9329L4.74726 16.0931C5.2445 15.7854 5.78608 15.531 6.36249 15.3326C6.26114 15.3656 6.1598 15.4013 6.05845 15.4343C6.66337 15.2308 7.29679 15.0909 7.94922 15.0197C7.83837 15.0324 7.72435 15.0451 7.6135 15.0553C8.08224 15.007 8.5478 15.0044 9.0197 15.0044H14.8155C15.3381 15.0044 15.8575 15.0019 16.3801 15.0553C16.2692 15.0426 16.1552 15.0299 16.0444 15.0197C16.6936 15.0909 17.3302 15.2283 17.9351 15.4343C17.8338 15.4013 17.7324 15.3656 17.6311 15.3326C18.2075 15.531 18.7491 15.7854 19.2463 16.0931L18.9898 15.9329C19.4807 16.2407 19.9241 16.5942 20.3073 16.9911L20.1078 16.785C20.491 17.1844 20.8077 17.6193 21.0547 18.0823C21.0136 18.0009 20.9692 17.9195 20.9281 17.8381C21.1814 18.3239 21.3556 18.8327 21.4443 19.3567C21.4285 19.2676 21.4126 19.1761 21.4 19.087C21.4601 19.4711 21.4633 19.8527 21.4633 20.2393V21.4984C21.4633 21.6434 21.4696 21.7884 21.4475 21.9309C21.4633 21.8418 21.4791 21.7503 21.4918 21.6612C21.4728 21.763 21.438 21.8596 21.3905 21.9538C21.4316 21.8724 21.476 21.791 21.5171 21.7096C21.4633 21.8113 21.3936 21.9054 21.3081 21.9945L21.5076 21.7884C21.4285 21.8647 21.343 21.9359 21.2479 21.997L21.5045 21.8367C21.3936 21.9054 21.2764 21.9588 21.1498 22.0046C21.2511 21.9716 21.3525 21.936 21.4538 21.9029C21.3366 21.941 21.2131 21.9665 21.0896 21.9843C21.2004 21.9716 21.3145 21.9588 21.4253 21.9487C21.3556 21.9563 21.2828 21.9588 21.2099 21.9614C20.8837 21.9639 20.548 22.0733 20.3136 22.259C20.0951 22.4345 19.9273 22.7245 19.9431 22.9789C19.9748 23.5232 20.5005 24.004 21.2099 23.9963C22.4419 23.9811 23.5251 23.335 23.8862 22.3862C24.0287 22.0097 23.997 21.6053 23.997 21.2186C23.997 20.3334 24.0318 19.4559 23.8418 18.5783C23.5631 17.2937 22.7587 16.0855 21.6565 15.1367C20.5543 14.1879 19.0721 13.491 17.5044 13.1806C16.6049 13.0026 15.6992 12.9746 14.7807 12.9746H9.16222C8.22159 12.9746 7.28729 13.0102 6.37199 13.2061C4.81694 13.5367 3.35373 14.2413 2.27374 15.1978C1.18425 16.1618 0.395642 17.3726 0.139105 18.6648C-0.0319189 19.5322 0.00291926 20.4021 0.00291926 21.2771C0.00291926 21.679 -0.0255847 22.0987 0.154941 22.4828C0.389308 22.9763 0.763028 23.3655 1.31094 23.658C1.7385 23.8844 2.28008 23.9938 2.78682 23.9989C3.03385 24.0014 3.28089 23.9989 3.52792 23.9989H21.2131C21.875 23.9989 22.5116 23.5308 22.48 22.9814C22.4483 22.4269 21.9225 21.9614 21.2099 21.9614Z" fill="#0092D3"/>
</svg>
