<svg width="40" height="40" viewBox="0 0 40 40" fill="none" xmlns="http://www.w3.org/2000/svg">
<path d="M13.8779 14.0484C13.6163 11.74 11.788 10 9.62812 10H5.37333C3.21344 10 1.38517 11.74 1.12354 14.0484L0.018595 23.7284C-0.0730411 24.5384 0.176947 25.3417 0.703561 25.9334C1.1569 26.4434 1.76187 26.7384 2.41512 26.775L3.33507 39.2284C3.37007 39.6634 3.73169 40 4.16839 40H10.8347C11.2713 40 11.633 39.6634 11.6663 39.2284L12.5863 26.775C13.2412 26.7384 13.8446 26.4416 14.2978 25.9334C14.8244 25.3434 15.0744 24.5384 14.9828 23.7284L13.8779 14.0484Z" fill="black"/>
<path d="M7.5014 8.33328C9.80293 8.33328 11.6678 6.46828 11.6678 4.16664C11.6678 1.865 9.80129 0 7.5014 0C5.19987 0 3.33496 1.865 3.33496 4.16664C3.33488 6.46828 5.19979 8.33328 7.5014 8.33328Z" fill="black"/>
<path d="M27.6988 1.59836C28.0621 1.44336 28.2654 1.05172 28.1871 0.665C28.1071 0.278359 27.7655 0 27.3705 0H19.1675C17.7892 0 16.6676 1.12164 16.6676 2.5V32.5C16.6676 33.8784 17.7892 35 19.1675 35H20.834C21.294 35 21.6674 34.6266 21.6674 34.1666V7.65672C21.6674 5.54836 22.9207 3.64836 24.8588 2.81672L27.6988 1.59836Z" fill="black"/>
<path d="M36.4017 0C35.9101 0 35.4334 0.0983594 34.9818 0.291641L25.5139 4.35C24.1906 4.91664 23.334 6.215 23.334 7.65664V36.4016C23.334 38.385 24.9489 40 26.9322 40C27.4238 40 27.9005 39.9016 28.3521 39.7084L37.82 35.65C39.1433 35.0834 39.9999 33.785 39.9999 32.3434V3.59836C39.9999 1.615 38.385 0 36.4017 0ZM28.3337 22.5C28.3337 22.96 27.9604 23.3334 27.5004 23.3334C27.0404 23.3334 26.6671 22.96 26.6671 22.5V19.1666C26.6671 18.7066 27.0404 18.3333 27.5004 18.3333C27.9604 18.3333 28.3337 18.7066 28.3337 19.1666V22.5Z" fill="black"/>
</svg>
