<svg width="40" height="36" viewBox="0 0 40 36" fill="none" xmlns="http://www.w3.org/2000/svg">
<path d="M0 3C0 4.5 1 5.5 2.5 5.5L37.5 5.5C39 5.5 40 4.5 40 3C40 1.5 39 0.5 37.5 0.5L2.5 0.5C1 0.5 0 1.5 0 3Z" fill="black"/>
<path d="M0 18C0 19.5 1 20.5 2.5 20.5L37.5 20.5C39 20.5 40 19.5 40 18C40 16.5 39 15.5 37.5 15.5L2.5 15.5C1 15.5 0 16.5 0 18Z" fill="black"/>
<path d="M0 33C0 34.5 1 35.5 2.5 35.5H37.5C39 35.5 40 34.5 40 33C40 31.5 39 30.5 37.5 30.5L2.5 30.5C1 30.5 0 31.5 0 33Z" fill="black"/>
</svg>
