<svg width="30" height="18" viewBox="0 0 30 18" fill="none" xmlns="http://www.w3.org/2000/svg">
<path d="M14.9962 8.18663C17.2144 8.18663 18.9976 6.40661 18.9976 4.21897C19.0001 2.02492 17.2144 0.25 14.9962 0.25C12.7933 0.25 11.0051 2.02492 11.0051 4.21897C11.0051 6.40922 12.7934 8.18663 14.9962 8.18663Z" fill="black"/>
<path d="M18.2056 8.83325H11.7968C10.6509 8.83325 9.7124 9.87598 9.7124 11.1551V17.5443C9.7124 17.6145 9.74845 17.6771 9.75233 17.75H20.2463C20.254 17.6772 20.2836 17.6146 20.2836 17.5443V11.1551C20.2874 9.87598 19.3489 8.83325 18.2056 8.83325Z" fill="black"/>
<path d="M25.7591 10.0805C27.5396 10.0805 28.9673 8.65831 28.9673 6.90128C28.9673 5.14424 27.5396 3.71948 25.7591 3.71948C23.9914 3.71948 22.561 5.14424 22.561 6.90128C22.5572 8.65707 23.9914 10.0805 25.7591 10.0805Z" fill="black"/>
<path d="M28.3328 10.5994H23.1972C22.2754 10.5994 21.5222 11.4351 21.5222 12.4637V17.5828C21.5222 17.6378 21.5493 17.6901 21.5531 17.7502H29.9705C29.9743 17.6901 30.0001 17.6378 30.0001 17.5828V12.4637C30.0039 11.4351 29.2521 10.5994 28.3328 10.5994Z" fill="black"/>
<path d="M4.23834 10.0805C6.01628 10.0805 7.44537 8.65831 7.44537 6.90128C7.44537 5.14424 6.01628 3.71948 4.23834 3.71948C2.4694 3.71948 1.03906 5.14424 1.03906 6.90128C1.03906 8.65831 2.4694 10.0805 4.23834 10.0805Z" fill="black"/>
<path d="M6.81055 10.5994H1.6698C0.750593 10.5994 0 11.4351 0 12.4637V17.5828C0 17.6378 0.0270371 17.6901 0.03217 17.7502H8.44949C8.45337 17.6901 8.47784 17.6378 8.47784 17.5828V12.4637C8.48041 11.4351 7.7285 10.5994 6.81055 10.5994Z" fill="black"/>
</svg>
