<svg width="30" height="22" viewBox="0 0 30 22" fill="none" xmlns="http://www.w3.org/2000/svg">
<path d="M4.77193 4.14372C6.13166 4.14372 7.23328 3.21574 7.23328 2.07205C7.23328 0.927187 6.13166 0 4.77193 0C3.41162 0 2.31006 0.927187 2.31006 2.07205C2.31006 3.21574 3.41162 4.14372 4.77193 4.14372Z" fill="black"/>
<path d="M13.1347 10.4592C13.1347 10.417 13.1264 10.3767 13.12 10.336L16.7967 8.09012C17.0276 7.94873 17.0797 7.67532 16.9117 7.48047C16.8142 7.36779 16.6573 7.30037 16.4916 7.30037C16.3816 7.30037 16.2767 7.32942 16.1874 7.38367L12.5034 9.63424C12.3662 9.58158 12.2157 9.55021 12.0551 9.55021H10.0525L9.56654 7.22142C9.29965 6.04716 8.73967 5.125 7.54693 5.125H2.49029C1.29762 5.125 0 6.21715 0 7.22142V14.185C0 14.6869 0.483164 15.094 1.07953 15.094C1.37314 15.094 1.07953 15.094 1.83328 15.094L2.24373 21.0328C2.24373 21.5669 2.75865 21.9999 3.39322 21.9999C3.869 21.9999 5.05717 21.9999 5.69174 21.9999C6.32631 21.9999 6.84076 21.5669 6.84076 21.0328L7.38006 9.26946H7.40719L7.71598 10.417C7.81816 10.9642 8.37768 11.3678 9.03574 11.3678H12.0553C12.6516 11.3678 13.1347 10.9611 13.1347 10.4592ZM3.9859 9.16831V5.85808H5.39953V9.16831L4.64854 9.91387L3.9859 9.16831Z" fill="black"/>
<path d="M11.1519 0.716309V8.28131H12.5655V1.90605H28.5863V13.2751H12.5655V11.8441H11.1519V14.4649H29.9999V0.716309H11.1519Z" fill="black"/>
<path d="M18.2701 17.5393C18.2701 16.6121 17.3774 15.8611 16.2763 15.8611C15.1747 15.8611 14.282 16.6121 14.282 17.5393C14.282 18.4657 15.1747 19.2174 16.2763 19.2174C17.3774 19.2174 18.2701 18.4656 18.2701 17.5393Z" fill="black"/>
<path d="M16.2763 20.1165C14.8549 20.1165 13.6474 20.9015 13.1836 22.0003H19.369C18.9052 20.9015 17.6977 20.1165 16.2763 20.1165Z" fill="black"/>
<path d="M26.8695 17.5393C26.8695 16.6121 25.9768 15.8611 24.8756 15.8611C23.774 15.8611 22.8813 16.6121 22.8813 17.5393C22.8813 18.4657 23.774 19.2174 24.8756 19.2174C25.9768 19.2174 26.8695 18.4656 26.8695 17.5393Z" fill="black"/>
<path d="M24.8757 20.1165C23.4543 20.1165 22.2468 20.9015 21.783 22.0003H27.9684C27.5046 20.9015 26.2971 20.1165 24.8757 20.1165Z" fill="black"/>
</svg>
