<svg width="25" height="30" viewBox="0 0 25 30" fill="none" xmlns="http://www.w3.org/2000/svg">
<path d="M7.68877 3.86157H7.68758H2.48751C2.42775 5.48766 3.61888 6.81833 5.08814 6.81833C6.55734 6.81833 7.74852 5.48755 7.68877 3.86157Z" fill="black"/>
<path d="M10.1229 10.3643C10.1164 8.95147 9.05607 7.79858 7.76002 7.79858H2.39979C1.10347 7.79858 0.0433954 8.94954 0.0368988 10.3643C0.0355028 10.6611 0.00146273 18.0621 1.30724e-05 18.3695C-0.00277886 18.9712 0.441997 19.4615 0.993457 19.4645C0.995175 19.4645 0.996893 19.4645 0.998611 19.4645C1.54766 19.4645 1.99415 18.9802 1.99694 18.3804C1.99844 18.061 2.03249 10.6563 2.03383 10.3752C2.03383 10.3744 2.03383 10.3735 2.03383 10.3728C2.03501 10.2571 2.12167 10.1641 2.22771 10.1647C2.33375 10.1654 2.41938 10.2594 2.41938 10.3751C2.41944 13.0984 2.41987 28.6924 2.41987 28.6924C2.41987 29.4145 2.95635 30 3.61803 30C4.27972 30 4.8162 29.4145 4.8162 28.6924V18.2409H5.33351V28.6924C5.33351 29.4145 5.86999 30 6.53168 30C7.19337 30 7.72985 29.4145 7.72985 28.6924C7.72985 10.7525 7.7081 21.9181 7.7081 10.3669C7.7081 10.241 7.80163 10.1389 7.91707 10.1389C8.03245 10.1389 8.12603 10.2409 8.12609 10.3669C8.12609 10.3697 8.12609 10.3724 8.12603 10.3753C8.12603 10.3753 8.15895 17.5197 8.16292 18.3805C8.16566 18.9804 8.61215 19.4646 9.16125 19.4646C9.16291 19.4646 9.16474 19.4646 9.1664 19.4646C9.71781 19.4617 10.1626 18.9713 10.1598 18.3696C10.1583 18.0621 10.1243 10.6609 10.1229 10.3643Z" fill="black"/>
<path d="M9.19002 2.15947C8.86524 2.15947 7.87072 2.15947 7.51169 2.15947C7.18267 1.23363 6.42284 0.542694 5.50027 0.380097C5.47868 0.166347 5.31278 0 5.11111 0C4.91257 0 4.74892 0.161426 4.7233 0.370488C3.45367 0.561151 2.47559 1.7492 2.47559 3.18708C2.47559 3.18708 8.41853 3.16904 9.19002 3.16904C9.44548 3.16904 9.65257 2.9431 9.65257 2.66425C9.65262 2.38547 9.44553 2.15947 9.19002 2.15947Z" fill="black"/>
<path d="M24.9384 17.0727C24.5078 15.7867 23.3206 12.071 22.4974 9.4924C22.129 8.33846 21.1312 7.56367 20.0115 7.5632C18.9899 7.56279 17.9738 7.5625 16.9655 7.5625C15.8505 7.5625 14.8571 8.32867 14.4839 9.47523C13.462 12.6146 12.3509 16.0029 11.9926 17.0728C11.8011 17.6441 12.0704 18.2767 12.5939 18.4856C13.117 18.6944 13.697 18.401 13.8885 17.8293C14.3688 16.3963 15.4388 13.1441 15.8945 11.7562C15.5744 13.7087 14.8592 17.7147 14.4608 19.959C14.3936 20.3379 14.6613 20.688 15.0113 20.688C15.2285 20.688 15.4899 20.688 15.7815 20.688V28.6782C15.7815 29.4083 16.3238 30.0001 16.9927 30.0001C17.6617 30.0001 18.204 29.4083 18.204 28.6782V20.6879C18.3781 20.6879 18.5528 20.6879 18.727 20.6879V28.6782C18.727 29.4083 19.2692 30.0001 19.9382 30.0001C20.6071 30.0001 21.1494 29.4083 21.1494 28.6782V20.6879C21.441 20.6879 21.7026 20.6879 21.9196 20.6879C22.2716 20.6879 22.5373 20.3374 22.4701 19.959C21.2804 13.2614 21.0895 12.2294 21.0365 11.7562C21.8448 14.2537 23.0284 17.7873 23.0424 17.8293C23.2338 18.4005 23.8132 18.6945 24.337 18.4856C24.8606 18.2766 25.1299 17.6441 24.9384 17.0727Z" fill="black"/>
<path d="M24.1171 6.67486C23.5435 5.38797 22.8713 4.92403 22.4635 4.70172C22.1542 4.53309 21.8242 4.50877 21.5315 4.71895L21.5726 4.61377C21.6395 4.44245 21.5664 4.24434 21.4094 4.17133C21.2749 4.10881 21.1229 4.15903 21.0399 4.28219C21.2143 2.58175 19.9948 1.12183 18.4534 1.12183C16.9093 1.12183 15.6928 2.58485 15.8668 4.28213C15.7838 4.15897 15.632 4.10887 15.4974 4.17133C15.3405 4.24434 15.2674 4.44239 15.3342 4.61377L15.3753 4.71895C15.0827 4.50872 14.7528 4.53303 14.4434 4.70166C14.0356 4.92403 13.3633 5.38791 12.7898 6.67481C12.7269 6.81602 12.8507 6.97053 12.9871 6.92166C14.0015 6.5585 15.0285 6.88024 15.4287 6.66209C15.65 6.54145 15.8212 6.32717 15.8944 6.0492C15.9327 6.14717 15.9921 6.36977 16.2239 6.36977C16.4443 6.36977 16.5951 6.12309 16.5081 5.90031L16.4696 5.8017C16.9472 6.41471 17.6585 6.80406 18.4535 6.80406C19.2486 6.80406 19.9599 6.41465 20.4374 5.80164L20.3989 5.90026C20.312 6.12303 20.4625 6.36971 20.6831 6.36971C20.9145 6.36971 20.9746 6.14653 21.0126 6.0492C21.0857 6.32617 21.2563 6.54098 21.4783 6.66203C21.8785 6.88024 22.9055 6.55844 23.92 6.9216C24.0562 6.97047 24.18 6.81596 24.1171 6.67486Z" fill="black"/>
</svg>
