<svg width="36" height="41" viewBox="0 0 36 41" fill="none" xmlns="http://www.w3.org/2000/svg">
<path d="M35.2318 36.0754C35.7013 36.6119 35.9651 37.3396 35.9651 38.0983C35.9651 38.8571 35.7013 39.5848 35.2318 40.1213C34.7624 40.6578 34.1256 40.9592 33.4617 40.9592C32.7977 40.9592 32.161 40.6578 31.6915 40.1213L18.4692 25.0063L5.24284 40.1165C4.77336 40.6531 4.1366 40.9545 3.47266 40.9545C2.80871 40.9545 2.17195 40.6531 1.70247 40.1165C1.23299 39.58 0.969238 38.8523 0.969238 38.0936C0.969238 37.3348 1.23299 36.6072 1.70247 36.0706L14.9289 20.9604L1.70664 5.84543C1.23716 5.30891 0.973404 4.58124 0.973404 3.82249C0.973404 3.06374 1.23716 2.33606 1.70664 1.79954C2.17612 1.26302 2.81287 0.961608 3.47682 0.961608C4.14077 0.961608 4.77752 1.26302 5.24701 1.79954L18.4692 16.9145L31.6956 1.79716C32.1651 1.26064 32.8019 0.959229 33.4658 0.959229C34.1298 0.959229 34.7665 1.26064 35.236 1.79716C35.7055 2.33368 35.9692 3.06135 35.9692 3.82011C35.9692 4.57886 35.7055 5.30654 35.236 5.84305L22.0096 20.9604L35.2318 36.0754Z" fill="black"/>
</svg>
